{"glyphs":{"0":{"ha":763,"x_min":88,"x_max":671,"o":"m 671 703 l 671 257 q 585 51 671 117 q 381 -15 500 -15 q 174 51 261 -15 q 88 257 88 117 l 88 704 q 166 921 88 847 q 382 994 244 994 q 595 917 519 994 q 671 703 671 839 m 544 276 l 544 675 q 506 814 544 767 q 379 861 468 861 q 252 815 290 861 q 214 676 214 768 l 214 275 q 258 154 214 197 q 378 111 301 111 q 499 155 454 111 q 544 276 544 199 z "},"1":{"ha":326,"x_min":24,"x_max":304,"o":"m 304 0 l 176 0 l 178 801 q 79 769 139 778 l 58 767 l 24 879 q 105 909 61 885 q 178 972 149 933 l 304 972 l 304 0 z "},"2":{"ha":556,"x_min":24,"x_max":532,"o":"m 532 0 l 24 0 l 24 117 l 354 608 q 401 744 401 688 q 392 792 401 771 q 276 863 361 863 q 200 833 233 863 q 158 763 167 804 l 44 819 q 133 939 69 892 q 292 986 197 986 q 456 925 388 986 q 528 762 528 857 q 467 564 528 667 l 171 117 l 532 117 l 532 0 z "},"3":{"ha":588,"x_min":24,"x_max":565,"o":"m 24 115 l 107 200 q 174 133 131 158 q 268 107 218 107 q 392 158 344 107 q 439 283 439 208 q 382 402 439 357 q 235 451 325 447 l 82 451 l 344 846 l 85 846 l 85 972 l 485 972 l 485 849 l 301 574 l 307 572 q 488 478 411 560 q 565 276 565 397 q 478 69 565 156 q 269 -17 392 -17 q 129 19 194 -17 q 24 115 64 54 z "},"4":{"ha":707,"x_min":24,"x_max":685,"o":"m 588 0 l 461 0 l 461 451 l 24 451 l 292 972 l 421 972 l 231 574 l 461 574 l 461 972 l 588 972 l 588 574 l 685 574 l 658 451 l 588 451 l 588 0 z "},"5":{"ha":588,"x_min":24,"x_max":565,"o":"m 24 115 l 107 201 q 262 108 174 108 q 394 158 350 108 q 439 283 439 208 q 381 404 439 357 q 232 451 324 451 l 63 451 l 118 972 l 488 972 l 488 846 l 235 846 l 207 574 l 269 574 q 479 488 393 574 q 565 278 565 401 q 478 69 565 156 q 269 -17 392 -17 q 129 19 194 -17 q 24 115 64 54 z "},"6":{"ha":636,"x_min":24,"x_max":614,"o":"m 24 279 l 24 640 q 94 856 24 756 q 200 940 131 907 q 363 972 269 972 l 411 972 l 411 846 l 368 846 q 150 618 150 846 l 150 511 q 224 556 175 538 q 318 574 272 574 q 528 488 442 574 q 614 278 614 401 q 528 69 614 156 q 319 -17 442 -17 q 110 69 196 -17 q 24 279 24 156 m 149 286 l 149 279 q 198 158 149 208 q 318 108 247 108 q 438 158 389 108 q 488 279 488 208 q 438 399 488 350 q 319 447 389 447 q 199 401 249 447 q 149 286 150 354 z "},"7":{"ha":610,"x_min":29,"x_max":588,"o":"m 169 0 l 29 0 l 446 846 l 40 846 l 40 972 l 588 972 l 588 846 l 169 0 z "},"8":{"ha":638,"x_min":24,"x_max":615,"o":"m 440 159 q 464 184 440 159 q 489 279 489 208 q 440 399 489 350 q 314 450 392 449 q 198 399 246 449 q 150 278 150 349 q 199 159 150 208 q 319 110 249 110 q 440 159 390 110 m 458 539 q 572 431 529 500 q 615 279 615 363 q 528 69 615 156 q 319 -17 442 -17 q 110 69 197 -17 q 24 279 24 156 q 67 433 24 364 q 182 540 110 503 q 78 740 78 611 q 149 913 78 842 q 321 985 219 985 q 494 913 422 985 q 565 740 565 842 q 458 539 565 610 m 200 741 q 200 716 200 741 q 234 658 200 692 q 318 624 268 624 q 403 658 368 624 q 439 741 439 692 q 404 826 439 790 q 320 861 369 861 q 235 826 271 861 q 200 741 200 790 z "},"9":{"ha":636,"x_min":24,"x_max":614,"o":"m 275 0 l 226 0 l 226 118 l 281 118 q 432 182 375 118 q 489 357 489 246 l 489 457 q 319 396 418 396 q 110 482 196 396 q 24 691 24 568 q 110 900 24 814 q 319 986 197 986 q 528 900 442 986 q 614 690 614 814 l 614 332 q 544 117 614 217 q 438 33 507 65 q 275 0 368 0 m 200 572 q 225 547 200 572 q 319 522 250 522 q 439 572 389 522 q 489 692 489 621 q 438 813 489 764 q 319 861 388 861 q 200 810 250 861 q 150 690 150 760 q 200 572 150 621 z "}," ":{"ha":386,"x_min":0,"x_max":0,"o":""},"!":{"ha":357,"x_min":108,"x_max":246,"o":"m 222 167 l 131 167 l 108 906 q 175 986 108 986 q 246 907 246 986 l 222 167 m 177 124 q 190 124 177 124 q 221 106 203 124 q 239 62 239 88 q 221 18 239 36 q 177 0 203 0 q 133 18 151 0 q 115 62 115 36 q 133 106 115 88 q 177 124 151 124 z "},"\"":{"ha":592,"x_min":146,"x_max":460,"o":"m 240 711 l 165 711 l 146 968 q 175 1017 146 1001 q 203 1024 189 1024 l 231 1017 q 260 968 260 1003 l 240 711 m 440 711 l 365 711 l 346 968 q 375 1017 346 1001 q 403 1024 389 1024 l 431 1017 q 460 968 460 1003 l 440 711 z "},"#":{"ha":851,"x_min":47,"x_max":808,"o":"m 808 243 l 579 243 l 522 0 l 394 0 l 449 243 l 285 243 l 229 0 l 107 0 l 164 243 l 47 243 l 47 363 l 192 363 l 231 524 l 47 524 l 47 651 l 261 651 l 335 972 l 457 972 l 382 651 l 547 651 l 622 972 l 751 972 l 676 651 l 808 651 l 808 524 l 646 524 l 608 363 l 808 363 l 808 243 m 478 363 l 517 524 l 351 524 l 314 363 l 478 363 z "},"$":{"ha":750,"x_min":47,"x_max":707,"o":"m 439 -158 l 313 -158 l 313 -10 q 119 81 189 6 q 47 247 50 157 l 182 263 q 221 171 186 211 q 313 118 256 131 l 313 489 q 89 650 129 561 q 71 746 71 692 q 133 896 71 829 q 313 981 196 963 l 313 1135 l 439 1135 l 439 983 q 588 944 515 978 l 581 925 q 565 876 575 907 q 547 825 554 846 q 439 854 493 846 l 439 574 q 619 467 550 526 q 707 275 707 394 q 641 80 707 156 q 439 -11 575 4 l 439 -158 m 439 431 l 439 117 q 533 168 499 131 q 568 262 568 206 q 534 358 568 318 q 439 431 500 399 m 313 629 l 313 850 q 207 736 203 824 q 313 629 208 675 z "},"%":{"ha":944,"x_min":47,"x_max":901,"o":"m 139 0 l 47 82 l 803 1032 l 901 953 l 139 0 m 833 43 q 804 14 833 43 q 692 -15 775 -15 q 550 43 608 -15 q 492 185 492 101 q 550 326 492 268 q 692 385 608 385 q 833 326 775 385 q 892 185 892 268 q 833 43 892 101 m 747 131 q 758 143 747 131 q 768 185 768 154 q 747 238 768 215 q 692 261 726 261 q 636 238 657 261 q 615 185 615 215 q 636 131 615 154 q 692 108 657 108 q 747 131 726 108 m 401 668 q 372 639 401 668 q 260 610 343 610 q 118 668 176 610 q 60 810 60 726 q 118 951 60 893 q 260 1010 176 1010 q 401 951 343 1010 q 460 810 460 893 q 401 668 460 726 m 316 756 q 327 767 316 756 q 338 810 338 779 q 316 864 338 840 q 260 888 294 888 q 205 864 226 888 q 183 810 183 840 q 205 756 183 779 q 260 732 226 732 q 316 756 294 732 z "},"&":{"ha":772,"x_min":49,"x_max":729,"o":"m 692 85 l 669 -15 q 503 81 554 -3 q 306 -15 440 -15 q 106 72 171 -15 q 49 249 49 149 q 74 379 49 324 q 127 466 100 435 q 190 524 154 497 q 303 585 244 564 q 225 650 257 600 q 192 772 192 703 q 294 950 192 890 q 419 989 360 989 q 529 971 478 989 l 457 861 q 417 868 439 868 q 369 853 396 868 q 322 766 322 825 q 362 679 322 707 q 436 651 401 651 q 450 653 443 651 l 474 656 l 474 833 l 600 846 l 600 672 l 701 694 l 729 568 l 600 542 l 600 233 q 692 85 600 115 m 474 308 l 474 514 q 211 378 276 468 q 172 263 172 325 q 204 157 172 201 q 310 113 236 113 q 429 172 385 113 q 474 308 474 232 z "},"'":{"ha":240,"x_min":64,"x_max":178,"o":"m 158 818 l 83 818 l 64 968 q 92 1017 64 1001 q 122 1024 107 1024 l 150 1017 q 178 968 178 1003 l 158 818 z "},"(":{"ha":438,"x_min":108,"x_max":326,"o":"m 326 -71 l 268 -162 q 146 -60 183 -114 q 108 99 108 -7 l 108 871 q 146 1032 108 976 q 267 1135 183 1088 l 325 1038 q 233 857 233 999 l 233 114 q 263 -19 233 17 q 290 -47 279 -39 q 326 -71 301 -56 z "},")":{"ha":438,"x_min":108,"x_max":326,"o":"m 167 -162 l 108 -71 q 156 -39 142 -51 q 185 13 171 -26 q 200 114 200 51 l 200 857 q 110 1038 200 999 l 168 1135 q 289 1032 251 1088 q 326 871 326 976 l 326 99 q 289 -60 326 -7 q 167 -162 251 -114 z "},"*":{"ha":489,"x_min":24,"x_max":467,"o":"m 422 639 l 310 561 l 243 715 l 176 561 l 65 640 l 181 751 l 24 779 l 67 896 l 206 815 l 176 972 l 310 972 l 279 815 l 417 897 l 467 778 l 304 750 l 422 639 z "},"+":{"ha":535,"x_min":47,"x_max":492,"o":"m 333 285 l 206 285 l 206 451 l 47 451 l 47 574 l 206 574 l 206 757 l 333 757 l 333 574 l 492 574 l 492 451 l 333 451 l 333 285 z "},",":{"ha":238,"x_min":6,"x_max":179,"o":"m 88 -117 l 6 -76 q 101 -4 67 -42 l 86 0 q 51 55 50 21 q 69 106 51 89 q 114 124 88 124 q 163 99 146 124 q 179 46 179 74 q 88 -117 179 -36 z "},"-":{"ha":569,"x_min":63,"x_max":507,"o":"m 507 451 l 63 451 l 63 574 l 507 574 l 507 451 z "},".":{"ha":188,"x_min":6,"x_max":129,"o":"m 111 18 q 102 9 111 18 q 68 0 93 0 q 24 18 43 0 q 6 62 6 36 q 24 106 6 88 q 68 124 43 124 q 111 106 93 124 q 129 62 129 88 q 111 18 129 36 z "},"/":{"ha":632,"x_min":24,"x_max":610,"o":"m 158 -158 l 24 -158 l 474 1135 l 610 1135 l 158 -158 z "},":":{"ha":178,"x_min":24,"x_max":156,"o":"m 135 470 q 126 461 135 470 q 90 451 117 451 q 44 470 64 451 q 25 515 25 489 q 44 561 25 542 q 90 581 64 581 q 135 561 117 581 q 154 515 154 542 q 135 470 154 489 m 156 219 q 156 206 156 219 q 136 172 156 192 q 90 153 117 153 q 43 172 63 153 q 24 219 24 192 q 43 267 24 247 q 90 286 63 286 q 136 267 117 286 q 156 219 156 247 z "},";":{"ha":219,"x_min":24,"x_max":197,"o":"m 177 319 q 168 309 177 319 q 132 300 158 300 q 88 319 106 300 q 69 364 69 338 q 88 408 69 390 q 132 426 106 426 q 177 408 158 426 q 196 364 196 390 q 177 319 196 338 m 106 -117 l 24 -76 q 119 -4 85 -42 l 103 0 q 68 54 68 19 q 87 106 68 89 q 131 124 106 124 q 181 99 164 124 q 197 49 197 74 q 106 -117 197 -33 z "},"<":{"ha":518,"x_min":24,"x_max":496,"o":"m 493 189 l 410 111 l 24 497 l 24 499 l 410 885 l 496 803 l 188 497 l 493 189 z "},"=":{"ha":490,"x_min":24,"x_max":468,"o":"m 468 496 l 24 496 l 24 618 l 468 618 l 468 496 m 468 307 l 24 307 l 24 429 l 468 429 l 468 307 z "},">":{"ha":518,"x_min":22,"x_max":494,"o":"m 108 111 l 25 189 l 331 497 l 22 803 l 108 885 l 494 499 l 494 497 l 108 111 z "},"?":{"ha":553,"x_min":24,"x_max":531,"o":"m 315 165 l 193 165 l 193 294 q 213 413 193 358 q 255 497 232 467 q 314 569 278 528 q 375 650 350 611 q 400 735 400 689 q 362 828 400 793 q 272 864 324 864 q 186 831 221 864 q 151 739 151 797 l 24 739 q 88 914 24 843 q 271 985 153 985 q 381 961 328 985 q 518 806 478 917 q 531 743 531 771 q 481 583 531 656 q 419 508 456 546 q 364 448 382 469 q 331 377 346 426 q 315 253 317 328 l 315 165 m 253 124 q 265 124 253 124 q 297 106 278 124 q 315 62 315 88 q 297 18 315 36 q 253 0 278 0 q 210 18 228 0 q 192 62 192 36 q 210 106 192 88 q 253 124 228 124 z "},"@":{"ha":1038,"x_min":24,"x_max":1015,"o":"m 753 126 q 450 74 571 74 q 342 90 389 74 q 259 156 294 107 q 218 283 224 204 l 218 424 q 340 624 218 578 q 407 640 378 640 q 471 638 436 640 q 625 599 550 632 q 569 683 618 657 q 449 713 518 713 q 230 653 318 713 q 142 464 142 594 l 142 264 q 194 105 142 167 q 316 22 246 43 q 472 0 386 0 q 729 57 618 0 q 840 225 840 114 l 839 468 q 868 631 839 590 q 978 694 904 679 l 1015 596 q 970 556 981 582 q 960 490 960 531 l 961 244 q 928 97 961 163 q 845 -6 896 32 q 726 -69 794 -44 q 469 -115 607 -115 q 464 -115 467 -115 q 150 -19 276 -115 q 24 254 24 78 l 24 475 q 49 615 24 553 q 119 717 75 678 q 308 813 204 793 q 444 825 388 825 q 553 809 500 825 q 653 764 607 793 q 726 680 699 735 q 753 554 753 625 l 804 533 l 804 414 l 753 436 l 753 126 m 372 222 q 417 194 392 201 q 491 186 443 186 q 626 215 539 186 l 626 478 q 447 524 536 524 q 367 496 397 524 q 336 414 336 468 l 336 317 q 372 222 336 257 z "},"A":{"ha":732,"x_min":25,"x_max":718,"o":"m 718 0 l 571 0 l 494 285 l 239 285 l 165 0 l 25 0 l 282 972 l 447 972 l 718 0 m 464 417 l 364 764 l 269 417 l 464 417 z "},"B":{"ha":761,"x_min":108,"x_max":710,"o":"m 418 0 l 108 0 l 108 972 l 400 972 q 587 910 514 972 q 660 724 660 847 q 568 538 660 600 q 567 535 567 536 l 567 533 q 669 444 628 506 q 710 286 710 382 q 649 94 710 176 q 558 26 617 51 q 418 0 499 0 m 235 574 l 357 574 q 515 714 515 574 q 476 818 515 789 q 364 847 438 847 l 235 847 l 235 574 m 235 117 l 374 117 q 517 152 468 117 q 567 282 567 188 q 517 414 567 376 q 390 451 467 451 l 235 451 l 235 117 z "},"C":{"ha":600,"x_min":92,"x_max":593,"o":"m 572 149 l 593 32 q 368 -14 475 -14 q 301 -10 346 -14 q 205 22 256 -6 q 123 108 154 49 q 92 254 92 167 l 92 700 q 122 860 92 806 q 213 951 151 914 q 361 986 275 986 q 558 940 468 986 l 522 832 q 384 857 456 857 q 265 822 313 857 q 218 713 218 786 l 218 257 q 249 160 218 194 q 374 115 288 115 q 572 149 460 115 z "},"D":{"ha":800,"x_min":108,"x_max":692,"o":"m 397 0 l 108 0 l 108 974 l 369 974 q 609 888 526 974 q 692 658 692 801 l 692 278 q 397 0 692 0 m 565 264 l 565 672 q 516 806 565 763 q 383 849 467 849 l 235 849 l 235 115 l 375 115 q 523 153 481 115 q 565 264 565 190 z "},"E":{"ha":646,"x_min":108,"x_max":572,"o":"m 569 0 l 108 0 l 108 972 l 572 972 l 572 847 l 235 847 l 235 574 l 451 574 l 414 451 l 235 451 l 235 114 l 569 114 l 569 0 z "},"F":{"ha":624,"x_min":108,"x_max":572,"o":"m 235 0 l 108 0 l 108 972 l 572 972 l 572 847 l 235 847 l 235 574 l 444 574 l 400 451 l 235 451 l 235 0 z "},"G":{"ha":746,"x_min":90,"x_max":661,"o":"m 661 0 l 547 0 l 535 28 q 383 -14 474 -14 q 176 56 261 -14 q 90 263 90 125 l 90 699 q 211 950 90 876 q 360 985 274 985 q 557 939 467 985 l 519 831 q 385 857 449 857 q 217 711 217 857 l 217 260 q 382 113 217 113 q 492 149 449 113 q 536 258 536 185 l 536 294 l 453 294 l 411 417 l 661 417 l 661 0 z "},"H":{"ha":817,"x_min":108,"x_max":706,"o":"m 706 0 l 581 0 l 581 451 l 235 451 l 235 0 l 108 0 l 108 972 l 235 972 l 235 574 l 581 574 l 581 972 l 706 972 l 706 0 z "},"I":{"ha":411,"x_min":88,"x_max":303,"o":"m 303 0 l 175 0 l 175 850 l 88 853 l 88 972 l 303 972 l 303 0 z "},"J":{"ha":307,"x_min":-7,"x_max":253,"o":"m 32 -51 l -7 51 q 52 60 25 51 q 103 103 79 68 q 128 196 128 138 l 128 850 l 42 853 l 42 972 l 253 972 l 253 183 q 202 6 253 61 q 32 -51 151 -50 z "},"K":{"ha":711,"x_min":110,"x_max":710,"o":"m 710 0 l 554 0 l 274 418 l 243 372 l 243 0 l 110 0 l 110 974 l 243 974 l 243 593 l 499 974 l 650 974 l 349 533 l 710 0 z "},"L":{"ha":611,"x_min":108,"x_max":610,"o":"m 610 0 l 108 0 l 108 972 l 235 972 l 235 115 l 610 115 l 610 0 z "},"M":{"ha":964,"x_min":108,"x_max":853,"o":"m 853 0 l 726 0 l 726 594 l 532 0 l 426 0 l 235 593 l 235 0 l 108 0 l 108 972 l 235 972 l 479 256 l 726 972 l 853 972 l 853 0 z "},"N":{"ha":903,"x_min":108,"x_max":792,"o":"m 792 0 l 664 0 l 235 717 l 235 0 l 108 0 l 108 972 l 235 972 l 664 258 l 664 972 l 792 972 l 792 0 z "},"O":{"ha":763,"x_min":88,"x_max":671,"o":"m 671 703 l 671 257 q 585 51 671 117 q 381 -15 500 -15 q 174 51 261 -15 q 88 257 88 117 l 88 704 q 166 921 88 847 q 382 994 244 994 q 595 917 519 994 q 671 703 671 839 m 544 276 l 544 675 q 506 814 544 767 q 379 861 468 861 q 252 815 290 861 q 214 676 214 768 l 214 275 q 258 154 214 197 q 378 111 301 111 q 499 155 454 111 q 544 276 544 199 z "},"P":{"ha":763,"x_min":108,"x_max":711,"o":"m 235 417 l 415 417 q 525 447 478 417 q 572 524 549 463 q 585 588 585 553 q 585 653 585 588 q 540 804 585 761 q 410 847 496 847 l 235 847 l 235 417 m 235 0 l 108 0 l 108 972 l 433 972 q 642 883 574 972 q 711 654 711 794 q 446 294 711 294 l 235 294 l 235 0 z "},"Q":{"ha":763,"x_min":88,"x_max":671,"o":"m 597 -39 l 585 -150 q 575 -150 579 -150 q 342 -12 400 -150 q 175 50 251 -7 q 111 133 135 79 q 88 257 88 186 l 88 704 q 166 921 88 847 q 382 994 244 994 q 595 917 519 994 q 671 703 671 839 l 671 257 q 611 76 671 139 q 471 -3 551 13 q 515 -32 489 -25 q 565 -39 542 -39 q 597 -39 589 -39 m 544 260 l 544 707 q 505 818 544 774 q 379 863 465 863 q 214 707 214 863 l 214 258 q 240 161 214 208 q 317 113 265 114 q 314 190 314 129 l 314 242 l 442 242 l 442 192 q 443 114 442 125 q 520 160 496 117 q 544 260 544 203 z "},"R":{"ha":783,"x_min":108,"x_max":713,"o":"m 713 0 l 583 0 l 482 297 q 450 294 471 294 l 235 294 l 235 0 l 108 0 l 108 972 l 442 972 q 643 882 575 972 q 711 653 711 792 q 663 407 711 482 q 599 339 638 368 l 713 0 m 235 417 l 422 417 q 533 460 501 417 q 572 549 568 508 q 579 653 579 599 q 534 803 579 761 q 403 846 489 846 l 235 846 l 235 417 z "},"S":{"ha":779,"x_min":51,"x_max":711,"o":"m 51 247 l 186 263 q 244 153 193 197 q 383 108 296 108 q 521 150 469 108 q 572 252 572 192 q 545 353 572 313 q 474 418 518 393 q 376 464 429 443 q 271 508 324 485 q 174 558 218 531 q 75 746 75 622 q 156 915 75 843 q 389 986 238 986 q 592 944 504 986 l 586 925 q 569 876 579 907 q 551 825 558 846 q 385 858 469 858 q 256 826 301 858 q 211 742 211 793 q 265 656 211 692 q 392 592 319 621 q 538 528 465 564 q 660 426 610 493 q 711 268 711 360 q 629 64 711 143 q 388 -15 547 -15 q 141 65 228 -15 q 51 247 54 144 z "},"T":{"ha":558,"x_min":0,"x_max":558,"o":"m 339 0 l 213 0 l 213 847 l 0 847 l 0 972 l 558 972 l 558 847 l 339 847 l 339 0 z "},"U":{"ha":786,"x_min":103,"x_max":688,"o":"m 561 294 l 561 974 l 688 974 l 688 258 q 662 131 688 185 q 592 47 636 76 q 500 4 549 18 q 396 -10 451 -10 q 291 4 340 -10 q 198 47 242 18 q 128 131 154 76 q 103 258 103 185 l 103 974 l 229 974 l 229 294 q 395 113 229 113 q 561 294 561 113 z "},"V":{"ha":824,"x_min":108,"x_max":772,"o":"m 518 0 l 364 0 l 108 972 l 250 972 l 440 229 l 628 972 l 772 972 l 518 0 z "},"W":{"ha":1126,"x_min":108,"x_max":1075,"o":"m 875 0 l 721 0 l 593 610 l 467 0 l 310 0 l 108 972 l 247 972 l 390 261 l 539 972 l 647 972 l 796 261 l 932 972 l 1075 972 l 875 0 z "},"X":{"ha":932,"x_min":108,"x_max":875,"o":"m 875 0 l 715 0 l 488 363 l 265 0 l 108 0 l 413 488 l 128 972 l 276 972 l 493 619 l 704 972 l 853 972 l 569 496 l 875 0 z "},"Y":{"ha":767,"x_min":72,"x_max":689,"o":"m 503 -21 l 465 74 q 563 222 563 92 l 563 342 q 390 294 494 294 q 159 374 246 294 q 72 593 72 453 l 72 972 l 199 972 l 199 597 q 249 464 199 508 q 380 419 299 419 q 505 444 461 419 q 563 504 549 468 l 563 972 l 689 972 l 689 217 q 503 -21 689 0 z "},"Z":{"ha":764,"x_min":43,"x_max":719,"o":"m 719 0 l 43 0 l 43 115 l 551 849 l 61 849 l 61 972 l 711 972 l 711 849 l 201 118 l 719 118 l 719 0 z "},"[":{"ha":443,"x_min":108,"x_max":332,"o":"m 332 -158 l 108 -158 l 108 1135 l 332 1135 l 332 1018 l 235 1004 l 235 -28 l 332 -42 l 332 -158 z "},"\\":{"ha":746,"x_min":104,"x_max":690,"o":"m 690 -158 l 556 -158 l 104 1135 l 240 1135 l 690 -158 z "},"]":{"ha":443,"x_min":108,"x_max":332,"o":"m 332 -158 l 108 -158 l 108 -42 l 206 -28 l 206 1004 l 108 1018 l 108 1135 l 332 1135 l 332 -158 z "},"^":{"ha":563,"x_min":108,"x_max":511,"o":"m 511 1053 l 432 999 l 313 1124 l 186 999 l 108 1053 l 314 1249 l 511 1053 z "},"_":{"ha":482,"x_min":97,"x_max":542,"o":"m 542 -94 l 97 -94 l 97 0 l 542 0 l 542 -94 z "},"`":{"ha":308,"x_min":64,"x_max":246,"o":"m 246 819 l 158 819 l 81 921 q 64 956 64 943 q 97 1011 64 997 q 118 1015 107 1015 q 179 974 163 1015 l 246 819 z "},"a":{"ha":636,"x_min":51,"x_max":586,"o":"m 251 557 q 460 501 372 557 q 288 618 460 618 l 297 707 q 464 681 410 707 q 515 650 493 665 q 550 610 538 635 q 571 566 563 585 q 582 515 579 547 q 586 414 586 467 l 586 0 q 356 -14 442 -14 q 51 235 51 -14 l 51 350 q 147 535 51 488 q 251 557 194 557 m 460 110 l 460 375 q 292 429 386 418 q 259 431 282 431 q 207 410 236 431 q 178 336 178 390 l 178 244 q 358 101 178 101 q 460 110 404 101 z "},"b":{"ha":672,"x_min":108,"x_max":621,"o":"m 235 682 q 365 708 296 708 q 503 681 433 708 q 621 481 621 626 l 621 218 q 513 25 621 81 q 329 -17 431 -17 q 108 0 228 -17 l 108 972 l 235 972 l 235 682 m 235 551 l 235 110 q 317 101 274 101 q 401 110 360 101 q 469 147 442 119 q 496 215 496 174 l 496 451 q 464 544 496 511 q 356 582 428 582 q 235 551 283 582 z "},"c":{"ha":532,"x_min":50,"x_max":497,"o":"m 343 110 q 464 128 407 110 l 497 8 q 336 -15 408 -15 q 194 7 264 -15 q 50 250 50 54 l 50 428 q 89 593 50 526 q 308 708 156 708 q 494 664 400 708 l 460 558 q 338 586 388 586 q 256 572 289 586 q 176 436 176 538 l 176 235 q 343 110 176 110 z "},"d":{"ha":672,"x_min":108,"x_max":621,"o":"m 226 681 q 369 708 294 708 q 496 681 444 708 l 496 972 l 621 972 l 621 0 q 400 -17 501 -17 q 217 25 299 -17 q 108 218 108 81 l 108 481 q 226 681 108 626 m 496 551 q 377 583 435 583 q 276 551 319 583 q 233 443 233 519 l 233 211 q 311 114 233 140 q 399 100 353 100 q 496 111 446 100 l 496 551 z "},"e":{"ha":603,"x_min":49,"x_max":549,"o":"m 285 100 q 467 156 363 100 l 514 49 q 290 -17 407 -17 q 49 186 49 -17 l 49 471 q 119 646 49 583 q 304 708 189 708 q 484 647 419 708 q 549 475 549 585 l 549 275 l 176 254 l 176 200 q 209 122 176 144 q 285 100 242 100 m 421 386 l 421 476 q 385 560 421 533 q 295 588 349 588 q 209 555 242 588 q 176 469 176 522 l 176 372 l 421 386 z "},"f":{"ha":436,"x_min":108,"x_max":385,"o":"m 236 0 l 108 0 l 108 763 q 172 936 108 886 q 306 988 238 988 q 385 982 338 988 l 364 868 q 324 872 347 872 q 275 856 301 872 q 236 763 236 833 l 236 696 l 371 696 l 338 576 l 236 576 l 236 0 z "},"g":{"ha":622,"x_min":51,"x_max":575,"o":"m 381 -292 l 350 -193 q 449 -72 449 -181 l 449 38 q 301 -17 414 -17 q 119 50 188 -17 q 51 244 51 117 l 51 451 q 123 641 51 574 q 306 708 194 708 q 451 658 418 708 l 468 696 l 575 696 l 575 -89 q 381 -292 575 -276 m 449 293 l 449 447 q 413 549 449 514 q 313 585 378 585 q 213 547 247 585 q 178 444 178 510 l 178 254 q 210 144 178 185 q 310 104 243 104 q 449 293 449 104 z "},"h":{"ha":685,"x_min":89,"x_max":601,"o":"m 215 679 q 343 708 267 708 q 483 682 419 708 q 601 481 601 628 l 601 0 l 475 0 l 475 444 q 445 547 475 511 q 372 589 415 583 q 339 590 356 590 q 215 558 267 590 l 215 0 l 89 0 l 89 972 l 215 972 l 215 679 z "},"i":{"ha":358,"x_min":108,"x_max":247,"o":"m 247 917 q 247 904 247 917 q 226 869 247 890 q 178 847 206 847 q 130 869 151 847 q 108 917 108 890 q 130 965 108 944 q 178 986 151 986 q 226 965 206 986 q 247 917 247 944 m 239 0 l 113 0 l 113 696 l 239 696 l 239 0 z "},"j":{"ha":307,"x_min":-3,"x_max":232,"o":"m 99 -58 l 99 576 l 31 588 l -1 696 l 225 696 l 225 -104 q 164 -236 222 -182 q 28 -290 106 -290 l -3 -193 q 30 -183 10 -193 q 64 -161 50 -174 q 99 -58 99 -125 m 212 869 q 202 858 212 869 q 164 847 192 847 q 115 869 136 847 q 93 918 93 890 q 115 966 93 946 q 164 986 136 986 q 212 966 192 986 q 232 918 232 946 q 212 869 232 890 z "},"k":{"ha":639,"x_min":90,"x_max":640,"o":"m 640 0 l 483 0 l 254 383 l 217 349 l 217 0 l 90 0 l 90 972 l 217 972 l 217 508 l 449 722 l 542 633 l 351 471 q 640 0 535 167 z "},"l":{"ha":346,"x_min":108,"x_max":235,"o":"m 235 0 l 108 0 l 108 972 l 235 972 l 235 0 z "},"m":{"ha":1026,"x_min":108,"x_max":975,"o":"m 535 640 q 758 707 653 707 q 917 643 858 707 q 975 481 975 579 l 975 0 l 849 0 l 849 442 q 739 589 849 589 q 640 568 697 589 l 607 554 q 619 489 619 526 l 619 0 l 493 0 l 493 439 q 453 553 493 515 q 357 590 414 590 q 235 553 300 590 l 235 0 l 108 0 l 108 696 l 224 696 l 232 674 q 363 707 290 707 q 535 640 472 707 z "},"n":{"ha":694,"x_min":89,"x_max":601,"o":"m 214 674 q 349 707 275 707 q 483 682 422 707 q 601 481 601 628 l 601 0 l 475 0 l 475 451 q 435 553 475 518 q 335 588 394 588 q 214 556 275 588 l 214 0 l 89 0 l 89 696 l 204 696 l 214 674 z "},"o":{"ha":678,"x_min":108,"x_max":626,"o":"m 626 439 l 626 256 q 563 63 626 139 q 369 -14 499 -14 q 174 63 240 -14 q 108 256 108 140 l 108 439 q 176 641 108 571 q 367 711 243 711 q 558 638 490 711 q 626 439 626 565 m 501 242 l 501 439 q 369 586 501 586 q 235 439 235 586 l 235 242 q 272 142 235 176 q 369 108 310 108 q 465 143 429 108 q 501 242 501 178 z "},"p":{"ha":683,"x_min":108,"x_max":632,"o":"m 235 -261 l 108 -292 l 108 696 l 229 696 l 232 665 q 368 707 281 707 q 565 632 497 707 q 632 438 632 557 l 632 244 q 561 51 632 118 q 374 -17 490 -17 q 235 22 289 -17 l 235 -261 m 506 263 l 506 443 q 471 549 506 514 q 374 585 436 585 q 274 550 311 585 q 235 450 236 515 l 235 250 q 374 107 235 107 q 506 263 506 107 z "},"q":{"ha":622,"x_min":51,"x_max":575,"o":"m 575 -292 l 450 -261 l 450 24 q 297 -17 401 -17 q 122 51 193 -17 q 51 244 51 118 l 51 436 q 119 631 51 556 q 315 707 186 707 q 451 661 390 707 l 456 696 l 575 696 l 575 -292 m 450 256 l 450 440 q 354 579 446 554 q 311 585 333 585 q 270 579 289 585 q 228 558 251 574 q 176 428 176 528 l 176 242 q 211 142 176 176 q 310 107 246 107 q 450 256 450 107 z "},"r":{"ha":506,"x_min":85,"x_max":458,"o":"m 210 675 q 353 707 272 707 q 458 692 378 707 l 428 571 q 354 589 390 589 q 286 578 318 589 q 211 481 211 550 l 211 0 l 85 0 l 85 696 l 204 696 l 210 675 z "},"s":{"ha":599,"x_min":50,"x_max":558,"o":"m 50 176 l 175 186 q 214 123 178 149 q 304 97 250 97 q 392 123 358 97 q 426 190 426 149 q 392 260 426 232 q 306 303 357 288 q 204 339 256 319 q 114 400 153 358 q 65 521 65 450 q 122 652 65 592 q 304 713 178 713 q 388 702 349 713 q 443 682 426 692 l 460 672 l 422 558 q 314 592 383 592 q 223 569 244 592 q 201 518 201 547 q 242 458 201 481 q 335 419 283 436 q 437 378 386 401 q 523 306 488 354 q 558 178 558 257 q 495 40 558 100 q 310 -21 432 -21 q 121 36 189 -21 q 50 176 53 93 z "},"t":{"ha":365,"x_min":61,"x_max":333,"o":"m 288 82 l 250 -18 q 61 183 61 -1 l 61 972 l 189 972 l 189 696 l 333 696 l 300 576 l 189 576 l 189 183 q 288 82 189 96 z "},"u":{"ha":621,"x_min":50,"x_max":568,"o":"m 568 0 l 449 0 l 444 31 q 311 -15 389 -15 q 50 239 50 -15 l 50 696 l 176 696 l 176 250 q 311 107 176 107 q 442 254 442 107 l 442 696 l 568 696 l 568 0 z "},"v":{"ha":615,"x_min":19,"x_max":589,"o":"m 371 0 l 239 0 l 19 696 l 157 696 l 306 204 l 453 696 l 589 696 l 371 0 z "},"w":{"ha":983,"x_min":19,"x_max":957,"o":"m 735 0 l 603 0 l 489 438 l 374 0 l 239 0 l 19 696 l 157 696 l 303 204 l 432 696 l 553 696 l 682 204 l 821 696 l 957 696 l 735 0 z "},"x":{"ha":735,"x_min":93,"x_max":683,"o":"m 676 0 l 526 0 l 388 222 l 249 0 l 93 0 l 310 346 l 93 696 l 249 696 l 388 469 l 531 696 l 683 696 l 464 347 l 676 0 z "},"y":{"ha":690,"x_min":51,"x_max":643,"o":"m 400 -292 l 354 -192 q 447 -81 447 -176 l 447 25 q 293 -17 403 -17 q 117 49 183 -17 q 51 244 51 115 l 51 696 l 176 696 l 176 267 q 208 143 176 179 q 308 107 240 107 q 411 142 375 107 q 447 267 447 178 l 447 504 q 485 638 447 581 q 599 708 524 696 l 643 608 q 572 508 572 589 l 572 -85 q 533 -224 572 -174 q 400 -292 494 -275 z "},"z":{"ha":669,"x_min":108,"x_max":618,"o":"m 618 0 l 108 0 l 108 118 l 431 578 l 121 578 l 121 696 l 599 696 l 599 581 l 275 118 l 618 118 l 618 0 z "},"{":{"ha":478,"x_min":108,"x_max":426,"o":"m 426 -54 l 390 -161 q 282 -101 318 -135 q 228 -3 246 -68 q 211 176 211 61 l 211 343 q 189 403 211 369 q 152 451 167 438 q 108 492 138 465 q 175 561 142 518 q 208 642 208 604 l 208 788 q 246 1037 208 961 q 389 1142 283 1113 l 424 1040 q 335 876 335 1017 l 335 633 q 254 493 335 574 q 338 351 338 410 l 338 110 q 426 -54 338 -31 z "},"|":{"ha":346,"x_min":108,"x_max":235,"o":"m 235 -158 l 108 -158 l 108 1135 l 235 1135 l 235 -158 z "},"}":{"ha":478,"x_min":108,"x_max":426,"o":"m 144 -161 l 108 -54 q 197 110 197 -31 l 197 351 q 281 493 197 410 q 200 633 200 574 l 200 876 q 111 1040 200 1017 l 146 1142 q 289 1037 251 1113 q 326 788 326 961 l 326 642 q 360 561 326 604 q 426 492 393 518 q 383 451 397 465 q 346 403 368 438 q 324 343 324 369 l 324 176 q 306 -3 324 61 q 253 -101 289 -68 q 144 -161 217 -135 z "},"~":{"ha":738,"x_min":108,"x_max":686,"o":"m 515 475 q 633 526 590 475 l 686 444 q 528 365 625 365 q 363 404 488 365 q 286 415 324 415 q 158 361 207 415 l 108 443 q 271 522 172 522 q 392 499 308 522 q 515 475 476 475 z "}," ":{"ha":386,"x_min":0,"x_max":0,"o":""},"¡":{"ha":357,"x_min":108,"x_max":246,"o":"m 108 81 l 131 819 l 222 819 l 246 79 q 175 0 246 0 q 108 81 108 0 m 239 924 q 239 911 239 924 q 221 881 239 899 q 177 863 203 863 q 133 881 151 863 q 115 924 115 899 q 133 968 115 950 q 177 986 151 986 q 221 968 203 986 q 239 924 239 950 z "},"¢":{"ha":607,"x_min":108,"x_max":556,"o":"m 439 -158 l 314 -158 l 314 -8 q 264 3 293 -6 q 145 88 182 31 q 108 250 108 146 l 108 428 q 165 619 108 549 q 314 704 221 689 l 314 865 l 439 865 l 439 700 q 553 664 492 690 l 518 558 q 439 581 479 574 l 439 111 q 522 128 478 115 l 556 8 q 439 -11 493 -7 l 439 -158 m 314 121 l 314 572 q 235 436 235 538 l 235 235 q 314 121 235 150 z "},"£":{"ha":660,"x_min":108,"x_max":608,"o":"m 393 317 q 321 118 393 207 l 608 118 l 608 0 l 108 0 l 108 115 q 225 181 183 128 q 267 313 267 233 q 247 421 267 353 l 140 421 l 140 546 l 207 546 q 174 715 174 646 q 249 910 174 836 q 431 985 325 985 q 593 950 538 985 l 554 836 q 435 865 501 865 q 333 817 368 865 q 299 715 299 768 q 336 546 299 663 l 585 546 l 585 421 l 376 421 q 393 317 393 356 z "},"¤":{"ha":682,"x_min":110,"x_max":629,"o":"m 543 186 l 492 239 q 368 206 438 206 q 249 239 299 206 l 200 185 l 117 271 l 164 317 q 128 440 128 367 q 161 571 128 514 l 110 621 l 201 707 l 246 658 q 374 693 297 693 q 492 658 450 693 l 542 708 l 629 621 l 579 576 q 615 450 615 504 q 578 318 615 396 l 625 272 l 543 186 m 459 361 q 477 379 459 361 q 496 449 496 397 q 459 538 496 500 q 370 575 422 575 q 281 538 318 575 q 243 449 243 501 q 281 361 243 397 q 370 325 318 325 q 459 361 422 325 z "},"¥":{"ha":815,"x_min":108,"x_max":764,"o":"m 500 0 l 372 0 l 372 307 l 217 307 l 217 429 l 372 429 l 372 450 l 349 496 l 217 496 l 217 618 l 288 618 l 108 972 l 243 972 l 419 618 l 449 618 l 628 972 l 764 972 l 585 618 l 661 618 l 661 496 l 522 496 l 500 450 l 500 429 l 661 429 l 661 307 l 500 307 l 500 0 z "},"§":{"ha":821,"x_min":108,"x_max":769,"o":"m 323 217 q 295 228 323 217 q 224 272 268 240 q 154 355 179 303 q 129 482 129 407 q 178 618 129 557 q 133 750 133 674 q 214 918 133 847 q 446 989 294 989 q 649 947 561 989 l 642 928 q 607 828 631 897 q 449 868 528 868 q 264 746 264 868 q 314 664 264 697 q 435 608 364 631 q 580 554 507 585 q 708 461 653 524 q 769 275 769 392 q 736 128 769 190 q 768 8 768 79 q 687 -197 768 -119 q 445 -274 606 -274 q 198 -194 285 -274 q 108 -11 111 -114 l 239 -11 q 293 -111 242 -65 q 430 -157 344 -157 q 576 -122 515 -157 q 638 -6 638 -87 q 535 133 638 86 q 433 174 489 154 q 323 217 378 193 m 632 222 q 642 290 642 258 q 595 392 642 347 q 492 458 549 436 q 369 503 436 479 q 278 544 301 528 q 258 462 258 514 q 300 372 258 410 q 394 317 342 333 q 632 222 575 260 z "},"¨":{"ha":308,"x_min":0,"x_max":308,"o":"m 96 1018 q 104 1010 96 1018 q 113 978 113 1001 q 96 938 113 954 q 56 922 79 922 q 17 939 33 922 q 0 978 0 956 q 16 1018 0 1001 q 56 1035 32 1035 q 96 1018 79 1035 m 292 939 q 283 931 292 939 q 251 922 275 922 q 211 939 228 922 q 194 979 194 956 q 211 1019 194 1003 q 251 1036 228 1036 q 292 1019 275 1036 q 308 979 308 1003 q 292 939 308 956 z "},"©":{"ha":1111,"x_min":35,"x_max":1075,"o":"m 1075 344 q 1075 234 1075 344 q 924 -26 1075 124 q 556 -176 772 -176 q 188 -26 340 -176 q 35 344 35 124 q 186 714 35 565 q 556 863 338 863 q 925 714 775 863 q 1075 344 1075 565 m 164 344 q 164 257 164 344 q 277 59 164 171 q 556 -53 390 -53 q 834 60 721 -53 q 947 341 947 172 q 833 624 947 510 q 556 739 719 739 q 278 628 392 739 q 164 344 164 517 m 704 243 l 832 243 q 735 83 810 143 q 563 22 660 22 q 345 113 425 22 q 265 340 265 203 q 344 570 265 476 q 560 664 424 664 q 738 604 661 664 q 831 449 814 544 l 704 449 q 654 509 696 483 q 558 535 613 535 q 431 480 472 535 q 390 343 390 425 q 434 206 390 261 q 560 150 478 150 q 659 176 617 150 q 704 243 701 203 z "},"ª":{"ha":533,"x_min":108,"x_max":482,"o":"m 482 543 q 343 528 386 528 q 258 532 300 528 q 183 556 215 536 q 130 617 151 575 q 108 721 108 658 q 190 867 108 831 q 265 879 219 879 q 378 839 310 879 q 356 894 378 878 q 299 910 333 910 q 240 908 264 910 l 251 985 q 279 985 265 985 q 438 938 394 985 q 482 771 482 892 l 482 543 m 206 713 q 315 621 206 621 q 378 628 344 621 l 378 747 q 260 786 307 786 q 222 769 238 786 q 206 713 206 753 z "},"«":{"ha":710,"x_min":58,"x_max":707,"o":"m 400 189 l 318 111 l 58 371 l 58 372 l 318 632 l 401 549 l 221 371 l 400 189 m 706 189 l 624 111 l 364 371 l 364 372 l 624 632 l 707 549 l 526 371 l 706 189 z "},"­":{"ha":569,"x_min":63,"x_max":507,"o":"m 507 451 l 63 451 l 63 574 l 507 574 l 507 451 z "},"®":{"ha":1111,"x_min":35,"x_max":1075,"o":"m 786 54 l 657 54 l 546 318 l 500 318 l 500 54 l 379 54 l 379 661 l 560 661 q 720 616 667 661 q 774 488 774 571 q 661 332 774 371 l 786 54 m 500 419 l 556 419 q 650 488 650 419 q 627 539 650 519 q 574 558 604 558 l 500 558 l 500 419 m 1075 344 q 1075 234 1075 344 q 924 -26 1075 124 q 556 -176 772 -176 q 188 -26 340 -176 q 35 344 35 124 q 186 714 35 565 q 556 863 338 863 q 925 714 775 863 q 1075 344 1075 565 m 164 344 q 164 257 164 344 q 277 59 164 171 q 556 -53 390 -53 q 834 60 721 -53 q 947 341 947 172 q 833 624 947 510 q 556 739 719 739 q 278 628 392 739 q 164 344 164 517 z "},"¯":{"ha":467,"x_min":108,"x_max":415,"o":"m 415 860 l 108 860 l 108 969 l 415 969 l 415 860 z "},"°":{"ha":560,"x_min":108,"x_max":508,"o":"m 450 643 q 421 614 450 643 q 308 585 392 585 q 167 643 225 585 q 108 785 108 701 q 167 926 108 868 q 308 985 225 985 q 450 926 392 985 q 508 785 508 868 q 450 643 508 701 m 374 721 q 387 735 374 721 q 400 785 400 749 q 374 849 400 821 q 308 876 349 876 q 242 849 268 876 q 217 785 217 821 q 242 721 217 749 q 308 693 268 693 q 374 721 349 693 z "},"±":{"ha":604,"x_min":108,"x_max":553,"o":"m 553 303 l 108 303 l 108 418 l 271 418 l 271 488 l 108 488 l 108 596 l 271 596 l 271 757 l 389 757 l 389 596 l 553 596 l 553 488 l 389 488 l 389 418 l 553 418 l 553 303 z "},"´":{"ha":308,"x_min":64,"x_max":246,"o":"m 151 817 l 64 817 l 131 971 q 193 1013 147 1013 q 213 1008 203 1013 q 246 967 246 994 q 229 918 246 940 l 151 817 z "},"µ":{"ha":664,"x_min":51,"x_max":617,"o":"m 481 18 q 363 -17 442 -17 q 178 29 285 -17 l 178 -292 l 51 -279 l 51 696 l 178 696 l 178 151 q 240 122 189 140 q 339 103 290 103 q 451 250 451 103 l 451 690 l 579 708 l 579 96 q 617 38 583 57 l 514 -8 q 499 -2 510 -10 q 481 18 489 6 z "},"¶":{"ha":976,"x_min":108,"x_max":926,"o":"m 926 -276 l 806 -276 l 806 914 l 711 915 l 711 -275 l 589 -276 l 589 342 l 354 342 q 213 378 261 342 q 169 417 188 397 q 140 471 150 438 q 122 529 129 504 q 113 596 115 554 q 108 728 108 658 q 172 954 108 867 q 367 1042 236 1042 l 926 1042 l 926 -276 z "},"¸":{"ha":361,"x_min":97,"x_max":421,"o":"m 97 -283 l 140 -192 q 236 -226 192 -226 q 332 -169 332 -226 q 304 -129 332 -139 q 278 -126 296 -126 q 228 -140 261 -126 l 171 -167 l 131 -108 l 215 0 l 300 0 l 256 -61 q 315 -51 278 -51 q 386 -83 351 -51 q 421 -178 421 -114 q 363 -277 421 -243 q 240 -311 306 -311 q 97 -283 174 -311 z "},"»":{"ha":718,"x_min":1,"x_max":650,"o":"m 390 111 l 308 189 l 489 371 l 307 549 l 390 632 l 650 372 l 650 371 l 390 111 m 85 111 l 3 189 l 183 371 l 1 549 l 85 632 l 344 372 l 344 371 l 85 111 z "},"¿":{"ha":667,"x_min":108,"x_max":615,"o":"m 486 246 l 615 246 q 551 71 615 142 q 368 0 486 0 q 258 24 311 0 q 121 181 161 68 q 108 242 108 214 q 158 401 108 329 q 220 476 183 438 q 275 536 257 515 q 322 732 319 593 l 322 819 l 446 819 l 446 690 q 426 572 446 626 q 383 488 407 518 q 324 416 360 457 q 264 335 289 375 q 239 250 239 296 q 277 156 239 192 q 367 121 315 121 q 452 154 418 121 q 486 246 486 188 m 447 923 q 447 910 447 923 q 429 879 447 897 q 385 861 411 861 q 342 879 360 861 q 324 923 324 897 q 342 967 324 949 q 385 985 360 985 q 429 967 411 985 q 447 923 447 949 z "},"À":{"ha":732,"x_min":25,"x_max":718,"o":"m 718 0 l 571 0 l 494 285 l 239 285 l 165 0 l 25 0 l 282 972 l 447 972 l 718 0 m 464 417 l 364 764 l 269 417 l 464 417 m 392 1018 l 304 1018 l 226 1119 q 210 1156 210 1142 q 243 1210 210 1196 q 264 1214 253 1214 q 325 1172 308 1214 l 392 1018 z "},"Á":{"ha":732,"x_min":25,"x_max":718,"o":"m 718 0 l 571 0 l 494 285 l 239 285 l 165 0 l 25 0 l 282 972 l 447 972 l 718 0 m 464 417 l 364 764 l 269 417 l 464 417 m 413 1015 l 325 1015 l 392 1169 q 454 1211 408 1211 q 474 1207 464 1211 q 507 1166 507 1193 q 490 1117 507 1139 l 413 1015 z "},"Â":{"ha":732,"x_min":25,"x_max":718,"o":"m 718 0 l 571 0 l 494 285 l 239 285 l 165 0 l 25 0 l 282 972 l 447 972 l 718 0 m 464 417 l 364 764 l 269 417 l 464 417 m 568 1071 l 489 1017 l 369 1142 l 243 1017 l 165 1071 l 371 1267 l 568 1071 z "},"Ã":{"ha":732,"x_min":25,"x_max":718,"o":"m 718 0 l 571 0 l 494 285 l 239 285 l 165 0 l 25 0 l 282 972 l 447 972 l 718 0 m 464 417 l 364 764 l 269 417 l 464 417 m 465 1114 q 563 1163 519 1114 l 613 1085 q 479 1011 550 1011 q 422 1024 454 1011 q 356 1053 390 1038 q 286 1069 321 1069 q 181 1019 228 1069 l 133 1097 q 272 1171 199 1171 q 328 1158 297 1171 q 395 1130 360 1146 q 465 1114 431 1114 z "},"Ä":{"ha":732,"x_min":25,"x_max":718,"o":"m 718 0 l 571 0 l 494 285 l 239 285 l 165 0 l 25 0 l 282 972 l 447 972 l 718 0 m 464 417 l 364 764 l 269 417 l 464 417 m 306 1111 q 314 1103 306 1111 q 322 1071 322 1094 q 306 1031 322 1047 q 265 1015 289 1015 q 226 1031 242 1015 q 210 1071 210 1047 q 226 1111 210 1094 q 265 1128 242 1128 q 306 1111 289 1128 m 501 1032 q 493 1024 501 1032 q 461 1015 485 1015 q 421 1032 438 1015 q 404 1072 404 1049 q 422 1112 404 1094 q 462 1129 439 1129 q 501 1113 485 1129 q 518 1072 518 1096 q 501 1032 518 1049 z "},"Å":{"ha":732,"x_min":25,"x_max":718,"o":"m 718 0 l 571 0 l 494 285 l 239 285 l 165 0 l 25 0 l 275 947 q 214 1063 214 993 q 258 1176 214 1132 q 365 1221 303 1221 q 472 1176 428 1221 q 517 1062 517 1132 q 454 946 517 992 l 718 0 m 464 417 l 364 764 l 269 417 l 464 417 m 408 1027 q 416 1036 408 1027 q 425 1069 425 1044 q 408 1112 425 1094 q 365 1129 390 1129 q 323 1112 340 1129 q 306 1069 306 1094 q 323 1027 306 1044 q 365 1010 340 1010 q 408 1027 390 1010 z "},"Æ":{"ha":1133,"x_min":108,"x_max":1082,"o":"m 1079 0 l 617 0 l 618 294 l 407 294 l 254 0 l 108 0 l 617 972 l 1082 972 l 1082 847 l 744 847 l 744 574 l 975 574 l 935 451 l 744 451 l 744 115 l 1079 115 l 1079 0 m 618 417 l 618 704 l 469 417 l 618 417 z "},"Ç":{"ha":600,"x_min":92,"x_max":593,"o":"m 572 149 l 593 32 q 369 -14 479 -12 l 336 -61 q 395 -51 358 -51 q 467 -83 432 -51 q 501 -178 501 -114 q 444 -277 501 -243 q 320 -311 386 -311 q 178 -283 254 -311 l 221 -192 q 317 -226 272 -226 q 413 -169 413 -226 q 385 -129 413 -139 q 359 -126 376 -126 q 308 -140 342 -126 l 251 -167 l 211 -108 l 289 -8 q 145 72 199 8 q 92 254 92 136 l 92 700 q 122 860 92 806 q 213 951 151 914 q 361 986 275 986 q 558 940 468 986 l 522 832 q 384 857 456 857 q 265 822 313 857 q 218 713 218 786 l 218 257 q 249 160 218 194 q 374 115 288 115 q 572 149 460 115 z "},"È":{"ha":646,"x_min":108,"x_max":572,"o":"m 569 0 l 108 0 l 108 972 l 572 972 l 572 847 l 235 847 l 235 574 l 451 574 l 414 451 l 235 451 l 235 114 l 569 114 l 569 0 m 383 1017 l 296 1017 l 218 1118 q 201 1153 201 1140 q 235 1208 201 1194 q 256 1213 244 1213 q 317 1171 300 1213 l 383 1017 z "},"É":{"ha":646,"x_min":108,"x_max":572,"o":"m 569 0 l 108 0 l 108 972 l 572 972 l 572 847 l 235 847 l 235 574 l 451 574 l 414 451 l 235 451 l 235 114 l 569 114 l 569 0 m 417 1014 l 329 1014 l 396 1168 q 458 1210 413 1210 q 478 1206 468 1210 q 511 1165 511 1192 q 494 1115 511 1138 l 417 1014 z "},"Ê":{"ha":646,"x_min":108,"x_max":572,"o":"m 569 0 l 108 0 l 108 972 l 572 972 l 572 847 l 235 847 l 235 574 l 451 574 l 414 451 l 235 451 l 235 114 l 569 114 l 569 0 m 544 1071 l 465 1017 l 346 1142 l 219 1017 l 142 1071 l 347 1267 l 544 1071 z "},"Ë":{"ha":646,"x_min":108,"x_max":572,"o":"m 569 0 l 108 0 l 108 972 l 572 972 l 572 847 l 235 847 l 235 574 l 451 574 l 414 451 l 235 451 l 235 114 l 569 114 l 569 0 m 278 1111 q 286 1103 278 1111 q 294 1071 294 1094 q 278 1031 294 1047 q 238 1015 261 1015 q 198 1031 214 1015 q 182 1071 182 1047 q 198 1111 182 1094 q 238 1128 214 1128 q 278 1111 261 1128 m 474 1032 q 465 1024 474 1032 q 433 1015 457 1015 q 393 1032 410 1015 q 376 1072 376 1049 q 394 1112 376 1094 q 434 1129 411 1129 q 474 1113 457 1129 q 490 1072 490 1096 q 474 1032 490 1049 z "},"Ì":{"ha":439,"x_min":113,"x_max":328,"o":"m 328 0 l 200 0 l 200 850 l 113 853 l 113 972 l 328 972 l 328 0 m 319 1017 l 232 1017 l 154 1118 q 138 1153 138 1140 q 171 1208 138 1194 q 192 1213 181 1213 q 253 1171 236 1213 l 319 1017 z "},"Í":{"ha":515,"x_min":108,"x_max":404,"o":"m 324 0 l 196 0 l 196 850 l 108 853 l 108 972 l 324 972 l 324 0 m 310 1014 l 222 1014 l 289 1168 q 351 1210 306 1210 q 371 1206 361 1210 q 404 1165 404 1192 q 388 1115 404 1138 l 310 1014 z "},"Î":{"ha":622,"x_min":108,"x_max":511,"o":"m 381 0 l 253 0 l 253 850 l 165 853 l 165 972 l 381 972 l 381 0 m 511 1071 l 432 1017 l 313 1142 l 186 1017 l 108 1071 l 314 1267 l 511 1071 z "},"Ï":{"ha":528,"x_min":108,"x_max":417,"o":"m 347 0 l 219 0 l 219 850 l 132 853 l 132 972 l 347 972 l 347 0 m 204 1108 q 213 1100 204 1108 q 221 1068 221 1092 q 204 1028 221 1044 q 165 1013 188 1013 q 125 1028 142 1013 q 108 1068 108 1044 q 124 1108 108 1092 q 164 1125 140 1125 q 204 1108 188 1125 m 400 1029 q 392 1021 400 1029 q 360 1013 383 1013 q 319 1029 336 1013 q 303 1069 303 1046 q 319 1109 303 1092 q 360 1126 336 1126 q 400 1110 383 1126 q 417 1069 417 1093 q 400 1029 417 1046 z "},"Ð":{"ha":892,"x_min":108,"x_max":840,"o":"m 465 0 l 176 0 l 176 590 l 108 590 l 108 713 l 176 713 l 176 974 l 438 974 q 659 903 578 974 q 756 713 740 832 l 840 713 l 840 590 l 760 590 l 760 278 q 465 0 760 0 m 633 264 l 633 590 l 303 590 l 303 115 l 443 115 q 591 153 549 115 q 633 264 633 190 m 451 849 l 303 849 l 303 713 l 631 713 q 451 849 608 849 z "},"Ñ":{"ha":903,"x_min":108,"x_max":792,"o":"m 792 0 l 664 0 l 235 717 l 235 0 l 108 0 l 108 972 l 235 972 l 664 258 l 664 972 l 792 972 l 792 0 m 551 1113 q 649 1161 606 1113 l 699 1083 q 565 1010 636 1010 q 508 1023 540 1010 q 442 1052 476 1036 q 372 1068 407 1068 q 267 1018 314 1068 l 219 1096 q 358 1169 285 1169 q 415 1157 383 1169 q 481 1128 446 1144 q 551 1113 517 1113 z "},"Ò":{"ha":763,"x_min":88,"x_max":671,"o":"m 671 703 l 671 257 q 585 51 671 117 q 381 -15 500 -15 q 174 51 261 -15 q 88 257 88 117 l 88 704 q 166 921 88 847 q 382 994 244 994 q 595 917 519 994 q 671 703 671 839 m 544 276 l 544 675 q 506 814 544 767 q 379 861 468 861 q 252 815 290 861 q 214 676 214 768 l 214 275 q 258 154 214 197 q 378 111 301 111 q 499 155 454 111 q 544 276 544 199 m 414 1017 l 326 1017 l 249 1118 q 232 1153 232 1140 q 265 1208 232 1194 q 286 1213 275 1213 q 347 1171 331 1213 l 414 1017 z "},"Ó":{"ha":763,"x_min":88,"x_max":671,"o":"m 671 703 l 671 257 q 585 51 671 117 q 381 -15 500 -15 q 174 51 261 -15 q 88 257 88 117 l 88 704 q 166 921 88 847 q 382 994 244 994 q 595 917 519 994 q 671 703 671 839 m 544 276 l 544 675 q 506 814 544 767 q 379 861 468 861 q 252 815 290 861 q 214 676 214 768 l 214 275 q 258 154 214 197 q 378 111 301 111 q 499 155 454 111 q 544 276 544 199 m 444 1014 l 357 1014 l 424 1168 q 486 1210 440 1210 q 506 1206 496 1210 q 539 1165 539 1192 q 522 1115 539 1138 l 444 1014 z "},"Ô":{"ha":763,"x_min":88,"x_max":671,"o":"m 671 703 l 671 257 q 585 51 671 117 q 381 -15 500 -15 q 174 51 261 -15 q 88 257 88 117 l 88 704 q 166 921 88 847 q 382 994 244 994 q 595 917 519 994 q 671 703 671 839 m 544 276 l 544 675 q 506 814 544 767 q 379 861 468 861 q 252 815 290 861 q 214 676 214 768 l 214 275 q 258 154 214 197 q 378 111 301 111 q 499 155 454 111 q 544 276 544 199 m 585 1071 l 506 1017 l 386 1142 l 260 1017 l 182 1071 l 388 1267 l 585 1071 z "},"Õ":{"ha":763,"x_min":88,"x_max":671,"o":"m 671 703 l 671 257 q 585 51 671 117 q 381 -15 500 -15 q 174 51 261 -15 q 88 257 88 117 l 88 704 q 166 921 88 847 q 382 994 244 994 q 595 917 519 994 q 671 703 671 839 m 544 276 l 544 675 q 506 814 544 767 q 379 861 468 861 q 252 815 290 861 q 214 676 214 768 l 214 275 q 258 154 214 197 q 378 111 301 111 q 499 155 454 111 q 544 276 544 199 m 486 1115 q 583 1164 540 1115 l 633 1086 q 500 1013 571 1013 q 443 1026 475 1013 q 376 1055 411 1039 q 307 1071 342 1071 q 201 1021 249 1071 l 154 1099 q 293 1172 219 1172 q 349 1160 318 1172 q 416 1131 381 1147 q 486 1115 451 1115 z "},"Ö":{"ha":763,"x_min":88,"x_max":671,"o":"m 671 703 l 671 257 q 585 51 671 117 q 381 -15 500 -15 q 174 51 261 -15 q 88 257 88 117 l 88 704 q 166 921 88 847 q 382 994 244 994 q 595 917 519 994 q 671 703 671 839 m 544 276 l 544 675 q 506 814 544 767 q 379 861 468 861 q 252 815 290 861 q 214 676 214 768 l 214 275 q 258 154 214 197 q 378 111 301 111 q 499 155 454 111 q 544 276 544 199 m 318 1111 q 326 1103 318 1111 q 335 1071 335 1094 q 318 1031 335 1047 q 278 1015 301 1015 q 239 1031 256 1015 q 222 1071 222 1047 q 238 1111 222 1094 q 278 1128 254 1128 q 318 1111 301 1128 m 514 1032 q 506 1024 514 1032 q 474 1015 497 1015 q 433 1032 450 1015 q 417 1072 417 1049 q 433 1112 417 1094 q 474 1129 450 1129 q 514 1113 497 1129 q 531 1072 531 1096 q 514 1032 531 1049 z "},"×":{"ha":582,"x_min":108,"x_max":531,"o":"m 529 296 l 446 224 l 319 375 l 193 222 l 111 296 l 247 463 l 108 629 l 192 700 l 319 547 l 446 701 l 531 632 l 390 463 l 529 296 z "},"Ø":{"ha":764,"x_min":115,"x_max":706,"o":"m 254 -158 l 119 -158 l 194 57 q 115 257 115 126 l 115 704 q 194 921 115 847 q 410 994 272 994 q 515 979 465 994 l 569 1135 l 706 1135 l 628 913 q 699 703 699 833 l 699 257 q 613 51 699 117 q 408 -15 528 -15 q 308 -3 356 -15 l 254 -158 m 250 215 l 471 853 q 407 861 443 861 q 280 815 318 861 q 242 676 242 768 l 242 275 q 250 215 242 242 m 572 276 l 572 675 q 567 738 572 699 l 350 118 q 407 111 372 111 q 527 155 482 111 q 572 276 572 199 z "},"Ù":{"ha":786,"x_min":103,"x_max":688,"o":"m 561 294 l 561 974 l 688 974 l 688 258 q 662 131 688 185 q 592 47 636 76 q 500 4 549 18 q 396 -10 451 -10 q 291 4 340 -10 q 198 47 242 18 q 128 131 154 76 q 103 258 103 185 l 103 974 l 229 974 l 229 294 q 395 113 229 113 q 561 294 561 113 m 439 1017 l 351 1017 l 274 1118 q 257 1153 257 1140 q 290 1208 257 1194 q 311 1213 300 1213 q 372 1171 356 1213 l 439 1017 z "},"Ú":{"ha":786,"x_min":103,"x_max":688,"o":"m 561 294 l 561 974 l 688 974 l 688 258 q 662 131 688 185 q 592 47 636 76 q 500 4 549 18 q 396 -10 451 -10 q 291 4 340 -10 q 198 47 242 18 q 128 131 154 76 q 103 258 103 185 l 103 974 l 229 974 l 229 294 q 395 113 229 113 q 561 294 561 113 m 439 1015 l 351 1015 l 418 1169 q 481 1211 435 1211 q 500 1207 490 1211 q 533 1166 533 1193 q 517 1117 533 1139 l 439 1015 z "},"Û":{"ha":786,"x_min":103,"x_max":688,"o":"m 561 294 l 561 974 l 688 974 l 688 258 q 662 131 688 185 q 592 47 636 76 q 500 4 549 18 q 396 -10 451 -10 q 291 4 340 -10 q 198 47 242 18 q 128 131 154 76 q 103 258 103 185 l 103 974 l 229 974 l 229 294 q 395 113 229 113 q 561 294 561 113 m 597 1071 l 518 1017 l 399 1142 l 272 1017 l 194 1071 l 400 1267 l 597 1071 z "},"Ü":{"ha":786,"x_min":103,"x_max":688,"o":"m 561 294 l 561 974 l 688 974 l 688 258 q 662 131 688 185 q 592 47 636 76 q 500 4 549 18 q 396 -10 451 -10 q 291 4 340 -10 q 198 47 242 18 q 128 131 154 76 q 103 258 103 185 l 103 974 l 229 974 l 229 294 q 395 113 229 113 q 561 294 561 113 m 335 1111 q 343 1103 335 1111 q 351 1071 351 1094 q 335 1031 351 1047 q 295 1015 318 1015 q 256 1031 272 1015 q 239 1071 239 1047 q 255 1111 239 1094 q 294 1128 271 1128 q 335 1111 318 1128 m 531 1032 q 522 1024 531 1032 q 490 1015 514 1015 q 450 1032 467 1015 q 433 1072 433 1049 q 450 1112 433 1094 q 490 1129 467 1129 q 531 1113 514 1129 q 547 1072 547 1096 q 531 1032 547 1049 z "},"Ý":{"ha":767,"x_min":72,"x_max":689,"o":"m 503 -21 l 465 74 q 563 222 563 92 l 563 342 q 390 294 494 294 q 159 374 246 294 q 72 593 72 453 l 72 972 l 199 972 l 199 597 q 249 464 199 508 q 380 419 299 419 q 505 444 461 419 q 563 504 549 468 l 563 972 l 689 972 l 689 217 q 503 -21 689 0 m 426 1015 l 339 1015 l 406 1169 q 468 1211 422 1211 q 488 1207 478 1211 q 521 1166 521 1193 q 504 1117 521 1139 l 426 1015 z "},"Þ":{"ha":683,"x_min":108,"x_max":632,"o":"m 233 0 l 108 0 l 108 972 l 233 972 l 233 665 q 368 707 289 707 q 565 632 497 707 q 632 432 632 557 q 560 234 632 307 q 374 161 489 161 q 233 215 286 161 l 233 0 m 234 436 q 234 398 234 436 q 274 320 233 360 q 371 281 314 281 q 467 319 428 281 q 507 431 507 357 q 471 546 507 504 q 377 588 435 588 q 277 550 319 588 q 234 436 235 513 z "},"ß":{"ha":757,"x_min":108,"x_max":706,"o":"m 329 165 q 468 106 390 106 q 554 147 529 106 q 574 210 574 178 q 507 338 574 271 q 439 402 486 360 q 368 469 392 444 q 297 611 297 547 q 325 704 297 654 q 392 742 372 704 q 401 778 401 760 q 392 815 401 797 q 329 853 374 853 q 235 719 235 853 l 235 0 l 108 0 l 108 746 q 165 912 108 850 q 322 974 222 974 q 475 915 422 974 q 528 782 528 857 q 475 661 528 707 l 443 663 q 436 588 419 622 q 484 524 456 550 q 533 481 513 497 q 625 394 590 431 q 706 199 706 308 q 681 99 706 149 q 567 0 646 26 q 478 -18 518 -18 q 271 51 353 -18 l 329 165 z "},"à":{"ha":694,"x_min":108,"x_max":643,"o":"m 308 557 q 517 501 429 557 q 344 618 517 618 l 354 707 q 521 681 467 707 q 572 650 550 665 q 607 610 594 635 q 628 566 619 585 q 639 515 636 547 q 643 414 643 467 l 643 0 q 413 -14 499 -14 q 108 235 108 -14 l 108 350 q 204 535 108 488 q 308 557 251 557 m 517 110 l 517 375 q 347 429 443 418 q 316 431 339 431 q 264 410 293 431 q 235 336 235 390 l 235 244 q 415 101 235 101 q 517 110 461 101 m 414 750 l 326 750 l 249 851 q 232 886 232 874 q 265 942 232 928 q 286 946 275 946 q 347 904 331 946 l 414 750 z "},"á":{"ha":694,"x_min":108,"x_max":643,"o":"m 308 557 q 517 501 429 557 q 344 618 517 618 l 354 707 q 521 681 467 707 q 572 650 550 665 q 607 610 594 635 q 628 566 619 585 q 639 515 636 547 q 643 414 643 467 l 643 0 q 413 -14 499 -14 q 108 235 108 -14 l 108 350 q 204 535 108 488 q 308 557 251 557 m 517 110 l 517 375 q 347 429 443 418 q 316 431 339 431 q 264 410 293 431 q 235 336 235 390 l 235 244 q 415 101 235 101 q 517 110 461 101 m 446 747 l 358 747 l 425 901 q 488 943 442 943 q 507 939 497 943 q 540 898 540 925 q 524 849 540 871 l 446 747 z "},"â":{"ha":694,"x_min":108,"x_max":643,"o":"m 308 557 q 517 501 429 557 q 344 618 517 618 l 354 707 q 521 681 467 707 q 572 650 550 665 q 607 610 594 635 q 628 566 619 585 q 639 515 636 547 q 643 414 643 467 l 643 0 q 413 -14 499 -14 q 108 235 108 -14 l 108 350 q 204 535 108 488 q 308 557 251 557 m 517 110 l 517 375 q 347 429 443 418 q 316 431 339 431 q 264 410 293 431 q 235 336 235 390 l 235 244 q 415 101 235 101 q 517 110 461 101 m 590 803 l 511 749 l 392 874 l 265 749 l 188 803 l 393 999 l 590 803 z "},"ã":{"ha":694,"x_min":108,"x_max":643,"o":"m 308 557 q 517 501 429 557 q 344 618 517 618 l 354 707 q 521 681 467 707 q 572 650 550 665 q 607 610 594 635 q 628 566 619 585 q 639 515 636 547 q 643 414 643 467 l 643 0 q 413 -14 499 -14 q 108 235 108 -14 l 108 350 q 204 535 108 488 q 308 557 251 557 m 517 110 l 517 375 q 347 429 443 418 q 316 431 339 431 q 264 410 293 431 q 235 336 235 390 l 235 244 q 415 101 235 101 q 517 110 461 101 m 475 851 q 572 900 529 851 l 622 822 q 489 749 560 749 q 432 762 464 749 q 365 791 400 775 q 296 807 331 807 q 190 757 238 807 l 143 835 q 282 908 208 908 q 338 896 307 908 q 405 867 369 883 q 475 851 440 851 z "},"ä":{"ha":694,"x_min":108,"x_max":643,"o":"m 308 557 q 517 501 429 557 q 344 618 517 618 l 354 707 q 521 681 467 707 q 572 650 550 665 q 607 610 594 635 q 628 566 619 585 q 639 515 636 547 q 643 414 643 467 l 643 0 q 413 -14 499 -14 q 108 235 108 -14 l 108 350 q 204 535 108 488 q 308 557 251 557 m 517 110 l 517 375 q 347 429 443 418 q 316 431 339 431 q 264 410 293 431 q 235 336 235 390 l 235 244 q 415 101 235 101 q 517 110 461 101 m 332 844 q 340 836 332 844 q 349 804 349 828 q 332 765 349 781 q 292 749 315 749 q 253 765 269 749 q 236 804 236 781 q 252 844 236 828 q 292 861 268 861 q 332 844 315 861 m 528 765 q 519 757 528 765 q 488 749 511 749 q 447 765 464 749 q 431 805 431 782 q 447 845 431 828 q 488 863 464 863 q 528 846 511 863 q 544 806 544 829 q 528 765 544 782 z "},"å":{"ha":694,"x_min":108,"x_max":643,"o":"m 308 557 q 517 501 429 557 q 344 618 517 618 l 344 619 q 249 669 288 626 q 211 772 211 711 q 256 876 211 832 q 363 921 300 921 q 469 876 425 921 q 514 779 514 832 q 492 690 514 726 q 565 653 535 678 q 610 606 596 629 q 633 543 625 582 q 643 414 643 490 l 643 0 q 413 -14 499 -14 q 108 235 108 -14 l 108 350 q 204 535 108 488 q 308 557 251 557 m 517 110 l 517 375 q 347 429 443 418 q 316 431 339 431 q 264 410 293 431 q 235 336 235 390 l 235 244 q 415 101 235 101 q 517 110 461 101 m 405 727 q 414 736 405 727 q 422 769 422 744 q 405 812 422 794 q 363 829 388 829 q 320 812 338 829 q 303 769 303 794 q 320 727 303 744 q 363 710 338 710 q 405 727 388 710 z "},"æ":{"ha":1068,"x_min":108,"x_max":1017,"o":"m 753 100 q 935 156 831 100 l 982 49 q 736 -17 874 -17 q 636 0 681 -17 q 414 -12 499 -12 q 108 235 108 -12 l 108 350 q 204 535 108 488 q 308 557 251 557 q 517 501 429 557 q 344 618 517 618 l 354 707 q 582 642 513 707 q 769 708 651 708 q 952 647 888 708 q 1017 475 1017 585 l 1017 275 l 644 254 l 644 200 q 677 122 644 144 q 753 100 710 100 m 517 110 l 517 375 q 347 429 443 418 q 316 431 339 431 q 264 410 293 431 q 235 336 235 390 l 235 244 q 415 101 235 101 q 517 110 461 101 m 889 386 l 889 476 q 853 560 889 533 q 764 588 817 588 q 678 555 711 588 q 644 469 644 522 l 644 372 l 889 386 z "},"ç":{"ha":532,"x_min":50,"x_max":497,"o":"m 343 110 q 464 128 407 110 l 497 8 q 335 -14 407 -14 q 313 -14 324 -14 l 279 -61 q 338 -51 301 -51 q 410 -83 375 -51 q 444 -178 444 -114 q 387 -277 444 -243 q 263 -311 329 -311 q 121 -283 197 -311 l 164 -192 q 261 -226 215 -226 q 356 -169 356 -226 q 328 -129 356 -139 q 302 -126 319 -126 q 251 -140 285 -126 l 194 -167 l 154 -108 l 235 -4 q 206 3 225 -3 q 87 88 124 31 q 50 250 50 146 l 50 428 q 89 593 50 526 q 308 708 156 708 q 494 664 400 708 l 460 558 q 338 586 388 586 q 256 572 289 586 q 176 436 176 538 l 176 235 q 343 110 176 110 z "},"è":{"ha":660,"x_min":108,"x_max":608,"o":"m 344 100 q 526 156 422 100 l 574 49 q 350 -17 467 -17 q 108 186 108 -17 l 108 471 q 178 646 108 583 q 364 708 249 708 q 544 647 479 708 q 608 475 608 585 l 608 275 l 236 254 l 236 200 q 269 122 236 144 q 344 100 301 100 m 481 386 l 481 476 q 444 560 481 533 q 356 588 408 588 q 269 555 303 588 q 236 469 236 522 l 236 372 l 481 386 m 403 750 l 315 750 l 238 851 q 221 886 221 874 q 254 942 221 928 q 275 946 264 946 q 336 904 319 946 l 403 750 z "},"é":{"ha":660,"x_min":108,"x_max":608,"o":"m 344 100 q 526 156 422 100 l 574 49 q 350 -17 467 -17 q 108 186 108 -17 l 108 471 q 178 646 108 583 q 364 708 249 708 q 544 647 479 708 q 608 475 608 585 l 608 275 l 236 254 l 236 200 q 269 122 236 144 q 344 100 301 100 m 481 386 l 481 476 q 444 560 481 533 q 356 588 408 588 q 269 555 303 588 q 236 469 236 522 l 236 372 l 481 386 m 421 747 l 333 747 l 400 901 q 463 943 417 943 q 482 939 472 943 q 515 898 515 925 q 499 849 515 871 l 421 747 z "},"ê":{"ha":660,"x_min":108,"x_max":608,"o":"m 344 100 q 526 156 422 100 l 574 49 q 350 -17 467 -17 q 108 186 108 -17 l 108 471 q 178 646 108 583 q 364 708 249 708 q 544 647 479 708 q 608 475 608 585 l 608 275 l 236 254 l 236 200 q 269 122 236 144 q 344 100 301 100 m 481 386 l 481 476 q 444 560 481 533 q 356 588 408 588 q 269 555 303 588 q 236 469 236 522 l 236 372 l 481 386 m 581 803 l 501 749 l 382 874 l 256 749 l 178 803 l 383 999 l 581 803 z "},"ë":{"ha":746,"x_min":49,"x_max":549,"o":"m 285 100 q 467 156 363 100 l 514 49 q 290 -17 407 -17 q 49 186 49 -17 l 49 471 q 119 646 49 583 q 304 708 189 708 q 484 647 419 708 q 549 475 549 585 l 549 275 l 176 254 l 176 200 q 209 122 176 144 q 285 100 242 100 m 421 386 l 421 476 q 385 560 421 533 q 295 588 349 588 q 209 555 242 588 q 176 469 176 522 l 176 372 l 421 386 m 242 844 q 250 836 242 844 q 258 804 258 828 q 242 765 258 781 q 201 749 225 749 q 162 765 178 749 q 146 804 146 781 q 162 844 146 828 q 201 861 178 861 q 242 844 225 861 m 438 765 q 429 757 438 765 q 397 749 421 749 q 357 765 374 749 q 340 805 340 782 q 358 845 340 828 q 398 863 375 863 q 438 846 421 863 q 454 806 454 829 q 438 765 454 782 z "},"ì":{"ha":367,"x_min":108,"x_max":315,"o":"m 290 750 l 203 750 l 125 851 q 108 886 108 874 q 142 942 108 928 q 163 946 151 946 q 224 904 207 946 l 290 750 m 315 0 l 189 0 l 189 696 l 315 696 l 315 0 z "},"í":{"ha":367,"x_min":108,"x_max":315,"o":"m 221 747 l 133 747 l 200 901 q 263 943 217 943 q 282 939 272 943 q 315 898 315 925 q 299 849 315 871 l 221 747 m 235 0 l 108 0 l 108 696 l 235 696 l 235 0 z "},"î":{"ha":317,"x_min":-50,"x_max":353,"o":"m 353 803 l 274 749 l 154 874 l 28 749 l -50 803 l 156 999 l 353 803 m 217 0 l 90 0 l 90 696 l 217 696 l 217 0 z "},"ï":{"ha":468,"x_min":108,"x_max":417,"o":"m 204 844 q 213 836 204 844 q 221 804 221 828 q 204 765 221 781 q 165 749 188 749 q 125 765 142 749 q 108 804 108 781 q 124 844 108 828 q 164 861 140 861 q 204 844 188 861 m 400 765 q 392 757 400 765 q 360 749 383 749 q 319 765 336 749 q 303 805 303 782 q 319 845 303 828 q 360 863 336 863 q 400 846 383 863 q 417 806 417 829 q 400 765 417 782 m 324 0 l 197 0 l 197 696 l 324 696 l 324 0 z "},"ñ":{"ha":672,"x_min":108,"x_max":621,"o":"m 233 674 q 368 707 294 707 q 503 682 442 707 q 621 481 621 628 l 621 0 l 494 0 l 494 451 q 454 553 494 518 q 354 588 414 588 q 233 556 294 588 l 233 0 l 108 0 l 108 696 l 224 696 l 233 674 m 460 853 q 557 901 514 853 l 607 824 q 474 750 544 750 q 417 763 449 750 q 350 792 385 776 q 281 808 315 808 q 175 758 222 808 l 128 836 q 267 910 193 910 q 323 897 292 910 q 390 869 354 885 q 460 853 425 853 z "},"ò":{"ha":678,"x_min":108,"x_max":626,"o":"m 626 439 l 626 256 q 563 63 626 139 q 369 -14 499 -14 q 174 63 240 -14 q 108 256 108 140 l 108 439 q 176 641 108 571 q 367 711 243 711 q 558 638 490 711 q 626 439 626 565 m 501 242 l 501 439 q 369 586 501 586 q 235 439 235 586 l 235 242 q 272 142 235 176 q 369 108 310 108 q 465 143 429 108 q 501 242 501 178 m 401 750 l 314 750 l 236 851 q 219 886 219 874 q 253 942 219 928 q 274 946 263 946 q 335 904 318 946 l 401 750 z "},"ó":{"ha":678,"x_min":108,"x_max":626,"o":"m 626 439 l 626 256 q 563 63 626 139 q 369 -14 499 -14 q 174 63 240 -14 q 108 256 108 140 l 108 439 q 176 641 108 571 q 367 711 243 711 q 558 638 490 711 q 626 439 626 565 m 501 242 l 501 439 q 369 586 501 586 q 235 439 235 586 l 235 242 q 272 142 235 176 q 369 108 310 108 q 465 143 429 108 q 501 242 501 178 m 419 747 l 332 747 l 399 901 q 461 943 415 943 q 481 939 471 943 q 514 898 514 925 q 497 849 514 871 l 419 747 z "},"ô":{"ha":678,"x_min":108,"x_max":626,"o":"m 626 439 l 626 256 q 563 63 626 139 q 369 -14 499 -14 q 174 63 240 -14 q 108 256 108 140 l 108 439 q 176 641 108 571 q 367 711 243 711 q 558 638 490 711 q 626 439 626 565 m 501 242 l 501 439 q 369 586 501 586 q 235 439 235 586 l 235 242 q 272 142 235 176 q 369 108 310 108 q 465 143 429 108 q 501 242 501 178 m 575 803 l 496 749 l 376 874 l 250 749 l 172 803 l 378 999 l 575 803 z "},"õ":{"ha":679,"x_min":108,"x_max":626,"o":"m 626 439 l 626 256 q 563 63 626 139 q 369 -14 499 -14 q 174 63 240 -14 q 108 256 108 140 l 108 439 q 176 641 108 571 q 367 711 243 711 q 558 638 490 711 q 626 439 626 565 m 501 242 l 501 439 q 369 586 501 586 q 235 439 235 586 l 235 242 q 272 142 235 176 q 369 108 310 108 q 465 143 429 108 q 501 242 501 178 m 472 829 q 569 878 526 829 l 619 800 q 486 726 557 726 q 429 740 461 726 q 363 769 397 753 q 293 785 328 785 q 188 735 235 785 l 140 813 q 279 886 206 886 q 335 874 304 886 q 402 845 367 861 q 472 829 438 829 z "},"ö":{"ha":678,"x_min":108,"x_max":626,"o":"m 626 439 l 626 256 q 563 63 626 139 q 369 -14 499 -14 q 174 63 240 -14 q 108 256 108 140 l 108 439 q 176 641 108 571 q 367 711 243 711 q 558 638 490 711 q 626 439 626 565 m 501 242 l 501 439 q 369 586 501 586 q 235 439 235 586 l 235 242 q 272 142 235 176 q 369 108 310 108 q 465 143 429 108 q 501 242 501 178 m 317 844 q 325 836 317 844 q 333 804 333 828 q 317 765 333 781 q 276 749 300 749 q 237 765 253 749 q 221 804 221 781 q 237 844 221 828 q 276 861 253 861 q 317 844 300 861 m 513 765 q 504 757 513 765 q 472 749 496 749 q 432 765 449 749 q 415 805 415 782 q 433 845 415 828 q 473 863 450 863 q 513 846 496 863 q 529 806 529 829 q 513 765 529 782 z "},"÷":{"ha":604,"x_min":108,"x_max":553,"o":"m 553 481 l 108 481 l 108 588 l 553 588 l 553 481 m 380 656 q 370 646 380 656 q 335 636 361 636 q 289 656 308 636 q 269 701 269 675 q 289 747 269 728 q 335 765 308 765 q 380 747 361 765 q 399 701 399 728 q 380 656 399 675 m 380 315 q 370 306 380 315 q 335 296 361 296 q 289 315 308 296 q 269 360 269 333 q 289 406 269 388 q 335 425 308 425 q 380 406 361 425 q 399 361 399 388 q 380 315 399 335 z "},"ø":{"ha":692,"x_min":110,"x_max":633,"o":"m 240 -93 l 118 -93 l 182 57 q 110 256 110 129 l 110 439 q 177 641 110 571 q 371 711 244 711 q 457 699 417 711 l 508 817 l 633 817 l 557 640 q 628 439 628 567 l 628 256 q 564 63 628 139 q 371 -14 500 -14 q 279 -1 321 -14 l 240 -93 m 503 242 l 503 439 q 496 499 503 471 l 329 113 q 371 108 347 108 q 467 143 431 108 q 503 242 503 178 m 242 196 l 407 582 q 371 586 390 586 q 236 439 236 586 l 236 242 q 242 196 236 214 z "},"ù":{"ha":678,"x_min":108,"x_max":626,"o":"m 626 0 l 507 0 l 503 31 q 369 -15 447 -15 q 108 239 108 -15 l 108 696 l 235 696 l 235 250 q 369 107 235 107 q 500 254 500 107 l 500 696 l 626 696 l 626 0 m 411 750 l 324 750 l 246 851 q 229 886 229 874 q 263 942 229 928 q 283 946 272 946 q 344 904 328 946 l 411 750 z "},"ú":{"ha":678,"x_min":108,"x_max":626,"o":"m 626 0 l 507 0 l 503 31 q 369 -15 447 -15 q 108 239 108 -15 l 108 696 l 235 696 l 235 250 q 369 107 235 107 q 500 254 500 107 l 500 696 l 626 696 l 626 0 m 419 747 l 332 747 l 399 901 q 461 943 415 943 q 481 939 471 943 q 514 898 514 925 q 497 849 514 871 l 419 747 z "},"û":{"ha":678,"x_min":108,"x_max":626,"o":"m 626 0 l 507 0 l 503 31 q 369 -15 447 -15 q 108 239 108 -15 l 108 696 l 235 696 l 235 250 q 369 107 235 107 q 500 254 500 107 l 500 696 l 626 696 l 626 0 m 569 803 l 490 749 l 371 874 l 244 749 l 167 803 l 372 999 l 569 803 z "},"ü":{"ha":678,"x_min":108,"x_max":626,"o":"m 626 0 l 507 0 l 503 31 q 369 -15 447 -15 q 108 239 108 -15 l 108 696 l 235 696 l 235 250 q 369 107 235 107 q 500 254 500 107 l 500 696 l 626 696 l 626 0 m 310 844 q 318 836 310 844 q 326 804 326 828 q 310 765 326 781 q 270 749 293 749 q 231 765 247 749 q 214 804 214 781 q 230 844 214 828 q 269 861 246 861 q 310 844 293 861 m 506 765 q 497 757 506 765 q 465 749 489 749 q 425 765 442 749 q 408 805 408 782 q 425 845 408 828 q 465 863 442 863 q 506 846 489 863 q 522 806 522 829 q 506 765 522 782 z "},"ý":{"ha":751,"x_min":108,"x_max":700,"o":"m 457 -292 l 411 -192 q 504 -81 504 -176 l 504 25 q 350 -17 460 -17 q 174 49 240 -17 q 108 244 108 115 l 108 696 l 233 696 l 233 267 q 265 143 233 179 q 365 107 297 107 q 468 142 432 107 q 504 267 504 178 l 504 504 q 542 638 504 581 q 656 708 581 696 l 700 608 q 629 508 629 589 l 629 -85 q 590 -224 629 -174 q 457 -292 551 -275 m 415 747 l 328 747 l 394 901 q 457 943 411 943 q 476 939 467 943 q 510 898 510 925 q 493 849 510 871 l 415 747 z "},"þ":{"ha":683,"x_min":108,"x_max":632,"o":"m 233 0 l 108 0 l 108 817 l 233 817 l 233 665 q 368 707 289 707 q 565 632 497 707 q 632 432 632 557 q 560 234 632 307 q 374 161 489 161 q 233 215 286 161 l 233 0 m 377 588 q 348 588 377 588 q 277 550 319 588 q 234 436 235 513 q 274 320 233 360 q 371 281 314 281 q 467 319 428 281 q 507 431 507 357 q 471 546 507 504 q 377 588 435 588 z "},"ÿ":{"ha":751,"x_min":108,"x_max":700,"o":"m 457 -292 l 411 -192 q 504 -81 504 -176 l 504 25 q 350 -17 460 -17 q 174 49 240 -17 q 108 244 108 115 l 108 696 l 233 696 l 233 267 q 265 143 233 179 q 365 107 297 107 q 468 142 432 107 q 504 267 504 178 l 504 504 q 542 638 504 581 q 656 708 581 696 l 700 608 q 629 508 629 589 l 629 -85 q 590 -224 629 -174 q 457 -292 551 -275 m 514 765 q 506 757 514 765 q 474 749 497 749 q 433 765 450 749 q 417 805 417 782 q 433 845 417 828 q 474 863 450 863 q 514 846 497 863 q 531 806 531 829 q 514 765 531 782 m 318 844 q 326 836 318 844 q 335 804 335 828 q 318 765 335 781 q 278 749 301 749 q 239 765 256 749 q 222 804 222 781 q 238 844 222 828 q 278 861 254 861 q 318 844 301 861 z "},"Ā":{"ha":732,"x_min":25,"x_max":718,"o":"m 718 0 l 571 0 l 494 285 l 239 285 l 165 0 l 25 0 l 282 972 l 447 972 l 718 0 m 464 417 l 364 764 l 269 417 l 464 417 m 511 1014 l 210 1014 l 210 1124 l 511 1124 l 511 1014 z "},"ā":{"ha":694,"x_min":108,"x_max":643,"o":"m 308 557 q 517 501 429 557 q 344 618 517 618 l 354 707 q 521 681 467 707 q 572 650 550 665 q 607 610 594 635 q 628 566 619 585 q 639 515 636 547 q 643 414 643 467 l 643 0 q 413 -14 499 -14 q 108 235 108 -14 l 108 350 q 204 535 108 488 q 308 557 251 557 m 517 110 l 517 375 q 347 429 443 418 q 316 431 339 431 q 264 410 293 431 q 235 336 235 390 l 235 244 q 415 101 235 101 q 517 110 461 101 m 536 747 l 235 747 l 235 857 l 536 857 l 536 747 z "},"Ă":{"ha":732,"x_min":25,"x_max":718,"o":"m 718 0 l 571 0 l 494 285 l 239 285 l 165 0 l 25 0 l 282 972 l 447 972 l 718 0 m 464 417 l 364 764 l 269 417 l 464 417 m 525 1178 l 525 1171 q 479 1060 525 1106 q 368 1014 433 1014 q 257 1060 303 1014 q 211 1171 211 1106 l 211 1178 l 308 1178 l 308 1171 q 325 1123 308 1140 q 368 1106 342 1106 q 412 1124 394 1106 q 429 1171 429 1142 l 429 1178 l 525 1178 z "},"ă":{"ha":694,"x_min":108,"x_max":643,"o":"m 308 557 q 517 501 429 557 q 344 618 517 618 l 354 707 q 521 681 467 707 q 572 650 550 665 q 607 610 594 635 q 628 566 619 585 q 639 515 636 547 q 643 414 643 467 l 643 0 q 413 -14 499 -14 q 108 235 108 -14 l 108 350 q 204 535 108 488 q 308 557 251 557 m 517 110 l 517 375 q 347 429 443 418 q 316 431 339 431 q 264 410 293 431 q 235 336 235 390 l 235 244 q 415 101 235 101 q 517 110 461 101 m 586 911 l 586 904 q 540 793 586 839 q 429 747 494 747 q 318 793 364 747 q 272 904 272 839 l 272 911 l 369 911 l 369 904 q 386 856 369 874 q 429 839 403 839 q 473 857 456 839 q 490 904 490 875 l 490 911 l 586 911 z "},"Ą":{"ha":900,"x_min":108,"x_max":849,"o":"m 786 -160 l 849 -226 q 703 -296 804 -296 q 621 -266 663 -296 q 579 -178 579 -236 q 579 -169 579 -174 q 710 0 579 -82 l 654 0 l 578 285 l 322 285 l 249 0 l 108 0 l 365 972 l 531 972 l 801 0 l 800 0 q 668 -168 667 -111 q 716 -211 671 -211 q 786 -160 761 -211 m 547 417 l 447 764 l 353 417 l 547 417 z "},"ą":{"ha":683,"x_min":51,"x_max":633,"o":"m 251 557 q 460 501 372 557 q 288 618 460 618 l 297 707 q 464 681 410 707 q 515 650 493 665 q 550 610 538 635 q 571 566 563 585 q 582 515 579 547 q 586 414 586 467 l 586 0 l 585 0 q 453 -168 451 -111 q 500 -211 456 -211 q 571 -160 544 -211 l 633 -226 q 488 -296 589 -296 q 406 -266 447 -296 q 364 -178 364 -236 q 364 -169 364 -174 q 478 -10 364 -87 q 394 -15 432 -15 q 303 -11 356 -15 q 189 13 250 -7 q 90 88 128 32 q 51 235 51 144 l 51 350 q 147 535 51 488 q 251 557 194 557 m 460 110 l 460 375 q 292 429 386 418 q 259 431 282 431 q 207 410 236 431 q 178 336 178 390 l 178 244 q 358 101 178 101 q 460 110 404 101 z "},"Ć":{"ha":600,"x_min":92,"x_max":593,"o":"m 572 149 l 593 32 q 368 -14 475 -14 q 301 -10 346 -14 q 205 22 256 -6 q 123 108 154 49 q 92 254 92 167 l 92 700 q 122 860 92 806 q 213 951 151 914 q 361 986 275 986 q 558 940 468 986 l 522 832 q 384 857 456 857 q 265 822 313 857 q 218 713 218 786 l 218 257 q 249 160 218 194 q 374 115 288 115 q 572 149 460 115 m 403 1019 l 315 1019 l 382 1174 q 444 1215 399 1215 q 464 1211 454 1215 q 497 1170 497 1197 q 481 1121 497 1143 l 403 1019 z "},"ć":{"ha":607,"x_min":108,"x_max":556,"o":"m 401 110 q 522 128 465 110 l 556 8 q 394 -15 467 -15 q 253 7 322 -15 q 108 250 108 54 l 108 428 q 147 593 108 526 q 367 708 214 708 q 553 664 458 708 l 518 558 q 397 586 446 586 q 314 572 347 586 q 235 436 235 538 l 235 235 q 401 110 235 110 m 378 747 l 290 747 l 357 901 q 419 943 374 943 q 439 939 429 943 q 472 898 472 925 q 456 849 472 871 l 378 747 z "},"Ĉ":{"ha":600,"x_min":92,"x_max":593,"o":"m 558 1071 l 479 1017 l 360 1142 l 233 1017 l 156 1071 l 361 1267 l 558 1071 m 572 149 l 593 32 q 368 -14 475 -14 q 301 -10 346 -14 q 205 22 256 -6 q 123 108 154 49 q 92 254 92 167 l 92 700 q 122 860 92 806 q 213 951 151 914 q 361 986 275 986 q 558 940 468 986 l 522 832 q 384 857 456 857 q 265 822 313 857 q 218 713 218 786 l 218 257 q 249 160 218 194 q 374 115 288 115 q 572 149 460 115 z "},"ĉ":{"ha":610,"x_min":108,"x_max":558,"o":"m 401 110 q 522 128 465 110 l 556 8 q 394 -15 467 -15 q 253 7 322 -15 q 108 250 108 54 l 108 428 q 147 593 108 526 q 367 708 214 708 q 553 664 458 708 l 518 558 q 397 586 446 586 q 314 572 347 586 q 235 436 235 538 l 235 235 q 401 110 235 110 m 558 804 l 479 750 l 360 875 l 233 750 l 156 804 l 361 1000 l 558 804 z "},"Ċ":{"ha":600,"x_min":92,"x_max":593,"o":"m 572 149 l 593 32 q 368 -14 475 -14 q 301 -10 346 -14 q 205 22 256 -6 q 123 108 154 49 q 92 254 92 167 l 92 700 q 122 860 92 806 q 213 951 151 914 q 361 986 275 986 q 558 940 468 986 l 522 832 q 384 857 456 857 q 265 822 313 857 q 218 713 218 786 l 218 257 q 249 160 218 194 q 374 115 288 115 q 572 149 460 115 m 438 1084 q 438 1070 438 1084 q 417 1035 438 1057 q 369 1014 396 1014 q 320 1035 342 1014 q 299 1084 299 1057 q 320 1132 299 1111 q 369 1153 342 1153 q 417 1132 397 1153 q 438 1084 438 1111 z "},"ċ":{"ha":607,"x_min":108,"x_max":556,"o":"m 401 110 q 522 128 465 110 l 556 8 q 394 -15 467 -15 q 253 7 322 -15 q 108 250 108 54 l 108 428 q 147 593 108 526 q 367 708 214 708 q 553 664 458 708 l 518 558 q 397 586 446 586 q 314 572 347 586 q 235 436 235 538 l 235 235 q 401 110 235 110 m 436 817 q 436 804 436 817 q 415 769 436 790 q 367 747 394 747 q 319 769 340 747 q 297 817 297 790 q 319 865 297 844 q 367 886 340 886 q 415 865 394 886 q 436 817 436 844 z "},"Č":{"ha":600,"x_min":92,"x_max":593,"o":"m 572 149 l 593 32 q 368 -14 475 -14 q 301 -10 346 -14 q 205 22 256 -6 q 123 108 154 49 q 92 254 92 167 l 92 700 q 122 860 92 806 q 213 951 151 914 q 361 986 275 986 q 558 940 468 986 l 522 832 q 384 857 456 857 q 265 822 313 857 q 218 713 218 786 l 218 257 q 249 160 218 194 q 374 115 288 115 q 572 149 460 115 m 553 1215 l 356 1019 l 150 1215 l 228 1269 l 354 1143 l 474 1269 l 553 1215 z "},"č":{"ha":608,"x_min":108,"x_max":557,"o":"m 401 110 q 522 128 465 110 l 556 8 q 394 -15 467 -15 q 253 7 322 -15 q 108 250 108 54 l 108 428 q 147 593 108 526 q 367 708 214 708 q 553 664 458 708 l 518 558 q 397 586 446 586 q 314 572 347 586 q 235 436 235 538 l 235 235 q 401 110 235 110 m 557 950 l 360 754 l 154 950 l 232 1004 l 358 878 l 478 1004 l 557 950 z "},"Ď":{"ha":800,"x_min":108,"x_max":692,"o":"m 397 0 l 108 0 l 108 974 l 369 974 q 609 888 526 974 q 692 658 692 801 l 692 278 q 397 0 692 0 m 565 264 l 565 672 q 516 806 565 763 q 383 849 467 849 l 235 849 l 235 115 l 375 115 q 523 153 481 115 q 565 264 565 190 m 578 1215 l 381 1019 l 175 1215 l 253 1269 l 379 1143 l 499 1269 l 578 1215 z "},"ď":{"ha":883,"x_min":108,"x_max":831,"o":"m 226 681 q 369 708 294 708 q 496 681 444 708 l 496 972 l 621 972 l 621 0 q 400 -17 501 -17 q 217 25 299 -17 q 108 218 108 81 l 108 481 q 226 681 108 626 m 496 551 q 377 583 435 583 q 276 551 319 583 q 233 443 233 519 l 233 211 q 311 114 233 140 q 399 100 353 100 q 496 111 446 100 l 496 551 m 739 746 l 657 786 q 753 858 718 821 l 738 863 q 702 917 701 883 q 721 969 703 951 q 765 986 739 986 q 814 961 797 986 q 831 908 831 936 q 739 746 831 826 z "},"Đ":{"ha":800,"x_min":108,"x_max":692,"o":"m 397 0 l 108 0 l 108 974 l 369 974 q 609 888 526 974 q 692 658 692 801 l 692 278 q 397 0 692 0 m 565 264 l 565 672 q 516 806 565 763 q 383 849 467 849 l 235 849 l 235 115 l 375 115 q 523 153 481 115 q 565 264 565 190 m 544 1014 l 243 1014 l 243 1124 l 544 1124 l 544 1014 z "},"đ":{"ha":758,"x_min":108,"x_max":707,"o":"m 226 681 q 369 708 294 708 q 496 681 444 708 l 496 757 l 382 757 l 382 879 l 496 879 l 496 972 l 621 972 l 621 879 l 707 879 l 707 757 l 621 757 l 621 0 q 400 -17 501 -17 q 217 25 299 -17 q 108 218 108 81 l 108 481 q 226 681 108 626 m 496 551 q 377 583 435 583 q 276 551 319 583 q 233 443 233 519 l 233 211 q 311 114 233 140 q 399 100 353 100 q 496 111 446 100 l 496 551 z "},"Ē":{"ha":646,"x_min":108,"x_max":572,"o":"m 569 0 l 108 0 l 108 972 l 572 972 l 572 847 l 235 847 l 235 574 l 451 574 l 414 451 l 235 451 l 235 114 l 569 114 l 569 0 m 489 1014 l 188 1014 l 188 1124 l 489 1124 l 489 1014 z "},"ē":{"ha":746,"x_min":49,"x_max":549,"o":"m 285 100 q 467 156 363 100 l 514 49 q 290 -17 407 -17 q 49 186 49 -17 l 49 471 q 119 646 49 583 q 304 708 189 708 q 484 647 419 708 q 549 475 549 585 l 549 275 l 176 254 l 176 200 q 209 122 176 144 q 285 100 242 100 m 421 386 l 421 476 q 385 560 421 533 q 295 588 349 588 q 209 555 242 588 q 176 469 176 522 l 176 372 l 421 386 m 451 747 l 151 747 l 151 857 l 451 857 l 451 747 z "},"Ė":{"ha":646,"x_min":108,"x_max":572,"o":"m 569 0 l 108 0 l 108 972 l 572 972 l 572 847 l 235 847 l 235 574 l 451 574 l 414 451 l 235 451 l 235 114 l 569 114 l 569 0 m 424 1084 q 424 1070 424 1084 q 403 1035 424 1057 q 355 1014 382 1014 q 306 1035 328 1014 q 285 1084 285 1057 q 306 1132 285 1111 q 356 1153 328 1153 q 403 1132 383 1153 q 424 1084 424 1111 z "},"ė":{"ha":660,"x_min":108,"x_max":608,"o":"m 344 100 q 526 156 422 100 l 574 49 q 350 -17 467 -17 q 108 186 108 -17 l 108 471 q 178 646 108 583 q 364 708 249 708 q 544 647 479 708 q 608 475 608 585 l 608 275 l 236 254 l 236 200 q 269 122 236 144 q 344 100 301 100 m 481 386 l 481 476 q 444 560 481 533 q 356 588 408 588 q 269 555 303 588 q 236 469 236 522 l 236 372 l 481 386 m 438 817 q 438 804 438 817 q 417 769 438 790 q 369 747 396 747 q 320 769 342 747 q 299 817 299 790 q 320 865 299 844 q 369 886 342 886 q 417 865 397 886 q 438 817 438 844 z "},"Ę":{"ha":690,"x_min":108,"x_max":617,"o":"m 554 -160 l 617 -226 q 471 -296 572 -296 q 389 -266 431 -296 q 347 -178 347 -236 q 347 -169 347 -174 q 478 0 347 -82 l 108 0 l 108 972 l 572 972 l 572 847 l 235 847 l 235 574 l 451 574 l 414 451 l 235 451 l 235 114 l 569 114 l 569 0 l 568 0 q 436 -168 435 -111 q 483 -211 439 -211 q 554 -160 528 -211 z "},"ę":{"ha":603,"x_min":49,"x_max":549,"o":"m 285 100 q 467 156 363 100 l 514 49 q 368 -7 447 7 q 246 -168 244 -112 q 294 -211 249 -211 q 364 -160 339 -211 l 426 -226 q 281 -296 382 -296 q 199 -266 240 -296 q 157 -178 157 -236 q 157 -169 157 -174 q 263 -17 157 -92 q 106 36 164 -14 q 49 186 49 86 l 49 471 q 119 646 49 583 q 304 708 189 708 q 484 647 419 708 q 549 475 549 585 l 549 275 l 176 254 l 176 200 q 209 122 176 144 q 285 100 242 100 m 421 386 l 421 476 q 385 560 421 533 q 295 588 349 588 q 209 555 242 588 q 176 469 176 522 l 176 372 l 421 386 z "},"Ě":{"ha":646,"x_min":108,"x_max":572,"o":"m 569 0 l 108 0 l 108 972 l 572 972 l 572 847 l 235 847 l 235 574 l 451 574 l 414 451 l 235 451 l 235 114 l 569 114 l 569 0 m 544 1215 l 347 1019 l 142 1215 l 219 1269 l 346 1143 l 465 1269 l 544 1215 z "},"ě":{"ha":660,"x_min":108,"x_max":608,"o":"m 344 100 q 526 156 422 100 l 574 49 q 350 -17 467 -17 q 108 186 108 -17 l 108 471 q 178 646 108 583 q 364 708 249 708 q 544 647 479 708 q 608 475 608 585 l 608 275 l 236 254 l 236 200 q 269 122 236 144 q 344 100 301 100 m 481 386 l 481 476 q 444 560 481 533 q 356 588 408 588 q 269 555 303 588 q 236 469 236 522 l 236 372 l 481 386 m 565 950 l 368 754 l 163 950 l 240 1004 l 367 878 l 486 1004 l 565 950 z "},"Ĝ":{"ha":746,"x_min":90,"x_max":661,"o":"m 661 0 l 547 0 l 535 28 q 383 -14 474 -14 q 176 56 261 -14 q 90 263 90 125 l 90 699 q 211 950 90 876 q 360 985 274 985 q 557 939 467 985 l 519 831 q 385 857 449 857 q 217 711 217 857 l 217 260 q 382 113 217 113 q 492 149 449 113 q 536 258 536 185 l 536 294 l 453 294 l 411 417 l 661 417 l 661 0 m 593 1071 l 514 1017 l 394 1142 l 268 1017 l 190 1071 l 396 1267 l 593 1071 z "},"ĝ":{"ha":683,"x_min":108,"x_max":632,"o":"m 607 804 l 528 750 l 408 875 l 282 750 l 204 804 l 410 1000 l 607 804 m 438 -292 l 407 -193 q 506 -72 506 -181 l 506 38 q 358 -17 471 -17 q 176 50 244 -17 q 108 244 108 117 l 108 451 q 180 641 108 574 q 363 708 251 708 q 508 658 475 708 l 525 696 l 632 696 l 632 -89 q 438 -292 632 -276 m 506 293 l 506 447 q 469 549 506 514 q 369 585 433 585 q 269 547 304 585 q 235 444 235 510 l 235 254 q 267 144 235 185 q 367 104 300 104 q 506 293 506 104 z "},"Ğ":{"ha":746,"x_min":90,"x_max":661,"o":"m 661 0 l 547 0 l 535 28 q 383 -14 474 -14 q 176 56 261 -14 q 90 263 90 125 l 90 699 q 211 950 90 876 q 360 985 274 985 q 557 939 467 985 l 519 831 q 385 857 449 857 q 217 711 217 857 l 217 260 q 382 113 217 113 q 492 149 449 113 q 536 258 536 185 l 536 294 l 453 294 l 411 417 l 661 417 l 661 0 m 540 1175 l 540 1168 q 494 1057 540 1103 q 383 1011 447 1011 q 273 1057 319 1011 q 226 1168 226 1103 l 226 1175 l 324 1175 l 324 1168 q 340 1120 324 1138 q 383 1103 357 1103 q 427 1121 410 1103 q 444 1168 444 1139 l 444 1175 l 540 1175 z "},"ğ":{"ha":683,"x_min":108,"x_max":632,"o":"m 549 903 l 549 896 q 502 785 549 831 q 392 739 456 739 q 281 785 328 739 q 235 896 235 831 l 235 903 l 332 903 l 332 896 q 349 848 332 865 q 392 831 365 831 q 435 849 418 831 q 453 896 453 867 l 453 903 l 549 903 m 438 -292 l 407 -193 q 506 -72 506 -181 l 506 38 q 358 -17 471 -17 q 176 50 244 -17 q 108 244 108 117 l 108 451 q 180 641 108 574 q 363 708 251 708 q 508 658 475 708 l 525 696 l 632 696 l 632 -89 q 438 -292 632 -276 m 506 293 l 506 447 q 469 549 506 514 q 369 585 433 585 q 269 547 304 585 q 235 444 235 510 l 235 254 q 267 144 235 185 q 367 104 300 104 q 506 293 506 104 z "},"Ġ":{"ha":786,"x_min":118,"x_max":689,"o":"m 475 1083 q 475 1069 475 1083 q 454 1034 475 1056 q 406 1013 433 1013 q 358 1034 379 1013 q 336 1083 336 1056 q 358 1131 336 1110 q 406 1151 379 1151 q 454 1131 433 1151 q 475 1083 475 1111 m 689 0 l 575 0 l 563 28 q 411 -14 501 -14 q 203 56 289 -14 q 118 263 118 125 l 118 699 q 239 950 118 876 q 388 985 301 985 q 585 939 494 985 l 547 831 q 413 857 476 857 q 244 711 244 857 l 244 260 q 410 113 244 113 q 520 149 476 113 q 564 258 564 185 l 564 294 l 481 294 l 439 417 l 689 417 l 689 0 z "},"ġ":{"ha":683,"x_min":108,"x_max":632,"o":"m 457 817 q 457 803 457 817 q 436 767 457 789 q 388 746 415 746 q 340 767 361 746 q 318 816 318 789 q 340 864 318 843 q 389 885 361 885 q 437 865 417 885 q 457 817 457 844 m 438 -292 l 407 -193 q 506 -72 506 -181 l 506 38 q 358 -17 471 -17 q 176 50 244 -17 q 108 244 108 117 l 108 451 q 180 641 108 574 q 363 708 251 708 q 508 658 475 708 l 525 696 l 632 696 l 632 -89 q 438 -292 632 -276 m 506 293 l 506 447 q 469 549 506 514 q 369 585 433 585 q 269 547 304 585 q 235 444 235 510 l 235 254 q 267 144 235 185 q 367 104 300 104 q 506 293 506 104 z "},"Ģ":{"ha":746,"x_min":90,"x_max":661,"o":"m 661 0 l 547 0 l 535 28 q 383 -14 474 -14 q 176 56 261 -14 q 90 263 90 125 l 90 699 q 211 950 90 876 q 360 985 274 985 q 557 939 467 985 l 519 831 q 385 857 449 857 q 217 711 217 857 l 217 260 q 382 113 217 113 q 492 149 449 113 q 536 258 536 185 l 536 294 l 453 294 l 411 417 l 661 417 l 661 0 m 351 -286 l 269 -246 q 365 -174 331 -211 l 350 -169 q 315 -115 314 -149 q 333 -63 315 -81 q 378 -46 351 -46 q 426 -71 410 -46 q 443 -124 443 -96 q 351 -286 443 -206 z "},"ģ":{"ha":683,"x_min":108,"x_max":632,"o":"m 438 -292 l 407 -193 q 506 -72 506 -181 l 506 38 q 358 -17 471 -17 q 176 50 244 -17 q 108 244 108 117 l 108 451 q 180 641 108 574 q 363 708 251 708 q 508 658 475 708 l 525 696 l 632 696 l 632 -89 q 438 -292 632 -276 m 506 293 l 506 447 q 469 549 506 514 q 369 585 433 585 q 269 547 304 585 q 235 444 235 510 l 235 254 q 267 144 235 185 q 367 104 300 104 q 506 293 506 104 m 385 879 l 400 875 q 435 820 436 854 q 417 769 435 786 q 372 751 399 751 q 324 776 340 751 q 307 829 307 801 q 399 992 307 911 l 481 951 q 385 879 419 917 z "},"Ĥ":{"ha":817,"x_min":108,"x_max":706,"o":"m 706 0 l 581 0 l 581 451 l 235 451 l 235 0 l 108 0 l 108 972 l 235 972 l 235 574 l 581 574 l 581 972 l 706 972 l 706 0 m 625 1071 l 546 1017 l 426 1142 l 300 1017 l 222 1071 l 428 1267 l 625 1071 z "},"ĥ":{"ha":822,"x_min":89,"x_max":739,"o":"m 492 1071 l 413 1017 l 293 1142 l 167 1017 l 89 1071 l 294 1267 l 492 1071 m 353 679 q 481 708 404 708 q 621 682 557 708 q 739 481 739 628 l 739 0 l 613 0 l 613 444 q 583 547 613 511 q 508 589 553 583 q 476 590 493 590 q 353 558 404 590 l 353 0 l 226 0 l 226 972 l 353 972 l 353 679 z "},"Ħ":{"ha":951,"x_min":108,"x_max":840,"o":"m 774 0 l 649 0 l 649 451 l 303 451 l 303 0 l 176 0 l 176 661 l 108 661 l 108 783 l 176 783 l 176 972 l 303 972 l 303 783 l 649 783 l 649 972 l 774 972 l 774 783 l 840 783 l 840 661 l 774 661 l 774 0 m 649 574 l 649 661 l 303 661 l 303 574 l 649 574 z "},"ħ":{"ha":757,"x_min":108,"x_max":706,"o":"m 319 679 q 447 708 371 708 q 588 682 524 708 q 706 481 706 628 l 706 0 l 579 0 l 579 444 q 549 547 579 511 q 475 589 519 583 q 443 590 460 590 q 319 558 371 590 l 319 0 l 193 0 l 193 757 l 108 757 l 108 879 l 193 879 l 193 972 l 319 972 l 319 879 l 433 879 l 433 757 l 319 757 l 319 679 z "},"Ĩ":{"ha":699,"x_min":108,"x_max":588,"o":"m 426 0 l 299 0 l 299 850 l 211 853 l 211 972 l 426 972 l 426 0 m 440 1092 q 538 1140 494 1092 l 588 1063 q 454 989 525 989 q 397 1002 429 989 q 331 1031 365 1015 q 261 1047 296 1047 q 156 997 203 1047 l 108 1075 q 247 1149 174 1149 q 303 1136 272 1149 q 370 1108 335 1124 q 440 1092 406 1092 z "},"ĩ":{"ha":639,"x_min":108,"x_max":588,"o":"m 440 815 q 538 864 494 815 l 588 786 q 454 713 525 713 q 397 726 429 713 q 331 755 365 739 q 261 771 296 771 q 156 721 203 771 l 108 799 q 247 872 174 872 q 303 860 272 872 q 370 831 335 847 q 440 815 406 815 m 394 0 l 268 0 l 268 696 l 394 696 l 394 0 z "},"Ī":{"ha":519,"x_min":108,"x_max":408,"o":"m 347 0 l 219 0 l 219 850 l 132 853 l 132 972 l 347 972 l 347 0 m 408 1014 l 108 1014 l 108 1124 l 408 1124 l 408 1014 z "},"ī":{"ha":461,"x_min":108,"x_max":410,"o":"m 410 747 l 108 747 l 108 857 l 410 857 l 410 747 m 326 0 l 200 0 l 200 696 l 326 696 l 326 0 z "},"Į":{"ha":499,"x_min":118,"x_max":388,"o":"m 325 -160 l 388 -226 q 242 -296 343 -296 q 160 -266 201 -296 q 118 -178 118 -236 q 118 -169 118 -174 q 249 0 118 -82 l 211 0 l 211 850 l 124 853 l 124 972 l 339 972 l 339 0 q 207 -168 206 -111 q 255 -211 210 -211 q 325 -160 300 -211 z "},"į":{"ha":342,"x_min":-3,"x_max":267,"o":"m 204 -160 l 267 -226 q 121 -296 222 -296 q 39 -266 81 -296 q -3 -178 -3 -236 q -3 -169 -3 -174 q 128 0 -3 -82 l 94 0 l 94 696 l 221 696 l 221 0 l 218 0 q 86 -168 85 -111 q 133 -211 89 -211 q 204 -160 178 -211 m 229 917 q 229 904 229 917 q 208 869 229 890 q 160 847 188 847 q 112 869 133 847 q 90 917 90 890 q 112 965 90 944 q 161 986 133 986 q 209 965 189 986 q 229 917 229 944 z "},"İ":{"ha":444,"x_min":108,"x_max":333,"o":"m 324 0 l 196 0 l 196 850 l 108 853 l 108 972 l 324 972 l 324 0 m 333 1084 q 333 1070 333 1084 q 313 1035 333 1057 q 265 1014 292 1014 q 216 1035 238 1014 q 194 1084 194 1057 q 216 1132 194 1111 q 265 1153 238 1153 q 313 1132 292 1153 q 333 1084 333 1111 z "},"ı":{"ha":229,"x_min":50,"x_max":176,"o":"m 176 0 l 50 0 l 50 696 l 176 696 l 176 0 z "},"Ĵ":{"ha":379,"x_min":-12,"x_max":326,"o":"m 26 -51 l -12 51 q 47 60 19 51 q 98 103 74 68 q 122 196 122 138 l 122 850 l 36 853 l 36 972 l 247 972 l 247 183 q 197 6 247 61 q 26 -51 146 -50 m 326 1175 l 326 1168 q 280 1057 326 1103 q 169 1011 233 1011 q 59 1057 106 1011 q 13 1168 13 1103 l 13 1175 l 110 1175 l 110 1168 q 126 1120 110 1138 q 169 1103 143 1103 q 213 1121 196 1103 q 231 1168 231 1139 l 231 1175 l 326 1175 z "},"ĵ":{"ha":563,"x_min":108,"x_max":511,"o":"m 511 804 l 432 750 l 313 875 l 186 750 l 108 804 l 314 1000 l 511 804 m 264 -58 l 264 576 l 196 588 l 164 696 l 390 696 l 390 -104 q 329 -236 388 -182 q 193 -290 271 -290 l 163 -193 q 195 -183 175 -193 q 228 -161 215 -174 q 264 -58 264 -125 z "},"Ķ":{"ha":711,"x_min":110,"x_max":710,"o":"m 710 0 l 554 0 l 274 418 l 243 372 l 243 0 l 110 0 l 110 974 l 243 974 l 243 593 l 499 974 l 650 974 l 349 533 l 710 0 m 343 -286 l 261 -246 q 357 -174 322 -211 l 342 -169 q 306 -115 306 -149 q 325 -63 307 -81 q 369 -46 343 -46 q 418 -71 401 -46 q 435 -124 435 -96 q 343 -286 435 -206 z "},"ķ":{"ha":639,"x_min":90,"x_max":640,"o":"m 640 0 l 483 0 l 254 383 l 217 349 l 217 0 l 90 0 l 90 972 l 217 972 l 217 508 l 449 722 l 542 633 l 351 471 q 640 0 535 167 m 310 -287 l 228 -247 q 324 -175 289 -212 l 308 -171 q 273 -116 272 -150 q 292 -65 274 -82 q 336 -47 310 -47 q 385 -72 368 -47 q 401 -125 401 -97 q 310 -287 401 -207 z "},"ĸ":{"ha":703,"x_min":108,"x_max":651,"o":"m 651 110 l 622 -1 q 532 24 574 -1 q 469 75 490 50 q 408 153 447 100 l 286 321 l 235 272 l 235 0 l 108 0 l 108 711 l 235 693 l 235 433 l 475 696 l 633 696 l 378 415 l 529 201 q 651 110 596 113 z "},"Ĺ":{"ha":611,"x_min":108,"x_max":610,"o":"m 610 0 l 108 0 l 108 972 l 235 972 l 235 115 l 610 115 l 610 0 m 249 1015 l 161 1015 l 228 1169 q 290 1211 244 1211 q 310 1207 300 1211 q 343 1166 343 1193 q 326 1117 343 1139 l 249 1015 z "},"ĺ":{"ha":428,"x_min":108,"x_max":317,"o":"m 235 0 l 108 0 l 108 972 l 235 972 l 235 0 m 222 1019 l 135 1019 l 201 1174 q 264 1215 218 1215 q 283 1211 274 1215 q 317 1170 317 1197 q 300 1121 317 1143 l 222 1019 z "},"Ļ":{"ha":611,"x_min":108,"x_max":610,"o":"m 610 0 l 108 0 l 108 972 l 235 972 l 235 115 l 610 115 l 610 0 m 342 -287 l 260 -247 q 356 -175 321 -212 l 340 -171 q 305 -116 304 -150 q 324 -65 306 -82 q 368 -47 342 -47 q 417 -72 400 -47 q 433 -125 433 -97 q 342 -287 433 -207 z "},"ļ":{"ha":394,"x_min":107,"x_max":281,"o":"m 279 0 l 153 0 l 153 972 l 279 972 l 279 0 m 189 -287 l 107 -247 q 203 -175 168 -212 l 188 -171 q 152 -116 151 -150 q 171 -65 153 -82 q 215 -47 189 -47 q 264 -72 247 -47 q 281 -125 281 -97 q 189 -287 281 -207 z "},"Ľ":{"ha":750,"x_min":108,"x_max":749,"o":"m 749 0 l 247 0 l 247 972 l 374 972 l 374 115 l 749 115 l 749 0 m 511 1215 l 314 1019 l 108 1215 l 186 1269 l 313 1143 l 432 1269 l 511 1215 z "},"ľ":{"ha":622,"x_min":108,"x_max":511,"o":"m 372 0 l 246 0 l 246 972 l 372 972 l 372 0 m 511 1215 l 314 1019 l 108 1215 l 186 1269 l 313 1143 l 432 1269 l 511 1215 z "},"Ł":{"ha":818,"x_min":108,"x_max":767,"o":"m 767 0 l 265 0 l 265 451 l 151 400 l 108 497 l 265 568 l 265 972 l 392 972 l 392 625 l 513 681 l 557 582 l 392 507 l 392 115 l 767 115 l 767 0 z "},"ł":{"ha":608,"x_min":108,"x_max":557,"o":"m 404 0 l 276 0 l 276 456 l 151 400 l 108 497 l 276 574 l 276 850 l 189 853 l 189 972 l 404 972 l 404 631 l 513 681 l 557 582 l 404 513 l 404 0 z "},"Ń":{"ha":903,"x_min":108,"x_max":792,"o":"m 792 0 l 664 0 l 235 717 l 235 0 l 108 0 l 108 972 l 235 972 l 664 258 l 664 972 l 792 972 l 792 0 m 474 1014 l 386 1014 l 453 1168 q 515 1210 469 1210 q 535 1206 525 1210 q 568 1165 568 1192 q 551 1115 568 1138 l 474 1014 z "},"ń":{"ha":672,"x_min":108,"x_max":621,"o":"m 233 674 q 368 707 294 707 q 503 682 442 707 q 621 481 621 628 l 621 0 l 494 0 l 494 451 q 454 553 494 518 q 354 588 414 588 q 233 556 294 588 l 233 0 l 108 0 l 108 696 l 224 696 l 233 674 m 408 747 l 321 747 l 388 901 q 450 943 404 943 q 469 939 460 943 q 503 898 503 925 q 486 849 503 871 l 408 747 z "},"Ņ":{"ha":903,"x_min":108,"x_max":792,"o":"m 792 0 l 664 0 l 235 717 l 235 0 l 108 0 l 108 972 l 235 972 l 664 258 l 664 972 l 792 972 l 792 0 m 436 -282 l 354 -242 q 450 -169 415 -207 l 435 -165 q 399 -110 399 -144 q 418 -59 400 -76 q 463 -42 436 -42 q 511 -67 494 -42 q 528 -119 528 -92 q 436 -282 528 -201 z "},"ņ":{"ha":694,"x_min":89,"x_max":601,"o":"m 214 674 q 349 707 275 707 q 483 682 422 707 q 601 481 601 628 l 601 0 l 475 0 l 475 451 q 435 553 475 518 q 335 588 394 588 q 214 556 275 588 l 214 0 l 89 0 l 89 696 l 204 696 l 214 674 m 315 -287 l 233 -247 q 329 -175 294 -212 l 314 -171 q 278 -116 278 -150 q 297 -65 279 -82 q 342 -47 315 -47 q 390 -72 374 -47 q 407 -125 407 -97 q 315 -287 407 -207 z "},"Ň":{"ha":903,"x_min":108,"x_max":792,"o":"m 792 0 l 664 0 l 235 717 l 235 0 l 108 0 l 108 972 l 235 972 l 664 258 l 664 972 l 792 972 l 792 0 m 658 1215 l 461 1019 l 256 1215 l 333 1269 l 460 1143 l 579 1269 l 658 1215 z "},"ň":{"ha":672,"x_min":108,"x_max":621,"o":"m 233 674 q 368 707 294 707 q 503 682 442 707 q 621 481 621 628 l 621 0 l 494 0 l 494 451 q 454 553 494 518 q 354 588 414 588 q 233 556 294 588 l 233 0 l 108 0 l 108 696 l 224 696 l 233 674 m 585 1017 l 388 821 l 182 1017 l 260 1071 l 386 944 l 506 1071 l 585 1017 z "},"Ŋ":{"ha":903,"x_min":108,"x_max":792,"o":"m 664 258 l 664 850 l 579 853 l 579 972 l 792 972 l 792 204 q 728 14 792 78 q 571 -51 664 -50 q 532 51 556 -4 q 618 78 586 51 q 235 717 311 589 l 235 0 l 108 0 l 108 972 l 235 972 q 664 258 469 596 z "},"ŋ":{"ha":694,"x_min":89,"x_max":601,"o":"m 213 675 q 340 707 260 707 q 483 682 421 707 q 601 481 601 628 l 601 -103 q 535 -237 600 -185 q 389 -290 469 -290 l 364 -192 q 399 -183 375 -192 q 437 -162 422 -175 q 464 -124 451 -150 q 476 -62 476 -97 l 476 461 q 447 550 476 519 q 344 586 414 586 q 214 556 275 586 l 214 0 l 89 0 l 89 696 l 204 696 l 213 675 z "},"Ō":{"ha":763,"x_min":88,"x_max":671,"o":"m 671 703 l 671 257 q 585 51 671 117 q 381 -15 500 -15 q 174 51 261 -15 q 88 257 88 117 l 88 704 q 166 921 88 847 q 382 994 244 994 q 595 917 519 994 q 671 703 671 839 m 544 276 l 544 675 q 506 814 544 767 q 379 861 468 861 q 252 815 290 861 q 214 676 214 768 l 214 275 q 258 154 214 197 q 378 111 301 111 q 499 155 454 111 q 544 276 544 199 m 524 1014 l 222 1014 l 222 1124 l 524 1124 l 524 1014 z "},"ō":{"ha":678,"x_min":108,"x_max":626,"o":"m 626 439 l 626 256 q 563 63 626 139 q 369 -14 499 -14 q 174 63 240 -14 q 108 256 108 140 l 108 439 q 176 641 108 571 q 367 711 243 711 q 558 638 490 711 q 626 439 626 565 m 501 242 l 501 439 q 369 586 501 586 q 235 439 235 586 l 235 242 q 272 142 235 176 q 369 108 310 108 q 465 143 429 108 q 501 242 501 178 m 517 747 l 217 747 l 217 857 l 517 857 l 517 747 z "},"Ő":{"ha":763,"x_min":88,"x_max":671,"o":"m 671 703 l 671 257 q 585 51 671 117 q 381 -15 500 -15 q 174 51 261 -15 q 88 257 88 117 l 88 704 q 166 921 88 847 q 382 994 244 994 q 595 917 519 994 q 671 703 671 839 m 544 276 l 544 675 q 506 814 544 767 q 379 861 468 861 q 252 815 290 861 q 214 676 214 768 l 214 275 q 258 154 214 197 q 378 111 301 111 q 499 155 454 111 q 544 276 544 199 m 492 1018 l 404 1018 l 471 1172 q 533 1214 488 1214 q 553 1210 543 1214 q 586 1169 586 1196 q 569 1119 586 1142 l 492 1018 m 310 1018 l 222 1018 l 289 1172 q 351 1214 306 1214 q 371 1210 361 1214 q 404 1169 404 1196 q 388 1119 404 1142 l 310 1018 z "},"ő":{"ha":678,"x_min":108,"x_max":626,"o":"m 626 439 l 626 256 q 563 63 626 139 q 369 -14 499 -14 q 174 63 240 -14 q 108 256 108 140 l 108 439 q 176 641 108 571 q 367 711 243 711 q 558 638 490 711 q 626 439 626 565 m 501 242 l 501 439 q 369 586 501 586 q 235 439 235 586 l 235 242 q 272 142 235 176 q 369 108 310 108 q 465 143 429 108 q 501 242 501 178 m 486 754 l 399 754 l 465 908 q 528 950 482 950 q 547 946 538 950 q 581 905 581 932 q 564 856 581 878 l 486 754 m 304 754 l 217 754 l 283 908 q 346 950 300 950 q 365 946 356 950 q 399 905 399 932 q 382 856 399 878 l 304 754 z "},"Œ":{"ha":1079,"x_min":108,"x_max":1029,"o":"m 1026 0 l 565 0 l 565 22 q 388 -15 494 -15 q 195 51 282 -15 q 108 257 108 117 l 108 704 q 187 921 108 847 q 403 994 265 994 q 565 956 496 994 l 565 972 l 1029 972 l 1029 847 l 692 847 l 692 574 l 908 574 l 871 451 l 692 451 l 692 114 l 1026 114 l 1026 0 m 565 268 l 565 692 q 524 818 563 775 q 398 861 485 861 q 273 815 311 861 q 235 676 235 768 l 235 275 q 278 154 235 197 q 397 111 322 111 q 517 153 472 111 q 565 268 563 194 z "},"œ":{"ha":1081,"x_min":108,"x_max":1029,"o":"m 628 208 q 799 99 628 99 q 968 146 872 99 l 1015 49 q 765 -17 907 -17 q 557 65 622 -17 q 367 -14 493 -14 q 174 63 240 -14 q 108 256 108 140 l 108 439 q 176 641 108 571 q 373 711 243 711 q 571 619 503 711 q 667 689 617 669 q 792 708 717 708 q 964 639 899 708 q 1029 460 1029 569 l 1029 269 l 628 243 l 628 208 m 501 242 l 501 439 q 369 593 501 593 q 235 439 235 593 l 235 242 q 275 133 235 167 q 369 99 315 99 q 462 133 422 99 q 501 242 501 167 m 903 378 l 903 456 q 865 560 903 526 q 767 594 828 594 q 667 556 707 594 q 628 440 628 517 l 628 364 l 903 378 z "},"Ŕ":{"ha":783,"x_min":108,"x_max":713,"o":"m 713 0 l 583 0 l 482 297 q 450 294 471 294 l 235 294 l 235 0 l 108 0 l 108 972 l 442 972 q 643 882 575 972 q 711 653 711 792 q 663 407 711 482 q 599 339 638 368 l 713 0 m 235 417 l 422 417 q 533 460 501 417 q 572 549 568 508 q 579 653 579 599 q 534 803 579 761 q 403 846 489 846 l 235 846 l 235 417 m 403 1014 l 315 1014 l 382 1168 q 444 1210 399 1210 q 464 1206 454 1210 q 497 1165 497 1192 q 481 1115 497 1138 l 403 1014 z "},"ŕ":{"ha":533,"x_min":108,"x_max":482,"o":"m 233 675 q 376 707 296 707 q 482 692 401 707 l 451 571 q 378 589 414 589 q 308 578 342 589 q 235 481 235 550 l 235 0 l 108 0 l 108 696 l 228 696 l 233 675 m 279 747 l 192 747 l 258 901 q 321 943 275 943 q 340 939 331 943 q 374 898 374 925 q 357 849 374 871 l 279 747 z "},"Ŗ":{"ha":783,"x_min":108,"x_max":713,"o":"m 713 0 l 583 0 l 482 297 q 450 294 471 294 l 235 294 l 235 0 l 108 0 l 108 972 l 442 972 q 643 882 575 972 q 711 653 711 792 q 663 407 711 482 q 599 339 638 368 l 713 0 m 235 417 l 422 417 q 533 460 501 417 q 572 549 568 508 q 579 653 579 599 q 534 803 579 761 q 403 846 489 846 l 235 846 l 235 417 m 365 -289 l 283 -249 q 379 -176 344 -214 l 364 -172 q 328 -117 328 -151 q 347 -66 329 -83 q 392 -49 365 -49 q 440 -74 424 -49 q 457 -126 457 -99 q 365 -289 457 -208 z "},"ŗ":{"ha":528,"x_min":89,"x_max":482,"o":"m 233 675 q 376 707 296 707 q 482 692 401 707 l 451 571 q 378 589 414 589 q 308 578 342 589 q 235 481 235 550 l 235 0 l 108 0 l 108 696 l 228 696 l 233 675 m 171 -287 l 89 -247 q 185 -175 150 -212 l 169 -171 q 134 -116 133 -150 q 153 -65 135 -82 q 197 -47 171 -47 q 246 -72 229 -47 q 263 -125 263 -97 q 171 -287 263 -207 z "},"Ř":{"ha":783,"x_min":108,"x_max":713,"o":"m 713 0 l 583 0 l 482 297 q 450 294 471 294 l 235 294 l 235 0 l 108 0 l 108 972 l 442 972 q 643 882 575 972 q 711 653 711 792 q 663 407 711 482 q 599 339 638 368 l 713 0 m 235 417 l 422 417 q 533 460 501 417 q 572 549 568 508 q 579 653 579 599 q 534 803 579 761 q 403 846 489 846 l 235 846 l 235 417 m 592 1215 l 394 1019 l 189 1215 l 267 1269 l 393 1143 l 513 1269 l 592 1215 z "},"ř":{"ha":563,"x_min":108,"x_max":511,"o":"m 236 675 q 379 707 299 707 q 485 692 404 707 l 454 571 q 381 589 417 589 q 311 578 344 589 q 238 481 238 550 l 238 0 l 111 0 l 111 696 l 231 696 l 236 675 m 511 1017 l 314 821 l 108 1017 l 186 1071 l 313 944 l 432 1071 l 511 1017 z "},"Ś":{"ha":779,"x_min":51,"x_max":711,"o":"m 51 247 l 186 263 q 244 153 193 197 q 383 108 296 108 q 521 150 469 108 q 572 252 572 192 q 545 353 572 313 q 474 418 518 393 q 376 464 429 443 q 271 508 324 485 q 174 558 218 531 q 75 746 75 622 q 156 915 75 843 q 389 986 238 986 q 592 944 504 986 l 586 925 q 569 876 579 907 q 551 825 558 846 q 385 858 469 858 q 256 826 301 858 q 211 742 211 793 q 265 656 211 692 q 392 592 319 621 q 538 528 465 564 q 660 426 610 493 q 711 268 711 360 q 629 64 711 143 q 388 -15 547 -15 q 141 65 228 -15 q 51 247 54 144 m 419 1019 l 332 1019 l 399 1174 q 461 1215 415 1215 q 481 1211 471 1215 q 514 1170 514 1197 q 497 1121 514 1143 l 419 1019 z "},"ś":{"ha":668,"x_min":108,"x_max":617,"o":"m 108 176 l 233 186 q 272 123 236 149 q 363 97 308 97 q 451 123 417 97 q 485 190 485 149 q 450 260 485 232 q 365 303 415 288 q 263 339 314 319 q 172 400 211 358 q 124 521 124 450 q 180 652 124 592 q 363 713 236 713 q 446 702 407 713 q 501 682 485 692 l 518 672 l 481 558 q 372 592 442 592 q 281 569 303 592 q 260 518 260 547 q 301 458 260 481 q 393 419 342 436 q 495 378 444 401 q 581 306 546 354 q 617 178 617 257 q 553 40 617 100 q 369 -21 490 -21 q 179 36 247 -21 q 108 176 111 93 m 399 747 l 311 747 l 378 901 q 440 943 394 943 q 460 939 450 943 q 493 898 493 925 q 476 849 493 871 l 399 747 z "},"Ŝ":{"ha":779,"x_min":51,"x_max":711,"o":"m 51 247 l 186 263 q 244 153 193 197 q 383 108 296 108 q 521 150 469 108 q 572 252 572 192 q 545 353 572 313 q 474 418 518 393 q 376 464 429 443 q 271 508 324 485 q 174 558 218 531 q 75 746 75 622 q 156 915 75 843 q 389 986 238 986 q 592 944 504 986 l 586 925 q 569 876 579 907 q 551 825 558 846 q 385 858 469 858 q 256 826 301 858 q 211 742 211 793 q 265 656 211 692 q 392 592 319 621 q 538 528 465 564 q 660 426 610 493 q 711 268 711 360 q 629 64 711 143 q 388 -15 547 -15 q 141 65 228 -15 q 51 247 54 144 m 576 1071 l 497 1017 l 378 1142 l 251 1017 l 174 1071 l 379 1267 l 576 1071 z "},"ŝ":{"ha":668,"x_min":108,"x_max":617,"o":"m 567 804 l 488 750 l 368 875 l 242 750 l 164 804 l 369 1000 l 567 804 m 108 176 l 233 186 q 272 123 236 149 q 363 97 308 97 q 451 123 417 97 q 485 190 485 149 q 450 260 485 232 q 365 303 415 288 q 263 339 314 319 q 172 400 211 358 q 124 521 124 450 q 180 652 124 592 q 363 713 236 713 q 446 702 407 713 q 501 682 485 692 l 518 672 l 481 558 q 372 592 442 592 q 281 569 303 592 q 260 518 260 547 q 301 458 260 481 q 393 419 342 436 q 495 378 444 401 q 581 306 546 354 q 617 178 617 257 q 553 40 617 100 q 369 -21 490 -21 q 179 36 247 -21 q 108 176 111 93 z "},"ş":{"ha":599,"x_min":50,"x_max":558,"o":"m 143 -283 l 186 -192 q 283 -226 238 -226 q 378 -169 378 -226 q 350 -129 378 -139 q 324 -126 342 -126 q 274 -140 307 -126 l 217 -167 l 176 -108 l 247 -17 q 104 51 156 -3 q 50 176 53 104 l 175 186 q 214 123 178 149 q 304 97 250 97 q 392 123 358 97 q 426 190 426 149 q 392 260 426 232 q 306 303 357 288 q 204 339 256 319 q 114 400 153 358 q 65 521 65 450 q 122 652 65 592 q 304 713 178 713 q 388 702 349 713 q 443 682 426 692 l 460 672 l 422 558 q 314 592 383 592 q 223 569 244 592 q 201 518 201 547 q 242 458 201 481 q 335 419 283 436 q 437 378 386 401 q 523 306 488 354 q 558 181 558 257 q 501 45 558 104 q 331 -19 443 -14 l 301 -61 q 360 -51 324 -51 q 432 -83 397 -51 q 467 -178 467 -114 q 409 -277 467 -243 q 285 -311 351 -311 q 143 -283 219 -311 z "},"Š":{"ha":779,"x_min":51,"x_max":711,"o":"m 51 247 l 186 263 q 244 153 193 197 q 383 108 296 108 q 521 150 469 108 q 572 252 572 192 q 545 353 572 313 q 474 418 518 393 q 376 464 429 443 q 271 508 324 485 q 174 558 218 531 q 75 746 75 622 q 156 915 75 843 q 389 986 238 986 q 592 944 504 986 l 586 925 q 569 876 579 907 q 551 825 558 846 q 385 858 469 858 q 256 826 301 858 q 211 742 211 793 q 265 656 211 692 q 392 592 319 621 q 538 528 465 564 q 660 426 610 493 q 711 268 711 360 q 629 64 711 143 q 388 -15 547 -15 q 141 65 228 -15 q 51 247 54 144 m 615 1283 l 418 1088 l 213 1283 l 290 1338 l 417 1211 l 536 1338 l 615 1283 z "},"š":{"ha":668,"x_min":108,"x_max":617,"o":"m 108 176 l 233 186 q 272 123 236 149 q 363 97 308 97 q 451 123 417 97 q 485 190 485 149 q 450 260 485 232 q 365 303 415 288 q 263 339 314 319 q 172 400 211 358 q 124 521 124 450 q 180 652 124 592 q 363 713 236 713 q 446 702 407 713 q 501 682 485 692 l 518 672 l 481 558 q 372 592 442 592 q 281 569 303 592 q 260 518 260 547 q 301 458 260 481 q 393 419 342 436 q 495 378 444 401 q 581 306 546 354 q 617 178 617 257 q 553 40 617 100 q 369 -21 490 -21 q 179 36 247 -21 q 108 176 111 93 m 561 1015 l 364 819 l 158 1015 l 236 1069 l 363 943 l 482 1069 l 561 1015 z "},"Ţ":{"ha":558,"x_min":0,"x_max":558,"o":"m 339 0 l 213 0 l 213 847 l 0 847 l 0 972 l 558 972 l 558 847 l 339 847 l 339 0 m 247 -286 l 165 -246 q 261 -174 226 -211 l 246 -169 q 210 -115 210 -149 q 229 -63 211 -81 q 274 -46 247 -46 q 322 -71 306 -46 q 339 -124 339 -96 q 247 -286 339 -206 z "},"ţ":{"ha":379,"x_min":60,"x_max":347,"o":"m 301 82 l 264 -18 q 75 183 75 -1 l 75 972 l 203 972 l 203 696 l 347 696 l 314 576 l 203 576 l 203 183 q 301 82 203 96 m 142 -286 l 60 -246 q 156 -174 121 -211 l 140 -169 q 105 -115 104 -149 q 124 -63 106 -81 q 168 -46 142 -46 q 217 -71 200 -46 q 233 -124 233 -96 q 142 -286 233 -206 z "},"Ť":{"ha":558,"x_min":0,"x_max":558,"o":"m 339 0 l 213 0 l 213 847 l 0 847 l 0 972 l 558 972 l 558 847 l 339 847 l 339 0 m 479 1215 l 282 1019 l 76 1215 l 154 1269 l 281 1143 l 400 1269 l 479 1215 z "},"ť":{"ha":497,"x_min":61,"x_max":464,"o":"m 393 82 l 356 -18 q 167 183 167 -1 l 167 972 l 294 972 l 294 696 l 439 696 l 406 576 l 294 576 l 294 183 q 393 82 294 96 m 464 1215 l 267 1019 l 61 1215 l 139 1269 l 265 1143 l 385 1269 l 464 1215 z "},"Ŧ":{"ha":558,"x_min":0,"x_max":558,"o":"m 339 0 l 213 0 l 213 847 l 0 847 l 0 972 l 558 972 l 558 847 l 339 847 l 339 0 m 426 1014 l 125 1014 l 125 1124 l 426 1124 l 426 1014 z "},"ŧ":{"ha":529,"x_min":108,"x_max":478,"o":"m 432 82 l 394 -18 q 206 183 206 -1 l 206 375 l 108 375 l 108 497 l 206 497 l 206 972 l 333 972 l 333 696 l 478 696 l 444 576 l 333 576 l 333 497 l 433 497 l 433 375 l 333 375 l 333 183 q 432 82 333 96 z "},"Ũ":{"ha":786,"x_min":103,"x_max":688,"o":"m 561 294 l 561 974 l 688 974 l 688 258 q 662 131 688 185 q 592 47 636 76 q 500 4 549 18 q 396 -10 451 -10 q 291 4 340 -10 q 198 47 242 18 q 128 131 154 76 q 103 258 103 185 l 103 974 l 229 974 l 229 294 q 395 113 229 113 q 561 294 561 113 m 499 1117 q 596 1165 553 1117 l 646 1088 q 513 1014 583 1014 q 456 1027 488 1014 q 389 1056 424 1040 q 319 1072 354 1072 q 214 1022 261 1072 l 167 1100 q 306 1174 232 1174 q 362 1161 331 1174 q 428 1133 393 1149 q 499 1117 464 1117 z "},"ũ":{"ha":678,"x_min":108,"x_max":626,"o":"m 626 0 l 507 0 l 503 31 q 369 -15 447 -15 q 108 239 108 -15 l 108 696 l 235 696 l 235 250 q 369 107 235 107 q 500 254 500 107 l 500 696 l 626 696 l 626 0 m 467 829 q 564 878 521 829 l 614 800 q 481 726 551 726 q 424 740 456 726 q 357 769 392 753 q 288 785 322 785 q 182 735 229 785 l 135 813 q 274 886 200 886 q 330 874 299 886 q 397 845 361 861 q 467 829 432 829 z "},"Ū":{"ha":786,"x_min":103,"x_max":688,"o":"m 561 294 l 561 974 l 688 974 l 688 258 q 662 131 688 185 q 592 47 636 76 q 500 4 549 18 q 396 -10 451 -10 q 291 4 340 -10 q 198 47 242 18 q 128 131 154 76 q 103 258 103 185 l 103 974 l 229 974 l 229 294 q 395 113 229 113 q 561 294 561 113 m 543 1014 l 242 1014 l 242 1124 l 543 1124 l 543 1014 z "},"ū":{"ha":678,"x_min":108,"x_max":626,"o":"m 626 0 l 507 0 l 503 31 q 369 -15 447 -15 q 108 239 108 -15 l 108 696 l 235 696 l 235 250 q 369 107 235 107 q 500 254 500 107 l 500 696 l 626 696 l 626 0 m 511 747 l 210 747 l 210 857 l 511 857 l 511 747 z "},"Ŭ":{"ha":786,"x_min":103,"x_max":688,"o":"m 561 294 l 561 974 l 688 974 l 688 258 q 662 131 688 185 q 592 47 636 76 q 500 4 549 18 q 396 -10 451 -10 q 291 4 340 -10 q 198 47 242 18 q 128 131 154 76 q 103 258 103 185 l 103 974 l 229 974 l 229 294 q 395 113 229 113 q 561 294 561 113 m 551 1169 l 551 1163 q 505 1051 551 1097 q 394 1006 458 1006 q 284 1051 331 1006 q 238 1163 238 1097 l 238 1169 l 335 1169 l 335 1163 q 351 1115 335 1132 q 394 1097 368 1097 q 438 1115 421 1097 q 456 1163 456 1133 l 456 1169 l 551 1169 z "},"ŭ":{"ha":678,"x_min":108,"x_max":626,"o":"m 532 907 l 532 900 q 485 790 532 836 q 375 743 439 743 q 265 790 311 743 q 218 900 218 836 l 218 907 l 315 907 l 315 900 q 332 852 315 869 q 375 835 349 835 q 419 853 401 835 q 436 900 436 871 l 436 907 l 532 907 m 626 0 l 507 0 l 503 31 q 369 -15 447 -15 q 108 239 108 -15 l 108 696 l 235 696 l 235 250 q 369 107 235 107 q 500 254 500 107 l 500 696 l 626 696 l 626 0 z "},"Ů":{"ha":786,"x_min":103,"x_max":688,"o":"m 561 294 l 561 974 l 688 974 l 688 258 q 662 131 688 185 q 592 47 636 76 q 500 4 549 18 q 396 -10 451 -10 q 291 4 340 -10 q 198 47 242 18 q 128 131 154 76 q 103 258 103 185 l 103 974 l 229 974 l 229 294 q 395 113 229 113 q 561 294 561 113 m 437 1027 q 445 1036 437 1027 q 454 1069 454 1044 q 437 1112 454 1094 q 394 1129 419 1129 q 352 1112 369 1129 q 335 1069 335 1094 q 352 1027 335 1044 q 394 1010 369 1010 q 437 1027 419 1010 m 501 963 q 479 940 501 963 q 394 918 457 918 q 288 963 332 918 q 243 1069 243 1007 q 288 1176 243 1132 q 394 1221 332 1221 q 501 1176 457 1221 q 546 1069 546 1132 q 501 963 546 1007 z "},"ů":{"ha":678,"x_min":108,"x_max":626,"o":"m 626 0 l 507 0 l 503 31 q 369 -15 447 -15 q 108 239 108 -15 l 108 696 l 235 696 l 235 250 q 369 107 235 107 q 500 254 500 107 l 500 696 l 626 696 l 626 0 m 417 776 q 426 784 417 776 q 435 818 435 793 q 417 860 435 843 q 375 878 400 878 q 333 860 350 878 q 315 818 315 843 q 333 776 315 793 q 375 758 350 758 q 417 776 400 758 m 482 711 q 460 689 482 711 q 375 667 438 667 q 268 711 313 667 q 224 818 224 756 q 268 925 224 881 q 375 969 313 969 q 482 925 438 969 q 526 818 526 881 q 482 711 526 756 z "},"Ű":{"ha":786,"x_min":103,"x_max":688,"o":"m 561 294 l 561 974 l 688 974 l 688 258 q 662 131 688 185 q 592 47 636 76 q 500 4 549 18 q 396 -10 451 -10 q 291 4 340 -10 q 198 47 242 18 q 128 131 154 76 q 103 258 103 185 l 103 974 l 229 974 l 229 294 q 395 113 229 113 q 561 294 561 113 m 526 1018 l 439 1018 l 506 1172 q 568 1214 522 1214 q 588 1210 578 1214 q 621 1169 621 1196 q 604 1119 621 1142 l 526 1018 m 344 1018 l 257 1018 l 324 1172 q 386 1214 340 1214 q 406 1210 396 1214 q 439 1169 439 1196 q 422 1119 439 1142 l 344 1018 z "},"ű":{"ha":678,"x_min":108,"x_max":626,"o":"m 626 0 l 507 0 l 503 31 q 369 -15 447 -15 q 108 239 108 -15 l 108 696 l 235 696 l 235 250 q 369 107 235 107 q 500 254 500 107 l 500 696 l 626 696 l 626 0 m 486 754 l 399 754 l 465 908 q 528 950 482 950 q 547 946 538 950 q 581 905 581 932 q 564 856 581 878 l 486 754 m 304 754 l 217 754 l 283 908 q 346 950 300 950 q 365 946 356 950 q 399 905 399 932 q 382 856 399 878 l 304 754 z "},"Ų":{"ha":786,"x_min":103,"x_max":688,"o":"m 443 -160 l 506 -226 q 360 -296 461 -296 q 278 -266 319 -296 q 236 -178 236 -236 q 236 -169 236 -174 q 354 -7 236 -86 q 174 67 246 3 q 103 258 103 131 l 103 974 l 229 974 l 229 294 q 395 113 229 113 q 561 294 561 113 l 561 974 l 688 974 l 688 258 q 620 70 688 135 q 450 -6 553 6 q 353 -101 382 -64 q 325 -165 325 -137 q 371 -211 325 -211 q 443 -160 417 -211 z "},"ų":{"ha":668,"x_min":50,"x_max":615,"o":"m 553 -160 l 615 -226 q 469 -296 571 -296 q 388 -266 429 -296 q 346 -178 346 -236 q 346 -169 346 -174 q 476 0 346 -82 l 449 0 l 444 31 q 311 -15 389 -15 q 50 239 50 -15 l 50 696 l 176 696 l 176 250 q 311 107 176 107 q 442 254 442 107 l 442 696 l 568 696 l 568 0 l 567 0 q 435 -168 433 -111 q 483 -211 438 -211 q 553 -160 528 -211 z "},"Ÿ":{"ha":767,"x_min":72,"x_max":689,"o":"m 503 -21 l 465 74 q 563 222 563 92 l 563 342 q 390 294 494 294 q 159 374 246 294 q 72 593 72 453 l 72 972 l 199 972 l 199 597 q 249 464 199 508 q 380 419 299 419 q 505 444 461 419 q 563 504 549 468 l 563 972 l 689 972 l 689 217 q 503 -21 689 0 m 322 1111 q 331 1103 322 1111 q 339 1071 339 1094 q 322 1031 339 1047 q 282 1015 306 1015 q 242 1031 258 1015 q 226 1071 226 1047 q 242 1111 226 1094 q 282 1128 258 1128 q 322 1111 306 1128 m 518 1032 q 510 1024 518 1032 q 478 1015 501 1015 q 438 1032 454 1015 q 421 1072 421 1049 q 438 1112 421 1094 q 478 1129 456 1129 q 518 1113 501 1129 q 535 1072 535 1096 q 518 1032 535 1049 z "},"Ź":{"ha":764,"x_min":43,"x_max":719,"o":"m 719 0 l 43 0 l 43 115 l 551 849 l 61 849 l 61 972 l 711 972 l 711 849 l 201 118 l 719 118 l 719 0 m 371 1090 l 283 1090 l 350 1244 q 413 1286 367 1286 q 432 1282 422 1286 q 465 1241 465 1268 q 449 1192 465 1214 l 371 1090 z "},"ź":{"ha":669,"x_min":108,"x_max":618,"o":"m 618 0 l 108 0 l 108 118 l 431 578 l 121 578 l 121 696 l 599 696 l 599 581 l 275 118 l 618 118 l 618 0 m 399 747 l 311 747 l 378 901 q 440 943 394 943 q 460 939 450 943 q 493 898 493 925 q 476 849 493 871 l 399 747 z "},"Ż":{"ha":764,"x_min":43,"x_max":719,"o":"m 719 0 l 43 0 l 43 115 l 551 849 l 61 849 l 61 972 l 711 972 l 711 849 l 201 118 l 719 118 l 719 0 m 468 1078 q 468 1065 468 1078 q 447 1030 468 1051 q 399 1008 426 1008 q 351 1030 372 1008 q 329 1078 329 1051 q 351 1126 329 1106 q 400 1147 372 1147 q 448 1126 428 1147 q 468 1078 468 1106 z "},"ż":{"ha":669,"x_min":108,"x_max":618,"o":"m 618 0 l 108 0 l 108 118 l 431 578 l 121 578 l 121 696 l 599 696 l 599 581 l 275 118 l 618 118 l 618 0 m 431 814 q 431 800 431 814 q 410 765 431 786 q 362 743 389 743 q 313 765 335 743 q 292 813 292 786 q 313 861 292 840 q 362 882 335 882 q 410 862 389 882 q 431 814 431 842 z "},"Ž":{"ha":764,"x_min":43,"x_max":719,"o":"m 719 0 l 43 0 l 43 115 l 551 849 l 61 849 l 61 972 l 711 972 l 711 849 l 201 118 l 719 118 l 719 0 m 615 1283 l 418 1088 l 213 1283 l 290 1338 l 417 1211 l 536 1338 l 615 1283 z "},"ž":{"ha":669,"x_min":108,"x_max":618,"o":"m 618 0 l 108 0 l 108 118 l 431 578 l 121 578 l 121 696 l 599 696 l 599 581 l 275 118 l 618 118 l 618 0 m 599 1015 l 401 819 l 196 1015 l 274 1069 l 400 943 l 519 1069 l 599 1015 z "},"Ș":{"ha":779,"x_min":51,"x_max":711,"o":"m 51 247 l 186 263 q 244 153 193 197 q 383 108 296 108 q 521 150 469 108 q 572 252 572 192 q 545 353 572 313 q 474 418 518 393 q 376 464 429 443 q 271 508 324 485 q 174 558 218 531 q 75 746 75 622 q 156 915 75 843 q 389 986 238 986 q 592 944 504 986 l 586 925 q 569 876 579 907 q 551 825 558 846 q 385 858 469 858 q 256 826 301 858 q 211 742 211 793 q 265 656 211 692 q 392 592 319 621 q 538 528 465 564 q 660 426 610 493 q 711 268 711 360 q 629 64 711 143 q 388 -15 547 -15 q 141 65 228 -15 q 51 247 54 144 m 356 -286 l 274 -246 q 369 -174 335 -211 l 354 -169 q 319 -115 318 -149 q 338 -63 319 -81 q 382 -46 356 -46 q 431 -71 414 -46 q 447 -124 447 -96 q 356 -286 447 -206 z "},"ș":{"ha":599,"x_min":50,"x_max":558,"o":"m 50 176 l 175 186 q 214 123 178 149 q 304 97 250 97 q 392 123 358 97 q 426 190 426 149 q 392 260 426 232 q 306 303 357 288 q 204 339 256 319 q 114 400 153 358 q 65 521 65 450 q 122 652 65 592 q 304 713 178 713 q 388 702 349 713 q 443 682 426 692 l 460 672 l 422 558 q 314 592 383 592 q 223 569 244 592 q 201 518 201 547 q 242 458 201 481 q 335 419 283 436 q 437 378 386 401 q 523 306 488 354 q 558 178 558 257 q 495 40 558 100 q 310 -21 432 -21 q 121 36 189 -21 q 50 176 53 93 m 272 -287 l 190 -247 q 286 -175 251 -212 l 271 -171 q 235 -116 235 -150 q 254 -65 236 -82 q 299 -47 272 -47 q 347 -72 331 -47 q 364 -125 364 -97 q 272 -287 364 -207 z "},"ˆ":{"ha":529,"x_min":64,"x_max":467,"o":"m 467 874 l 388 819 l 268 944 l 142 819 l 64 874 l 269 1069 l 467 874 z "},"ˇ":{"ha":529,"x_min":64,"x_max":467,"o":"m 467 1015 l 269 819 l 64 1015 l 142 1069 l 268 943 l 388 1069 l 467 1015 z "},"˘":{"ha":440,"x_min":64,"x_max":378,"o":"m 378 972 l 378 965 q 332 854 378 900 q 221 808 286 808 q 110 854 156 808 q 64 965 64 900 l 64 972 l 161 972 l 161 965 q 178 917 161 935 q 221 900 194 900 q 265 918 247 900 q 282 965 282 936 l 282 972 l 378 972 z "},"˙":{"ha":139,"x_min":0,"x_max":139,"o":"m 139 964 q 139 950 139 964 q 118 915 139 936 q 70 893 97 893 q 22 915 43 893 q 0 963 0 936 q 22 1011 0 990 q 70 1032 43 1032 q 118 1012 97 1032 q 139 964 139 992 z "},"˚":{"ha":308,"x_min":3,"x_max":306,"o":"m 197 877 q 205 886 197 877 q 214 919 214 894 q 197 962 214 944 q 154 979 179 979 q 112 962 129 979 q 94 919 94 944 q 112 877 94 894 q 154 860 129 860 q 197 877 179 860 m 261 813 q 239 790 261 813 q 154 768 217 768 q 47 813 92 768 q 3 919 3 857 q 47 1026 3 982 q 154 1071 92 1071 q 261 1026 217 1071 q 306 919 306 982 q 261 813 306 857 z "},"˛":{"ha":308,"x_min":99,"x_max":368,"o":"m 306 -156 l 368 -222 q 222 -292 324 -292 q 140 -262 182 -292 q 99 -174 99 -232 q 99 -165 99 -169 q 229 4 99 -78 l 319 4 q 188 -164 186 -107 q 235 -207 190 -207 q 306 -156 281 -207 z "},"˜":{"ha":639,"x_min":108,"x_max":588,"o":"m 440 919 q 538 968 494 919 l 588 890 q 454 817 525 817 q 397 830 429 817 q 331 859 365 843 q 261 875 296 875 q 156 825 203 875 l 108 903 q 247 976 174 976 q 303 964 272 976 q 370 935 335 951 q 440 919 406 919 z "},"˝":{"ha":369,"x_min":3,"x_max":367,"o":"m 272 790 l 185 790 l 251 944 q 314 986 268 986 q 333 982 324 986 q 367 941 367 968 q 350 892 367 914 l 272 790 m 90 789 l 3 789 l 69 943 q 132 985 86 985 q 151 981 142 985 q 185 940 185 967 q 168 890 185 913 l 90 789 z "},"΅":{"ha":468,"x_min":108,"x_max":417,"o":"m 186 936 q 179 929 186 936 q 154 922 172 922 q 122 936 136 922 q 108 968 108 950 q 122 1000 108 986 q 154 1014 136 1014 q 186 1000 172 1014 q 200 968 200 986 q 186 936 200 950 m 403 936 q 396 929 403 936 q 371 922 389 922 q 339 936 353 922 q 325 968 325 950 q 339 1000 325 986 q 371 1014 353 1014 q 403 1000 389 1014 q 417 968 417 986 q 403 936 417 950 m 304 1015 l 217 1015 l 283 1169 q 346 1211 300 1211 q 365 1207 356 1211 q 399 1166 399 1193 q 382 1117 399 1139 l 304 1015 z "},"Ά":{"ha":865,"x_min":111,"x_max":814,"o":"m 814 0 l 667 0 l 590 285 l 335 285 l 261 0 l 121 0 l 378 972 l 543 972 l 814 0 m 560 417 l 460 764 l 365 417 l 560 417 m 199 788 l 111 788 l 178 942 q 240 983 194 983 q 260 979 250 983 q 293 938 293 965 q 276 889 293 911 l 199 788 z "},"Έ":{"ha":856,"x_min":108,"x_max":804,"o":"m 196 789 l 108 789 l 175 943 q 238 985 192 985 q 257 981 247 985 q 290 940 290 967 q 274 890 290 913 l 196 789 m 801 0 l 340 0 l 340 972 l 804 972 l 804 847 l 467 847 l 467 574 l 683 574 l 646 451 l 467 451 l 467 114 l 801 114 l 801 0 z "},"Ή":{"ha":992,"x_min":108,"x_max":940,"o":"m 196 789 l 108 789 l 175 943 q 238 985 192 985 q 257 981 247 985 q 290 940 290 967 q 274 890 290 913 l 196 789 m 940 0 l 815 0 l 815 451 l 469 451 l 469 0 l 343 0 l 343 972 l 469 972 l 469 574 l 815 574 l 815 972 l 940 972 l 940 0 z "},"Ί":{"ha":593,"x_min":108,"x_max":543,"o":"m 543 0 l 415 0 l 415 850 l 328 853 l 328 972 l 543 972 l 543 0 m 196 789 l 108 789 l 175 943 q 238 985 192 985 q 257 981 247 985 q 290 940 290 967 q 274 890 290 913 l 196 789 z "},"Ό":{"ha":906,"x_min":108,"x_max":854,"o":"m 854 703 l 854 257 q 769 51 854 117 q 564 -15 683 -15 q 358 51 444 -15 q 271 257 271 117 l 271 704 q 349 921 271 847 q 565 994 428 994 q 778 917 703 994 q 854 703 854 839 m 728 276 l 728 675 q 690 814 728 767 q 563 861 651 861 q 435 815 474 861 q 397 676 397 768 l 397 275 q 441 154 397 197 q 561 111 485 111 q 683 155 638 111 q 728 276 728 199 m 196 789 l 108 789 l 175 943 q 238 985 192 985 q 257 981 247 985 q 290 940 290 967 q 274 890 290 913 l 196 789 z "},"Ύ":{"ha":997,"x_min":108,"x_max":946,"o":"m 196 789 l 108 789 l 175 943 q 238 985 192 985 q 257 981 247 985 q 290 940 290 967 q 274 890 290 913 l 196 789 m 760 -21 l 722 74 q 819 222 819 92 l 819 342 q 647 294 751 294 q 416 374 503 294 q 329 593 329 453 l 329 972 l 456 972 l 456 597 q 506 464 456 508 q 637 419 556 419 q 762 444 718 419 q 819 504 806 468 l 819 972 l 946 972 l 946 217 q 760 -21 946 0 z "},"Ώ":{"ha":1004,"x_min":108,"x_max":953,"o":"m 953 0 l 636 0 l 636 115 q 713 126 678 115 q 758 147 747 136 q 783 172 769 157 q 808 272 808 204 l 808 672 q 769 804 808 757 q 660 851 729 851 l 536 851 q 382 672 382 851 l 382 271 q 450 136 382 167 q 556 115 501 115 l 556 0 l 239 0 l 263 115 l 310 115 q 257 272 257 171 l 257 699 q 322 904 257 826 q 518 982 388 982 l 674 982 q 869 904 804 982 q 935 699 935 826 l 935 272 q 928 208 935 226 q 920 180 922 189 q 910 158 918 171 q 901 142 903 146 q 889 128 899 139 l 879 115 l 929 115 l 953 0 m 196 789 l 108 789 l 175 943 q 238 985 192 985 q 257 981 247 985 q 290 940 290 967 q 274 890 290 913 l 196 789 z "},"ΐ":{"ha":546,"x_min":108,"x_max":496,"o":"m 361 0 l 235 0 l 235 696 l 361 696 l 361 0 m 336 800 l 249 800 l 315 954 q 378 996 332 996 q 397 992 388 996 q 431 951 431 978 q 414 901 431 925 l 336 800 m 439 865 q 451 865 439 865 q 479 849 463 865 q 496 809 496 832 q 479 769 496 786 q 439 753 463 753 q 399 769 415 753 q 382 808 382 785 q 399 849 382 832 q 439 865 415 865 m 204 849 q 213 840 204 849 q 221 808 221 832 q 204 769 221 785 q 165 753 188 753 q 125 769 142 753 q 108 809 108 786 q 125 849 108 832 q 165 865 142 865 q 204 849 188 865 z "},"Α":{"ha":726,"x_min":25,"x_max":718,"o":"m 718 0 l 571 0 l 494 285 l 239 285 l 165 0 l 25 0 l 282 972 l 447 972 l 718 0 m 464 417 l 364 764 l 269 417 l 464 417 z "},"Β":{"ha":761,"x_min":108,"x_max":710,"o":"m 418 0 l 108 0 l 108 972 l 400 972 q 587 910 514 972 q 660 724 660 847 q 568 538 660 600 q 567 535 567 536 l 567 533 q 669 444 628 506 q 710 286 710 382 q 649 94 710 176 q 558 26 617 51 q 418 0 499 0 m 235 574 l 357 574 q 515 714 515 574 q 476 818 515 789 q 364 847 438 847 l 235 847 l 235 574 m 235 117 l 374 117 q 517 152 468 117 q 567 282 567 188 q 517 414 567 376 q 390 451 467 451 l 235 451 l 235 117 z "},"Γ":{"ha":624,"x_min":108,"x_max":572,"o":"m 236 0 l 108 0 l 108 972 l 572 972 l 572 847 l 236 847 l 236 0 z "},"Δ":{"ha":735,"x_min":25,"x_max":726,"o":"m 726 0 l 25 0 l 306 972 l 431 972 l 726 0 m 554 115 l 372 733 l 196 115 l 554 115 z "},"Ε":{"ha":624,"x_min":108,"x_max":572,"o":"m 569 0 l 108 0 l 108 972 l 572 972 l 572 847 l 235 847 l 235 574 l 451 574 l 414 451 l 235 451 l 235 114 l 569 114 l 569 0 z "},"Ζ":{"ha":836,"x_min":108,"x_max":785,"o":"m 785 0 l 108 0 l 108 115 l 617 849 l 126 849 l 126 972 l 776 972 l 776 849 l 267 118 l 785 118 l 785 0 z "},"Η":{"ha":807,"x_min":111,"x_max":708,"o":"m 708 0 l 583 0 l 583 451 l 238 451 l 238 0 l 111 0 l 111 972 l 238 972 l 238 574 l 583 574 l 583 972 l 708 972 l 708 0 z "},"Θ":{"ha":774,"x_min":139,"x_max":722,"o":"m 722 703 l 722 257 q 637 51 722 117 q 432 -15 551 -15 q 226 51 313 -15 q 139 257 139 117 l 139 704 q 217 921 139 847 q 433 994 296 994 q 647 917 571 994 q 722 703 722 839 m 596 542 l 596 675 q 558 814 596 767 q 431 861 519 861 q 303 815 342 861 q 265 676 265 768 l 265 542 l 596 542 m 596 276 l 596 425 l 265 425 l 265 275 q 309 154 265 197 q 429 111 353 111 q 551 155 506 111 q 596 276 596 199 z "},"Ι":{"ha":425,"x_min":111,"x_max":326,"o":"m 326 0 l 199 0 l 199 850 l 111 853 l 111 972 l 326 972 l 326 0 z "},"Κ":{"ha":760,"x_min":108,"x_max":708,"o":"m 708 0 l 553 0 l 272 418 l 242 372 l 242 0 l 108 0 l 108 974 l 242 974 l 242 593 l 497 974 l 649 974 l 347 533 l 708 0 z "},"Λ":{"ha":735,"x_min":25,"x_max":726,"o":"m 726 0 l 583 0 l 372 708 l 165 0 l 25 0 l 314 972 l 432 972 l 726 0 z "},"Μ":{"ha":954,"x_min":111,"x_max":856,"o":"m 856 0 l 729 0 l 729 594 l 535 0 l 429 0 l 238 593 l 238 0 l 111 0 l 111 972 l 238 972 l 482 256 l 729 972 l 856 972 l 856 0 z "},"Ν":{"ha":893,"x_min":111,"x_max":794,"o":"m 794 0 l 667 0 l 238 717 l 238 0 l 111 0 l 111 972 l 238 972 l 667 258 l 667 972 l 794 972 l 794 0 z "},"Ξ":{"ha":867,"x_min":108,"x_max":815,"o":"m 651 451 l 285 451 l 285 574 l 651 574 l 651 451 m 732 849 l 329 849 q 199 774 225 849 l 108 826 q 179 939 131 904 q 310 974 228 974 l 761 974 l 732 849 m 614 0 l 163 0 l 200 117 l 578 117 q 663 135 632 117 q 711 201 694 154 l 815 147 q 744 35 793 69 q 614 0 696 0 z "},"Ο":{"ha":754,"x_min":86,"x_max":669,"o":"m 669 703 l 669 257 q 584 51 669 117 q 379 -15 499 -15 q 173 51 260 -15 q 86 257 86 117 l 86 704 q 165 921 86 847 q 381 994 243 994 q 594 917 518 994 q 669 703 669 839 m 543 276 l 543 675 q 505 814 543 767 q 378 861 467 861 q 251 815 289 861 q 213 676 213 768 l 213 275 q 256 154 213 197 q 376 111 300 111 q 498 155 453 111 q 543 276 543 199 z "},"Π":{"ha":807,"x_min":111,"x_max":708,"o":"m 708 0 l 582 0 l 582 846 l 238 846 l 238 0 l 111 0 l 111 972 l 708 972 l 708 0 z "},"Ρ":{"ha":763,"x_min":108,"x_max":711,"o":"m 235 417 l 415 417 q 525 447 478 417 q 572 524 549 463 q 585 588 585 553 q 585 653 585 588 q 540 804 585 761 q 410 847 496 847 l 235 847 l 235 417 m 235 0 l 108 0 l 108 972 l 433 972 q 642 883 574 972 q 711 654 711 794 q 446 294 711 294 l 235 294 l 235 0 z "},"Σ":{"ha":810,"x_min":108,"x_max":758,"o":"m 557 0 l 108 0 l 422 533 l 131 975 l 725 975 l 686 849 l 363 849 l 572 538 l 322 115 l 526 115 q 608 134 579 115 q 653 201 636 153 l 758 147 q 688 35 736 69 q 557 0 639 0 z "},"Τ":{"ha":718,"x_min":108,"x_max":667,"o":"m 447 0 l 321 0 l 321 847 l 108 847 l 108 972 l 667 972 l 667 847 l 447 847 l 447 0 z "},"Υ":{"ha":772,"x_min":83,"x_max":700,"o":"m 514 -21 l 476 74 q 574 222 574 92 l 574 342 q 401 294 506 294 q 170 374 257 294 q 83 593 83 453 l 83 972 l 210 972 l 210 597 q 260 464 210 508 q 391 419 310 419 q 516 444 472 419 q 574 504 560 468 l 574 972 l 700 972 l 700 217 q 514 -21 700 0 z "},"Φ":{"ha":892,"x_min":108,"x_max":840,"o":"m 535 -49 l 407 -31 l 407 28 l 369 28 q 108 313 108 28 l 108 718 q 269 981 108 929 l 336 883 q 259 833 283 865 q 235 718 235 800 l 235 331 q 265 180 235 229 q 369 131 294 131 l 407 131 l 407 840 q 462 948 411 908 q 581 988 513 988 q 771 912 701 988 q 840 710 840 836 l 840 313 q 579 28 840 28 l 535 28 l 535 -49 m 535 131 l 579 131 q 683 179 654 131 q 713 331 713 228 l 713 663 q 603 863 713 863 q 555 848 571 863 q 537 820 539 833 q 535 782 535 807 l 535 131 z "},"Χ":{"ha":926,"x_min":108,"x_max":875,"o":"m 875 0 l 715 0 l 488 363 l 265 0 l 108 0 l 413 488 l 128 972 l 276 972 l 493 619 l 704 972 l 853 972 l 569 496 l 875 0 z "},"Ψ":{"ha":878,"x_min":78,"x_max":810,"o":"m 504 0 l 379 0 l 378 294 l 339 294 q 142 366 207 294 q 78 564 78 438 l 78 972 l 204 972 l 204 590 q 233 448 204 490 q 339 406 263 406 l 378 406 l 378 972 l 504 972 l 504 406 l 549 406 q 655 449 625 406 q 685 593 685 493 l 685 783 q 679 857 685 838 q 672 885 674 876 q 661 903 669 893 q 650 915 653 913 q 635 927 647 918 q 621 939 624 936 l 732 985 q 788 920 769 961 q 808 850 806 879 q 810 763 810 821 l 810 564 q 745 366 810 438 q 549 294 681 294 l 504 294 l 504 0 z "},"Ϊ":{"ha":525,"x_min":118,"x_max":426,"o":"m 214 1111 q 222 1103 214 1111 q 231 1071 231 1094 q 214 1031 231 1047 q 174 1015 197 1015 q 134 1031 150 1015 q 118 1071 118 1047 q 134 1111 118 1094 q 174 1128 150 1128 q 214 1111 197 1128 m 410 1032 q 401 1024 410 1032 q 369 1015 393 1015 q 329 1032 346 1015 q 313 1072 313 1049 q 330 1112 313 1094 q 370 1129 347 1129 q 410 1113 393 1129 q 426 1072 426 1096 q 410 1032 426 1049 m 335 0 l 207 0 l 207 850 l 119 853 l 119 972 l 335 972 l 335 0 z "},"Ϋ":{"ha":714,"x_min":7,"x_max":663,"o":"m 268 1108 q 276 1100 268 1108 q 285 1068 285 1092 q 268 1028 285 1044 q 228 1013 251 1013 q 189 1028 206 1013 q 172 1068 172 1044 q 188 1108 172 1092 q 228 1125 204 1125 q 268 1108 251 1125 m 464 1029 q 456 1021 464 1029 q 424 1013 447 1013 q 383 1029 400 1013 q 367 1069 367 1046 q 383 1109 367 1092 q 424 1126 400 1126 q 464 1110 447 1126 q 481 1069 481 1093 q 464 1029 481 1046 m 399 0 l 271 0 l 271 450 l 7 972 l 142 972 l 333 589 l 526 972 l 663 972 l 399 450 l 399 0 z "},"ά":{"ha":708,"x_min":108,"x_max":657,"o":"m 313 703 q 497 665 408 703 l 514 708 l 625 675 q 615 540 615 585 l 615 107 q 657 49 624 68 l 543 1 q 526 5 539 0 q 511 10 514 10 q 383 -12 431 -12 q 292 -6 336 -12 q 206 24 247 0 q 136 102 164 49 q 108 235 108 156 l 108 492 q 151 640 108 588 q 260 700 194 693 q 313 703 288 703 m 488 549 q 328 586 404 586 q 260 562 286 586 q 235 488 235 538 l 235 269 q 289 129 235 169 q 369 108 318 108 q 488 125 419 108 l 488 549 m 417 747 l 329 747 l 396 901 q 458 943 413 943 q 478 939 468 943 q 511 898 511 925 q 494 849 511 871 l 417 747 z "},"έ":{"ha":639,"x_min":108,"x_max":588,"o":"m 400 747 l 313 747 l 379 901 q 442 943 396 943 q 461 939 451 943 q 494 898 494 925 q 478 849 494 871 l 400 747 m 368 597 q 261 508 261 597 q 294 444 261 469 q 383 418 328 418 l 489 418 l 451 296 l 364 296 q 235 211 235 296 q 271 138 235 163 q 371 113 307 113 q 529 143 464 113 l 550 153 l 588 32 q 362 -15 479 -15 q 181 42 244 -15 q 108 208 108 106 q 203 385 108 333 q 154 448 174 406 q 135 517 135 490 q 138 557 135 543 q 208 671 147 632 q 339 710 268 710 q 490 689 413 710 l 493 575 q 368 597 428 597 z "},"ή":{"ha":672,"x_min":108,"x_max":621,"o":"m 433 747 l 346 747 l 413 901 q 475 943 429 943 q 494 939 485 943 q 528 898 528 925 q 511 849 528 871 l 433 747 m 232 675 q 363 707 282 707 q 503 682 444 707 q 621 481 621 628 l 621 -292 l 496 -258 l 496 476 q 458 566 496 538 q 361 594 419 594 q 233 556 303 594 l 233 0 l 108 0 l 108 696 l 226 696 l 232 675 z "},"ί":{"ha":367,"x_min":108,"x_max":315,"o":"m 221 747 l 133 747 l 200 901 q 263 943 217 943 q 282 939 272 943 q 315 898 315 925 q 299 849 315 871 l 221 747 m 235 0 l 108 0 l 108 696 l 235 696 l 235 0 z "},"ΰ":{"ha":688,"x_min":108,"x_max":636,"o":"m 278 848 q 287 839 278 848 q 296 808 296 831 q 279 769 296 786 q 240 753 263 753 q 200 769 217 753 q 183 809 183 786 q 200 849 183 832 q 239 865 217 865 q 278 848 261 865 m 569 809 q 569 798 569 809 q 553 769 569 786 q 513 753 536 753 q 474 769 490 753 q 457 808 457 785 q 474 849 457 832 q 514 865 490 865 q 553 849 538 865 q 569 809 569 832 m 411 800 l 324 800 l 390 954 q 453 996 407 996 q 472 992 463 996 q 506 951 506 978 q 489 901 506 925 l 411 800 m 510 285 l 510 696 l 636 696 l 636 239 q 372 -14 636 -14 q 108 239 108 -14 l 108 696 l 235 696 l 235 283 q 263 149 235 188 q 372 111 292 111 q 481 150 451 111 q 510 285 510 189 z "},"α":{"ha":708,"x_min":108,"x_max":657,"o":"m 313 703 q 497 665 408 703 l 514 708 l 625 675 q 615 540 615 585 l 615 107 q 657 49 624 68 l 543 1 q 526 5 539 0 q 511 10 514 10 q 383 -12 431 -12 q 292 -6 336 -12 q 206 24 247 0 q 136 102 164 49 q 108 235 108 156 l 108 492 q 151 640 108 588 q 260 700 194 693 q 313 703 288 703 m 488 549 q 328 586 404 586 q 260 562 286 586 q 235 488 235 538 l 235 269 q 289 129 235 169 q 369 108 318 108 q 488 125 419 108 l 488 549 z "},"β":{"ha":674,"x_min":108,"x_max":622,"o":"m 399 -23 q 372 -24 399 -23 q 323 -25 346 -25 q 233 -21 300 -25 l 233 -224 l 108 -224 l 108 746 q 163 912 108 850 q 317 974 217 974 q 429 942 381 974 q 511 790 511 886 q 464 678 511 721 q 576 603 531 658 q 622 458 622 549 l 622 203 q 514 8 622 60 q 399 -23 451 -21 m 233 111 q 372 99 317 99 q 463 135 428 99 q 497 251 497 172 l 497 426 q 473 524 497 488 q 419 566 449 560 q 367 572 389 572 q 233 539 303 572 l 233 111 m 233 736 l 233 664 q 332 701 275 685 q 388 775 388 719 q 370 822 388 797 q 310 847 353 847 q 251 819 268 847 q 233 736 233 792 z "},"γ":{"ha":665,"x_min":17,"x_max":679,"o":"m 372 -65 q 350 -181 350 -128 q 371 -232 350 -197 l 265 -275 q 224 -158 224 -235 q 236 -83 224 -119 l 268 17 q 253 28 267 18 q 238 42 240 39 q 223 60 235 46 q 204 88 211 74 q 167 179 181 133 l 17 696 l 151 696 l 251 310 q 313 165 285 183 l 429 550 q 491 664 451 624 q 599 719 531 704 l 679 644 q 572 567 603 619 q 542 496 556 539 l 372 -65 z "},"δ":{"ha":678,"x_min":108,"x_max":626,"o":"m 254 683 q 200 803 200 735 q 253 926 200 872 q 407 979 306 979 l 478 979 l 449 850 l 394 850 q 353 835 368 850 q 339 807 339 819 q 391 725 339 761 q 465 673 443 689 q 527 622 488 657 q 583 558 567 586 q 626 400 626 485 l 626 256 q 369 -14 626 -14 q 173 58 238 -14 q 108 256 108 129 l 108 431 q 149 600 108 536 q 254 683 190 664 m 501 246 l 501 378 q 363 593 501 519 q 259 539 285 586 q 233 410 233 492 l 233 246 q 273 142 233 178 q 369 107 313 107 q 463 139 425 107 q 501 246 501 171 z "},"ε":{"ha":639,"x_min":108,"x_max":588,"o":"m 368 597 q 261 508 261 597 q 294 444 261 469 q 383 418 328 418 l 489 418 l 451 296 l 364 296 q 235 211 235 296 q 271 138 235 163 q 371 113 307 113 q 529 143 464 113 l 550 153 l 588 32 q 362 -15 479 -15 q 181 42 244 -15 q 108 208 108 106 q 203 385 108 333 q 154 448 174 406 q 135 517 135 490 q 138 557 135 543 q 208 671 147 632 q 339 710 268 710 q 490 689 413 710 l 493 575 q 368 597 428 597 z "},"ζ":{"ha":682,"x_min":108,"x_max":631,"o":"m 565 -254 l 439 -290 l 439 4 q 369 -1 403 -1 q 219 36 283 -1 q 108 246 108 103 q 158 467 108 363 q 442 850 247 653 l 203 850 l 203 972 l 581 972 l 631 858 q 311 474 451 717 q 242 261 242 351 q 280 157 242 196 q 394 118 318 118 q 565 143 471 118 l 565 -254 z "},"η":{"ha":672,"x_min":108,"x_max":621,"o":"m 232 675 q 363 707 282 707 q 503 682 444 707 q 621 481 621 628 l 621 -292 l 496 -258 l 496 476 q 458 566 496 538 q 361 594 419 594 q 233 556 303 594 l 233 0 l 108 0 l 108 696 l 226 696 l 232 675 z "},"θ":{"ha":699,"x_min":86,"x_max":614,"o":"m 614 701 l 614 265 q 545 67 614 142 q 349 -8 476 -8 q 154 67 222 -7 q 86 265 86 142 l 86 474 q 160 608 89 563 q 113 781 113 700 q 178 928 113 871 q 347 986 243 986 q 547 908 479 983 q 614 701 614 833 m 489 265 l 489 581 q 297 538 382 576 q 211 446 211 500 l 211 257 q 239 171 211 206 q 349 125 278 125 l 392 129 q 460 174 432 138 q 489 265 489 211 m 274 663 q 467 703 374 703 q 489 703 478 703 q 451 824 489 785 q 353 864 414 864 q 247 804 269 864 q 239 764 239 785 q 274 663 239 718 z "},"ι":{"ha":269,"x_min":92,"x_max":218,"o":"m 218 0 l 92 0 l 92 696 l 218 696 l 218 0 z "},"κ":{"ha":703,"x_min":108,"x_max":651,"o":"m 651 110 l 622 -1 q 532 24 574 -1 q 469 75 490 50 q 408 153 447 100 l 286 321 l 235 272 l 235 0 l 108 0 l 108 711 l 235 693 l 235 433 l 475 696 l 633 696 l 378 415 l 529 201 q 651 110 596 113 z "},"λ":{"ha":822,"x_min":108,"x_max":771,"o":"m 771 51 l 690 -24 q 583 32 622 -8 q 521 146 543 72 l 404 531 q 343 386 376 513 l 243 0 l 108 0 l 258 517 q 302 618 286 597 q 322 645 318 639 q 343 665 326 651 l 360 679 l 328 778 q 285 850 310 829 q 213 874 261 871 l 240 972 q 247 972 243 972 q 372 939 326 972 q 444 824 417 906 l 633 200 q 703 85 661 114 q 771 51 729 65 z "},"μ":{"ha":725,"x_min":108,"x_max":674,"o":"m 538 18 q 420 -17 499 -17 q 235 29 342 -17 l 235 -292 l 108 -279 l 108 696 l 235 696 l 235 151 q 297 122 246 140 q 396 103 347 103 q 508 250 508 103 l 508 690 l 636 708 l 636 96 q 674 38 640 57 l 571 -8 q 556 -2 567 -10 q 538 18 546 6 z "},"ν":{"ha":729,"x_min":108,"x_max":678,"o":"m 460 0 l 328 0 l 108 696 l 246 696 l 394 204 l 542 696 l 678 696 l 460 0 z "},"ξ":{"ha":579,"x_min":108,"x_max":528,"o":"m 233 253 q 256 159 233 193 q 313 119 279 125 q 388 113 346 113 q 528 142 431 113 l 528 -267 l 403 -303 l 403 -1 q 356 -4 381 -4 q 293 2 331 -4 q 210 32 256 8 q 136 106 164 56 q 108 228 108 156 l 108 483 q 160 635 108 576 q 269 704 211 693 q 226 811 226 747 q 307 953 226 901 q 417 983 354 983 l 479 983 l 450 851 l 418 851 q 356 796 356 851 q 397 728 356 756 q 497 686 421 711 l 461 578 q 358 596 401 596 q 233 456 233 596 l 233 253 z "},"ο":{"ha":678,"x_min":108,"x_max":626,"o":"m 626 439 l 626 256 q 563 63 626 139 q 369 -14 499 -14 q 174 63 240 -14 q 108 256 108 140 l 108 439 q 176 641 108 571 q 367 711 243 711 q 558 638 490 711 q 626 439 626 565 m 501 242 l 501 439 q 369 586 501 586 q 235 439 235 586 l 235 242 q 272 142 235 176 q 369 108 310 108 q 465 143 429 108 q 501 242 501 178 z "},"π":{"ha":710,"x_min":92,"x_max":658,"o":"m 658 69 l 586 -17 q 500 61 525 4 q 490 115 490 85 l 492 581 l 218 581 l 218 0 l 92 0 l 92 696 l 618 696 l 618 128 q 658 69 625 89 z "},"ρ":{"ha":678,"x_min":108,"x_max":626,"o":"m 233 -271 l 108 -293 l 108 438 q 176 633 108 561 q 373 704 244 704 q 564 630 501 704 q 626 426 626 556 l 626 239 q 562 51 626 117 q 369 -14 497 -14 q 233 25 279 -14 l 233 -271 m 499 254 l 499 421 q 465 550 499 514 q 367 586 431 586 q 235 422 235 586 l 235 254 q 369 107 235 107 q 467 142 436 107 q 499 254 499 176 z "},"ς":{"ha":592,"x_min":108,"x_max":540,"o":"m 503 -208 l 407 -154 q 426 -96 426 -132 q 375 -4 426 -36 q 304 40 321 29 q 261 69 288 51 q 225 97 235 88 q 194 124 215 106 q 164 156 172 143 q 142 188 156 168 q 122 226 128 208 q 108 315 108 281 l 108 510 q 166 642 108 583 q 347 701 224 701 q 431 692 392 701 q 486 674 469 683 l 503 664 l 469 554 q 353 588 424 588 q 260 555 283 588 q 236 461 236 522 l 236 350 q 254 248 236 286 q 311 177 272 210 q 449 82 350 144 q 522 -1 504 47 q 540 -76 540 -50 q 503 -208 540 -153 z "},"σ":{"ha":778,"x_min":108,"x_max":726,"o":"m 626 431 l 626 243 q 369 -26 626 -26 q 173 45 238 -26 q 108 243 108 117 l 108 492 q 134 605 108 558 q 201 672 160 651 q 344 707 269 707 l 397 701 q 476 694 443 694 q 532 699 508 694 q 636 754 586 708 l 726 688 q 670 620 708 650 q 590 579 632 590 q 626 431 626 536 m 456 576 q 340 589 386 589 q 265 558 293 589 q 236 464 236 528 l 236 258 q 368 104 236 104 q 467 140 436 104 q 499 258 499 176 l 499 417 q 488 505 499 465 q 469 560 478 544 q 456 576 460 576 z "},"τ":{"ha":578,"x_min":108,"x_max":526,"o":"m 465 65 l 415 -25 q 250 183 250 19 l 250 576 l 108 576 l 108 694 l 526 694 l 526 576 l 376 576 l 376 197 q 465 65 376 96 z "},"υ":{"ha":671,"x_min":92,"x_max":619,"o":"m 493 285 l 493 696 l 619 696 l 619 239 q 356 -14 619 -14 q 92 239 92 -14 l 92 696 l 218 696 l 218 283 q 247 149 218 188 q 355 111 275 111 q 464 150 435 111 q 493 285 493 189 z "},"φ":{"ha":892,"x_min":108,"x_max":840,"o":"m 536 -300 l 408 -282 l 408 -7 l 369 -7 q 173 65 238 -7 q 108 263 108 136 l 108 436 q 269 699 108 647 l 338 601 q 260 554 286 590 q 233 436 233 518 l 233 301 q 263 157 233 201 q 369 113 293 113 l 408 113 l 408 557 q 463 665 413 625 q 581 704 513 704 q 771 628 701 704 q 840 426 840 553 l 840 263 q 776 65 840 136 q 579 -7 711 -7 l 536 -7 l 536 -300 m 536 113 l 579 113 q 685 156 656 113 q 714 299 714 199 l 714 433 q 683 561 714 522 q 612 600 651 600 q 554 581 572 600 q 536 533 536 561 l 536 113 z "},"χ":{"ha":867,"x_min":108,"x_max":817,"o":"m 817 -210 l 756 -294 q 753 -294 754 -294 q 572 -161 640 -294 l 431 128 l 221 -283 l 108 -235 l 365 263 l 150 696 l 288 696 l 433 394 l 588 696 l 731 696 l 497 260 l 672 -100 q 817 -210 717 -201 z "},"ψ":{"ha":893,"x_min":108,"x_max":840,"o":"m 533 -304 l 407 -286 l 407 -7 l 369 -7 q 173 65 238 -7 q 108 263 108 136 l 108 694 l 233 694 l 233 304 q 263 158 233 204 q 369 113 293 113 l 407 113 l 407 694 l 533 694 l 533 113 l 579 113 q 685 158 656 113 q 715 304 715 204 l 715 501 q 708 577 715 558 q 699 606 701 596 q 687 626 696 615 q 674 640 678 636 q 659 652 671 643 q 644 664 647 661 l 763 703 q 818 638 800 679 q 838 568 836 597 q 840 481 840 539 l 840 263 q 776 65 840 136 q 579 -7 711 -7 l 533 -7 l 533 -304 z "},"ω":{"ha":882,"x_min":92,"x_max":831,"o":"m 704 263 l 704 454 q 682 562 704 525 q 613 617 660 599 l 682 694 q 831 440 831 639 l 831 261 q 607 -17 831 -17 q 461 57 510 -17 q 315 -17 410 -17 q 92 261 92 -17 l 92 440 q 240 694 92 639 l 311 617 q 218 454 218 582 l 218 263 q 311 111 218 111 q 375 142 357 111 q 396 253 393 174 l 396 415 l 524 415 l 524 253 q 544 142 525 174 q 611 111 564 111 q 704 263 704 111 z "},"ϊ":{"ha":386,"x_min":26,"x_max":335,"o":"m 244 0 l 118 0 l 118 696 l 244 696 l 244 0 m 122 844 q 131 836 122 844 q 139 804 139 828 q 122 765 139 781 q 82 749 106 749 q 42 765 58 749 q 26 804 26 781 q 42 844 26 828 q 82 861 58 861 q 122 844 106 861 m 318 765 q 310 757 318 765 q 278 749 301 749 q 238 765 254 749 q 221 805 221 782 q 238 845 221 828 q 278 863 256 863 q 318 846 301 863 q 335 806 335 829 q 318 765 335 782 z "},"ϋ":{"ha":688,"x_min":108,"x_max":636,"o":"m 319 844 q 328 836 319 844 q 336 804 336 828 q 319 765 336 781 q 279 749 303 749 q 240 765 256 749 q 224 804 224 781 q 240 844 224 828 q 279 861 256 861 q 319 844 303 861 m 515 765 q 507 757 515 765 q 475 749 499 749 q 435 765 451 749 q 418 805 418 782 q 435 845 418 828 q 476 863 453 863 q 515 846 499 863 q 532 806 532 829 q 515 765 532 782 m 510 285 l 510 696 l 636 696 l 636 239 q 372 -14 636 -14 q 108 239 108 -14 l 108 696 l 235 696 l 235 283 q 263 149 235 188 q 372 111 292 111 q 481 150 451 111 q 510 285 510 189 z "},"ό":{"ha":678,"x_min":108,"x_max":626,"o":"m 419 747 l 332 747 l 399 901 q 461 943 415 943 q 481 939 471 943 q 514 898 514 925 q 497 849 514 871 l 419 747 m 626 439 l 626 256 q 563 63 626 139 q 369 -14 499 -14 q 174 63 240 -14 q 108 256 108 140 l 108 439 q 176 641 108 571 q 367 711 243 711 q 558 638 490 711 q 626 439 626 565 m 501 242 l 501 439 q 369 586 501 586 q 235 439 235 586 l 235 242 q 272 142 235 176 q 369 108 310 108 q 465 143 429 108 q 501 242 501 178 z "},"ύ":{"ha":688,"x_min":108,"x_max":636,"o":"m 433 747 l 346 747 l 413 901 q 475 943 429 943 q 494 939 485 943 q 528 898 528 925 q 511 849 528 871 l 433 747 m 510 285 l 510 696 l 636 696 l 636 239 q 372 -14 636 -14 q 108 239 108 -14 l 108 696 l 235 696 l 235 283 q 263 149 235 188 q 372 111 292 111 q 481 150 451 111 q 510 285 510 189 z "},"ώ":{"ha":899,"x_min":108,"x_max":847,"o":"m 536 747 l 449 747 l 515 901 q 578 943 532 943 q 597 939 588 943 q 631 898 631 925 q 614 849 631 871 l 536 747 m 721 263 l 721 454 q 699 562 721 525 q 629 617 676 599 l 699 694 q 847 440 847 639 l 847 261 q 624 -17 847 -17 q 478 57 526 -17 q 332 -17 426 -17 q 108 261 108 -17 l 108 440 q 257 694 108 639 l 328 617 q 235 454 235 582 l 235 263 q 328 111 235 111 q 392 142 374 111 q 413 253 410 174 l 413 415 l 540 415 l 540 253 q 561 142 542 174 q 628 111 581 111 q 721 263 721 111 z "},"‘":{"ha":179,"x_min":4,"x_max":178,"o":"m 82 878 l 97 874 q 133 819 133 853 q 114 767 132 785 q 69 750 96 750 q 21 775 38 750 q 4 828 4 800 q 96 990 4 910 l 178 950 q 82 878 117 915 z "},"’":{"ha":179,"x_min":1,"x_max":175,"o":"m 83 746 l 1 786 q 97 858 63 821 l 82 863 q 47 917 46 883 q 65 969 47 951 q 110 986 83 986 q 158 961 142 986 q 175 908 175 936 q 83 746 175 826 z "},"‚":{"ha":238,"x_min":6,"x_max":179,"o":"m 88 -117 l 6 -76 q 101 -4 67 -42 l 86 0 q 51 55 50 21 q 69 106 51 89 q 114 124 88 124 q 163 99 146 124 q 179 46 179 74 q 88 -117 179 -36 z "},"“":{"ha":388,"x_min":4,"x_max":357,"o":"m 82 878 l 97 874 q 133 819 133 853 q 114 767 132 785 q 69 750 96 750 q 21 775 38 750 q 4 828 4 800 q 96 990 4 910 l 178 950 q 82 878 117 915 m 261 878 l 276 874 q 312 819 313 853 q 293 767 311 785 q 249 750 275 750 q 200 775 217 750 q 183 828 183 800 q 275 990 183 910 l 357 950 q 261 878 296 915 z "},"”":{"ha":388,"x_min":3,"x_max":356,"o":"m 264 749 l 182 789 q 278 861 243 824 l 263 865 q 227 920 226 886 q 246 972 228 954 q 290 989 264 989 q 339 964 322 989 q 356 911 356 939 q 264 749 356 829 m 85 749 l 3 789 q 99 861 64 824 l 83 865 q 48 920 47 886 q 67 972 49 954 q 111 989 85 989 q 160 964 143 989 q 176 911 176 939 q 85 749 176 829 z "},"„":{"ha":447,"x_min":79,"x_max":314,"o":"m 160 1 q 124 56 124 22 q 143 108 125 90 q 182 125 161 125 q 217 117 203 125 q 256 124 231 125 q 298 99 282 124 q 314 47 314 75 q 222 -115 314 -35 l 182 -96 q 161 -115 175 -101 l 79 -75 q 175 -3 140 -40 l 160 1 z "},"•":{"ha":656,"x_min":108,"x_max":604,"o":"m 531 292 q 495 256 531 292 q 356 219 458 219 q 181 292 253 219 q 108 468 108 365 q 181 643 108 571 q 356 715 253 715 q 531 643 458 715 q 604 468 604 571 q 531 292 604 365 z "},"…":{"ha":688,"x_min":6,"x_max":629,"o":"m 111 18 q 102 9 111 18 q 68 0 93 0 q 24 18 43 0 q 6 62 6 36 q 24 106 6 88 q 68 124 43 124 q 111 106 93 124 q 129 62 129 88 q 111 18 129 36 m 361 18 q 352 9 361 18 q 318 0 343 0 q 274 18 293 0 q 256 62 256 36 q 274 106 256 88 q 318 124 293 124 q 361 106 343 124 q 379 62 379 88 q 361 18 379 36 m 611 18 q 602 9 611 18 q 568 0 593 0 q 524 18 543 0 q 506 62 506 36 q 524 106 506 88 q 568 124 543 124 q 611 106 593 124 q 629 62 629 88 q 611 18 629 36 z "},"‰":{"ha":1457,"x_min":108,"x_max":1406,"o":"m 1347 43 q 1318 14 1347 43 q 1206 -15 1289 -15 q 1064 43 1122 -15 q 1006 185 1006 101 q 1064 326 1006 268 q 1206 385 1122 385 q 1347 326 1289 385 q 1406 185 1406 268 q 1347 43 1406 101 m 1260 132 q 1270 143 1260 132 q 1281 185 1281 154 q 1260 238 1281 215 q 1206 260 1239 260 q 1151 238 1172 260 q 1131 185 1131 215 q 1151 132 1131 154 q 1206 110 1172 110 q 1260 132 1239 110 m 200 0 l 108 82 l 864 1032 l 963 953 l 200 0 m 894 43 q 865 14 894 43 q 753 -15 836 -15 q 611 43 669 -15 q 553 185 553 101 q 611 326 553 268 q 753 385 669 385 q 894 326 836 385 q 953 185 953 268 q 894 43 953 101 m 808 131 q 819 143 808 131 q 829 185 829 154 q 808 238 829 215 q 753 261 788 261 q 697 238 718 261 q 676 185 676 215 q 697 131 676 154 q 753 108 718 108 q 808 131 788 108 m 463 668 q 433 639 463 668 q 321 610 404 610 q 179 668 238 610 q 121 810 121 726 q 179 951 121 893 q 321 1010 238 1010 q 463 951 404 1010 q 521 810 521 893 q 463 668 521 726 m 377 756 q 388 767 377 756 q 399 810 399 779 q 377 864 399 840 q 322 888 356 888 q 266 864 288 888 q 244 810 244 840 q 266 756 244 779 q 322 732 288 732 q 377 756 356 732 z "},"‹":{"ha":404,"x_min":58,"x_max":401,"o":"m 400 189 l 318 111 l 58 371 l 58 372 l 318 632 l 401 549 l 221 371 l 400 189 z "},"›":{"ha":413,"x_min":1,"x_max":344,"o":"m 85 111 l 3 189 l 182 371 l 1 549 l 85 632 l 344 372 l 344 371 l 85 111 z "},"⁄":{"ha":739,"x_min":108,"x_max":688,"o":"m 244 -158 l 108 -158 l 558 1135 l 688 1135 l 244 -158 z "},"€":{"ha":743,"x_min":108,"x_max":692,"o":"m 671 143 l 692 26 q 467 -19 574 -19 q 399 -15 444 -19 q 303 16 354 -11 q 222 102 253 43 q 190 249 190 161 l 190 301 l 108 301 l 108 424 l 190 424 l 190 490 l 108 490 l 108 613 l 190 613 l 190 694 q 220 854 190 800 q 311 946 250 908 q 460 981 374 981 q 657 935 567 981 l 621 826 q 483 851 554 851 q 364 816 411 851 q 317 707 317 781 l 317 613 l 553 613 l 553 490 l 317 490 l 317 424 l 553 424 l 553 301 l 317 301 l 317 251 q 347 154 317 189 q 472 110 386 110 q 671 143 558 110 z "},"™":{"ha":794,"x_min":146,"x_max":663,"o":"m 663 711 l 599 711 l 599 878 l 543 711 l 500 711 l 444 878 l 444 711 l 378 711 l 378 908 l 300 908 l 300 711 l 233 711 l 233 908 l 146 908 l 146 972 l 467 972 l 521 822 l 574 972 l 663 972 l 663 711 z "},"Ω":{"ha":874,"x_min":108,"x_max":822,"o":"m 822 0 l 506 0 l 506 115 q 582 126 547 115 q 628 147 617 136 q 653 172 639 157 q 678 272 678 204 l 678 672 q 638 804 678 757 q 529 851 599 851 l 406 851 q 251 672 251 851 l 251 271 q 319 136 251 167 q 425 115 371 115 l 425 0 l 108 0 l 132 115 l 179 115 q 126 272 126 171 l 126 699 q 192 904 126 826 q 388 982 257 982 l 543 982 q 739 904 674 982 q 804 699 804 826 l 804 272 q 798 208 804 226 q 790 180 792 189 q 780 158 788 171 q 770 142 772 146 q 758 128 768 139 l 749 115 l 799 115 l 822 0 z "},"∆":{"ha":861,"x_min":108,"x_max":810,"o":"m 810 0 l 108 0 l 390 972 l 515 972 l 810 0 m 639 115 l 457 733 l 279 115 l 639 115 z "},"ﬀ":{"ha":783,"x_min":108,"x_max":732,"o":"m 444 828 q 358 853 403 853 q 274 824 313 853 q 236 749 236 796 l 236 696 l 371 696 l 338 576 l 236 576 l 236 0 l 108 0 l 108 725 q 219 942 108 875 q 351 976 276 976 q 521 942 426 976 q 624 975 571 975 q 732 956 678 975 l 697 840 q 651 853 674 853 q 608 842 629 853 q 563 749 563 819 l 563 696 l 696 696 l 663 576 l 563 576 l 563 0 l 433 0 l 433 739 q 444 828 433 786 z "},"ﬁ":{"ha":601,"x_min":108,"x_max":550,"o":"m 550 0 l 425 0 l 425 696 l 550 696 l 550 0 m 425 836 q 346 867 390 867 q 269 840 301 867 q 236 763 236 813 l 236 696 l 371 696 l 338 576 l 236 576 l 236 0 l 108 0 l 108 739 q 132 856 108 803 q 292 981 176 954 q 343 985 315 985 q 521 924 433 985 l 425 836 z "},"ﬂ":{"ha":601,"x_min":108,"x_max":550,"o":"m 422 838 q 344 865 388 865 q 268 838 300 865 q 236 763 236 811 l 236 696 l 371 696 l 338 576 l 236 576 l 236 0 l 108 0 l 108 739 q 225 953 108 893 q 355 981 276 981 q 550 939 433 981 l 550 0 l 422 0 l 422 838 z "},"ﬄ":{"ha":924,"x_min":108,"x_max":872,"o":"m 521 942 q 671 981 578 981 q 872 943 764 981 l 872 0 l 743 0 l 743 839 q 682 856 711 856 q 625 844 653 856 q 563 753 563 819 l 563 696 l 696 696 q 663 576 685 657 l 563 576 l 563 0 l 433 0 l 433 739 q 444 828 433 786 q 358 853 403 853 q 274 824 313 853 q 236 749 236 796 l 236 696 l 371 696 q 338 576 360 657 l 236 576 l 236 0 l 108 0 l 108 690 q 113 775 108 736 q 236 953 129 903 q 355 975 286 975 q 521 942 424 975 z "}}}
